<?xml version="1.0" encoding="UTF-8"?>
<svg width="1440px" height="2560px" viewBox="0 0 1440 2560" version="1.1" xmlns="http://www.w3.org/2000/svg" xmlns:xlink="http://www.w3.org/1999/xlink">
    <title>6 copy 10</title>
    <defs>
        <polygon id="path-1" points="0.0392249479 0.0462744039 104.924774 0.0462744039 104.924774 66.5564429 0.0392249479 66.5564429"></polygon>
        <polygon id="path-3" points="0.0391894674 0.391385887 111.092343 0.391385887 111.092343 148.808176 0.0391894674 148.808176"></polygon>
    </defs>
    <g id="6-copy-10" stroke="none" stroke-width="1" fill="none" fill-rule="evenodd">
        <rect fill="#111111" x="0" y="0" width="1440" height="2560"></rect>
        <path d="M1424,62.4 L16,62.4 M1424,126.4 L16,126.4 M1424,190.4 L16,190.4 M1424,254.4 L16,254.4 M1424,318.4 L16,318.4 M81.6,2560 L81.6,0 M721.6,2560 L721.6,0 M401.6,2560 L401.6,0 M337.6,2560 L337.6,0 M145.6,2560 L145.6,0 M593.6,2560 L593.6,0 M657.6,2560 L657.6,0 M209.6,2560 L209.6,0 M273.6,2560 L273.6,0 M465.6,2560 L465.6,0 M529.6,2560 L529.6,0 M785.6,2560 L785.6,0 M849.6,2560 L849.6,0 M1424,382.4 L16,382.4 M1424,446.4 L16,446.4 M1424,510.4 L16,510.4 M1424,574.4 L16,574.4 M1424,638.4 L16,638.4 M1424,702.4 L16,702.4 M1424,766.4 L16,766.4 M1424,830.4 L16,830.4 M1424,894.4 L16,894.4 M1424,958.4 L16,958.4 M1424,1022.4 L16,1022.4 M1424,1086.4 L16,1086.4 M1424,1150.4 L16,1150.4 M1424,1214.4 L16,1214.4 M1424,1278.4 L16,1278.4 M1424,1342.4 L16,1342.4 M1424,1406.4 L16,1406.4 M1424,1470.4 L16,1470.4 M1424,1534.4 L16,1534.4 M1424,1598.4 L16,1598.4 M1424,1662.4 L16,1662.4 M1424,1726.4 L16,1726.4 M1424,1790.4 L16,1790.4 M1424,1854.4 L16,1854.4 M1424,1918.4 L16,1918.4 M1424,1982.4 L16,1982.4 M1424,2046.4 L16,2046.4 M1424,2110.4 L16,2110.4 M1424,2174.4 L16,2174.4 M1424,2238.4 L16,2238.4 M1424,2302.4 L16,2302.4 M1424,2366.4 L16,2366.4 M1424,2430.4 L16,2430.4 M1424,2494.4 L16,2494.4 M1424,3.2 L16,3.2 M1424,2558.4 L16,2558.4 M17.6,2560 L17.6,0 M913.6,2560 L913.6,0 M977.6,2560 L977.6,0 M1041.6,2560 L1041.6,0 M1105.6,2560 L1105.6,0 M1169.6,2560 L1169.6,0 M1233.6,2560 L1233.6,0 M1297.6,2560 L1297.6,0 M1361.6,2560 L1361.6,0 M1422.5,2560 L1422.5,0" id="Combined-Shape" stroke="#E95420" opacity="0.449999988" stroke-linecap="square"></path>
        <g id="Group-3" transform="translate(336.000000, 2186.000000)">
            <g id="Group">
                <path d="M530.367523,117.404927 C533.368639,117.404927 536.150161,116.967294 538.71209,116.092029 C541.274018,115.216764 543.067368,114.436637 544.09214,113.751647 L544.09214,113.751647 L542.335389,107.586736 C541.310617,108.195616 539.883257,108.861579 538.053308,109.584624 C536.223359,110.307669 533.807827,110.669191 530.806711,110.669191 C529.04996,110.669191 527.439605,110.478916 525.975646,110.098366 C524.511687,109.717816 523.267322,108.956716 522.24255,107.815066 C521.217779,106.673416 520.430901,105.056079 519.881916,102.963054 C519.332931,100.870029 519.058439,98.1490962 519.058439,94.8002561 L519.058439,94.8002561 L519.058439,63.4048804 L541.676607,63.4048804 L541.676607,57.1258053 L519.058439,57.1258053 L519.058439,38.4027448 L511.921639,39.7727249 L511.921639,94.1152661 C511.921639,98.0729862 512.21443,101.497936 512.800014,104.390116 C513.385598,107.282296 514.39207,109.698789 515.81943,111.639594 C517.24679,113.580399 519.149937,115.026489 521.52887,115.977864 C523.907804,116.929239 526.854021,117.404927 530.367523,117.404927 Z M573.604399,117.519092 C577.410692,117.519092 580.887595,116.777019 584.035107,115.292874 C587.182619,113.808729 589.909243,111.734732 592.214979,109.070881 C594.520714,106.407031 596.314064,103.172356 597.595028,99.3668562 C598.875993,95.5613561 599.516475,91.337251 599.516475,86.6945409 C599.516475,82.0518308 598.875993,77.8277257 597.595028,74.0222256 C596.314064,70.2167256 594.520714,66.963023 592.214979,64.2611179 C589.909243,61.5592129 587.182619,59.4661878 584.035107,57.9820428 C580.887595,56.4978977 577.410692,55.7558252 573.604399,55.7558252 C569.798105,55.7558252 566.321202,56.4978977 563.17369,57.9820428 C560.026178,59.4661878 557.299554,61.5592129 554.993819,64.2611179 C552.688083,66.963023 550.894733,70.2167256 549.613769,74.0222256 C548.332805,77.8277257 547.692323,82.0518308 547.692323,86.6945409 C547.692323,91.337251 548.332805,95.5613561 549.613769,99.3668562 C550.894733,103.172356 552.688083,106.407031 554.993819,109.070881 C557.299554,111.734732 560.026178,113.808729 563.17369,115.292874 C566.321202,116.777019 569.798105,117.519092 573.604399,117.519092 Z M573.604399,110.783356 C567.968156,110.783356 563.503081,108.614221 560.209173,104.275951 C556.915265,99.9376812 555.268311,94.0772111 555.268311,86.6945409 C555.268311,79.3118708 556.915265,73.4323731 560.209173,69.056048 C563.503081,64.6797229 567.968156,62.4915604 573.604399,62.4915604 C579.240641,62.4915604 583.705717,64.6797229 586.999624,69.056048 C590.293532,73.4323731 591.940486,79.3118708 591.940486,86.6945409 C591.940486,94.0772111 590.293532,99.9376812 586.999624,104.275951 C583.705717,108.614221 579.240641,110.783356 573.604399,110.783356 Z M633.09122,117.290762 C638.288275,117.290762 642.680152,116.910212 646.266852,116.149112 C649.853552,115.388012 652.708272,114.703022 654.831013,114.094142 L654.831013,114.094142 L654.831013,57.1258053 L647.694212,57.1258053 L647.694212,108.956716 C647.035431,109.261156 645.461675,109.603651 642.972944,109.984201 C640.484214,110.364751 637.556296,110.555026 634.18919,110.555026 C631.188074,110.555026 628.644445,110.155449 626.558303,109.356294 C624.472161,108.557139 622.770309,107.263269 621.452746,105.474684 C620.135182,103.686099 619.183609,101.345716 618.598025,98.4535362 C618.012442,95.5613561 617.71965,92.0222411 617.71965,87.836191 L617.71965,87.836191 L617.71965,57.1258053 L610.582849,57.1258053 L610.582849,90.233656 C610.582849,94.2674861 610.967139,97.9588212 611.735717,101.307661 C612.504296,104.656501 613.76696,107.510626 615.523711,109.870036 C617.280462,112.229447 619.586198,114.056087 622.440918,115.349957 C625.295638,116.643827 628.845739,117.290762 633.09122,117.290762 Z M693.456417,117.404927 C696.530732,117.404927 699.476949,117.043404 702.29507,116.320359 C705.113192,115.597314 707.181034,114.855242 708.498597,114.094142 L708.498597,114.094142 L706.96144,107.700901 C706.009867,108.233671 704.491009,108.861579 702.404867,109.584624 C700.318726,110.307669 697.738498,110.669191 694.664184,110.669191 C690.931088,110.669191 687.765276,110.079339 685.166749,108.899634 C682.568222,107.719929 680.445481,106.083564 678.798527,103.990539 C677.151573,101.897514 675.962106,99.3858837 675.230127,96.4556487 C674.498147,93.5254136 674.132157,90.309766 674.132157,86.8087059 C674.132157,79.0454858 675.760812,73.0518231 679.018121,68.827718 C682.27543,64.6036129 687.051596,62.4915604 693.346621,62.4915604 C696.420935,62.4915604 698.873066,62.7198904 700.703015,63.1765504 C702.532964,63.6332104 704.179918,64.2420904 705.643877,65.0031904 L705.643877,65.0031904 L707.510425,58.6099503 C706.046466,57.7727403 703.978623,57.0877503 701.306898,56.5549802 C698.635173,56.0222102 695.762153,55.7558252 692.687839,55.7558252 C688.661951,55.7558252 685.038653,56.4978977 681.817943,57.9820428 C678.597233,59.4661878 675.852309,61.5782404 673.583173,64.3182004 C671.314036,67.0581605 669.575585,70.3308906 668.367819,74.1363906 C667.160052,77.9418907 666.556169,82.1659958 666.556169,86.8087059 C666.556169,91.375306 667.141753,95.5423286 668.31292,99.3097737 C669.484087,103.077219 671.18594,106.311894 673.418477,109.013799 C675.651015,111.715704 678.450837,113.789702 681.817943,115.235792 C685.185049,116.681882 689.06454,117.404927 693.456417,117.404927 Z M723.847052,116.149112 L723.847052,65.3456854 C724.139844,65.1934654 724.780326,64.9651354 725.768498,64.6606954 C726.756671,64.3562554 727.87294,64.0708429 729.117305,63.8044579 C730.36167,63.5380729 731.697533,63.2907154 733.124893,63.0623854 C734.552253,62.8340554 735.888116,62.7198904 737.132481,62.7198904 C740.353191,62.7198904 743.024916,63.1194679 745.147657,63.9186229 C747.270398,64.7177779 748.97225,66.0306755 750.253214,67.8573155 C751.534178,69.6839555 752.449153,72.0433656 752.998137,74.9355457 C753.547122,77.8277257 753.821614,81.3668408 753.821614,85.5528909 L753.821614,85.5528909 L753.821614,116.149112 L760.958415,116.149112 L760.958415,83.1554259 C760.958415,79.1215958 760.610725,75.4302607 759.915344,72.0814206 C759.219964,68.7325805 757.993898,65.859428 756.237147,63.4619629 C754.480396,61.0644979 752.138062,59.2188303 749.210143,57.9249603 C746.282225,56.6310903 742.622327,55.9841552 738.23045,55.9841552 C735.814918,55.9841552 733.399385,56.2315127 730.983853,56.7262278 C728.56832,57.2209428 726.189387,57.9249603 723.847052,58.8382803 L723.847052,58.8382803 L723.847052,27.5570696 L716.710252,28.9270496 L716.710252,116.149112 L723.847052,116.149112 Z" id="touch" fill="#E95420" fill-rule="nonzero"></path>
                <g id="Group-4" transform="translate(468.838088, 55.540668) rotate(-270.000000) translate(-468.838088, -55.540668) translate(416.079685, 22.054181)">
                    <mask id="mask-2" fill="white">
                        <use xlink:href="#path-1"></use>
                    </mask>
                    <g id="Clip-2"></g>
                    <path d="M99.9569348,62.6866788 L99.9569348,61.7646264 C99.9569348,60.9880896 99.9196711,60.2761509 99.0612984,60.2761509 C98.3389057,60.2761509 98.2277683,60.9241715 98.2277683,61.5205137 L98.2277683,62.6866788 L99.9569348,62.6866788 Z M97.5419855,63.5658924 L97.5419855,61.3783979 C97.5419855,60.0299983 98.0519098,59.3955773 99.0998696,59.3955773 C100.081801,59.3955773 100.493009,60.0435979 100.580611,60.8854127 L102.983793,59.2663812 L102.983793,60.2122328 L100.642064,61.7530667 L100.642064,62.6866788 L102.983793,62.6866788 L102.983793,63.5658924 L97.5419855,63.5658924 Z M104.239645,61.6741891 C104.239645,59.4350161 102.522246,57.6997081 100.243931,57.6997081 C98.0152998,57.6997081 96.2965934,59.4350161 96.2965934,61.6741891 C96.2965934,63.9412412 98.0152998,65.6772292 100.243931,65.6772292 C102.522246,65.6772292 104.239645,63.9412412 104.239645,61.6741891 Z M95.6127718,61.6741891 C95.6127718,59.0331482 97.6158591,56.8191344 100.243931,56.8191344 C102.921033,56.8191344 104.924774,59.0331482 104.924774,61.6741891 C104.924774,64.3308695 102.921033,66.5564429 100.243931,66.5564429 C97.6158591,66.5564429 95.6127718,64.3308695 95.6127718,61.6741891 L95.6127718,61.6741891 Z" id="Fill-1" fill="#1A1919" mask="url(#mask-2)"></path>
                    <path d="M59.2636663,30.8670315 C59.2636663,47.8876019 45.9971352,61.6871087 29.6318331,61.6871087 C13.2665311,61.6871087 0,47.8876019 0,30.8670315 C0,13.8451012 13.2665311,0.0462744039 29.6318331,0.0462744039 C45.9971352,0.0462744039 59.2636663,13.8451012 59.2636663,30.8670315" id="Fill-3" fill="#E95420" mask="url(#mask-2)"></path>
                </g>
                <path d="M483.073971,13.2456605 C484.966638,14.3814584 487.386426,13.7089465 488.4786,11.7423586 C489.571429,9.77645001 488.923972,7.2630216 487.031306,6.12790299 C485.137985,4.99346368 482.718851,5.66733421 481.625369,7.63324281 C480.533194,9.59847211 481.181959,12.1112212 483.073971,13.2456605 Z M474.974222,39.8275435 C473.234591,39.8275435 471.584557,39.425395 470.105216,38.7100868 L467.35516,43.8293291 C469.651342,45.0113198 472.238553,45.6783973 474.974222,45.6783973 C476.56605,45.6783973 478.104904,45.4487922 479.567895,45.0283024 C479.82557,43.376912 480.769287,41.8559482 482.274133,40.9524726 C483.777672,40.0517142 485.514687,39.9627252 487.019534,40.5530412 C489.946169,37.5640993 491.850608,33.4991384 492.127902,28.9708914 L486.48718,28.8846197 C485.968561,35.0194229 481.013882,39.8275435 474.974222,39.8275435 Z M474.974222,15.8113954 C481.013882,15.8113954 485.968561,20.6208746 486.488488,26.7549986 L492.127902,26.6687268 C491.850608,22.1404799 489.946169,18.0755189 487.019534,15.0858977 C485.514687,15.6762137 483.776364,15.5858662 482.274133,14.6864664 C480.769287,13.7843494 479.82557,12.2627062 479.567895,10.6106365 C478.104904,10.1915053 476.56605,9.96190027 474.974222,9.96190027 C472.238553,9.96190027 469.651342,10.6296571 467.35516,11.8102891 L470.105216,16.9288521 C471.584557,16.213544 473.234591,15.8113954 474.974222,15.8113954 Z M463.414176,27.8201488 C463.414176,23.757905 465.3572,20.1684575 468.329615,17.9953609 L465.436333,12.961711 C461.973421,15.3657713 459.397328,19.0394527 458.326735,23.3421704 C459.575869,24.4012068 460.375707,26.0131975 460.375707,27.8201488 C460.375707,29.6257414 459.575869,31.2377321 458.326735,32.2967686 C459.39602,36.6008449 461.972113,40.2745262 465.436333,42.6785865 L468.329615,37.643578 C465.3572,35.47184 463.414176,31.8830718 463.414176,27.8201488 Z M483.075279,42.3919198 C481.181959,43.5277177 480.533194,46.0404668 481.626677,48.0056961 C482.718851,49.9716047 485.137985,50.6461546 487.031306,49.5103566 C488.923972,48.3759173 489.572737,45.8631682 488.479908,43.8965803 C487.387734,41.9320303 484.966638,41.2574805 483.075279,42.3919198 Z M454.818042,23.7083158 C452.631077,23.7083158 450.8594,25.5485529 450.8594,27.8201488 C450.8594,30.090386 452.631077,31.9306232 454.818042,31.9306232 C457.0037,31.9306232 458.775377,30.090386 458.775377,27.8201488 C458.775377,25.5485529 457.0037,23.7083158 454.818042,23.7083158 L454.818042,23.7083158 Z" id="Fill-5" fill="#FFFFFE" transform="translate(471.493651, 27.819518) rotate(-270.000000) translate(-471.493651, -27.819518) "></path>
                <g id="Group-9" transform="translate(76.845323, 58.864094) rotate(-270.000000) translate(-76.845323, -58.864094) translate(20.889441, -16.081852)">
                    <mask id="mask-4" fill="white">
                        <use xlink:href="#path-3"></use>
                    </mask>
                    <g id="Clip-7"></g>
                    <path d="M107.286392,87.2111039 C108.039483,90.3415115 108.837642,94.4707685 109.682828,99.6036313 C110.529321,104.737174 110.951261,110.67659 110.951261,117.42324 C110.951261,123.288593 110.127629,128.227122 108.48559,132.23475 C106.842245,136.245776 104.515044,139.471992 101.506599,141.914756 C98.5001137,144.359559 94.9508542,146.119436 90.8627396,147.194388 C86.774625,148.272059 82.24171,148.808176 77.2587692,148.808176 L36.0948058,148.808176 L36.0948058,135.168785 L74.439087,135.168785 C83.3690603,135.168785 89.7595561,133.702447 93.6112276,130.768412 C97.466818,127.835736 99.3923272,122.899245 99.3923272,115.956223 C99.3923272,114.489885 99.3452998,112.975303 99.2499388,111.409759 C99.1578436,109.846934 99.0389688,108.380596 98.8978868,107.010066 C98.7568047,105.642253 98.6163757,104.39539 98.4759468,103.270156 C98.3348647,102.14764 98.1722285,101.341086 97.9828127,100.850494 L36.0948058,100.850494 L36.0948058,87.2111039 L107.286392,87.2111039" id="Fill-6" fill="#FFFFFF" mask="url(#mask-4)"></path>
                    <path d="M97.9828127,53.9208803 C98.3590316,52.5537477 98.7110836,50.6219593 99.0389688,48.1282333 C99.3694667,45.6351867 99.5334093,42.5326382 99.5334093,38.8158312 C99.5334093,31.4827818 97.2062081,25.6160704 92.5550715,21.2170561 C87.9019754,16.8173623 81.3005096,14.6171757 72.7467552,14.6171757 C68.9904447,14.6171757 65.4653521,15.0092411 62.17409,15.7899744 C58.8854405,16.5747846 56.0422447,17.8433913 53.6458088,19.6032688 C51.2487197,21.3631463 49.3695847,23.6367178 48.0057912,26.4233038 C46.6452636,29.2098898 45.9627137,32.5597725 45.9627137,36.4695544 C45.9627137,40.1863613 46.5747225,43.6075904 47.7948213,46.7346006 C49.0175327,49.8656877 50.2872714,52.2602083 51.6007717,53.9208803 L97.9828127,53.9208803 Z M39.3364279,53.9208803 C38.3037854,52.2602083 37.2221561,49.7420206 36.0948058,46.3683558 C34.9668023,42.9953705 34.4031271,39.1093707 34.4031271,34.7096769 C34.4031271,29.2350309 35.3430212,24.3698869 37.2221561,20.1162833 C39.1032506,15.8640387 41.733517,12.2708988 45.1175275,9.33754316 C48.5002317,6.40418747 52.5426252,4.18157769 57.2414424,2.66495738 C61.9409127,1.14901655 67.1086971,0.391385887 72.7467552,0.391385887 C78.6682837,0.391385887 84.0039297,1.29646575 88.749121,3.10390752 C93.4949655,4.91406725 97.5125391,7.48117815 100.801189,10.8038813 C104.092451,14.1293023 106.629316,18.1362512 108.414396,22.8301639 C110.198823,27.5233971 111.092343,32.8023502 111.092343,38.6690615 C111.092343,45.0256848 110.66975,50.6471005 109.82391,55.5346676 C108.978071,60.4249527 108.132885,64.4332606 107.286392,67.5609503 L2.2592728,67.5609503 L0.00457210453,53.9208803 L39.3364279,53.9208803 L39.3364279,53.9208803 Z" id="Fill-8" fill="#FFFFFF" mask="url(#mask-4)"></path>
                </g>
                <path d="M226.74762,47.1083306 C227.526524,50.1221702 228.352041,54.0991823 229.226196,59.041984 C230.101703,63.9854401 230.538106,69.7049304 230.538106,76.2011093 C230.538106,81.8505864 229.686243,86.6055957 227.987922,90.4654828 C226.288249,94.3273329 223.88128,97.4347416 220.769718,99.785746 C217.660182,102.141331 213.989268,103.835389 209.761028,104.870537 C205.532789,105.907649 200.844503,106.423914 195.690767,106.423914 L153.115863,106.423914 L153.115863,93.2902214 L192.774437,93.2902214 C202.010495,93.2902214 208.620032,91.8775249 212.603724,89.0527864 C216.591469,86.2287021 218.582977,81.4750015 218.582977,74.7884128 C218.582977,73.3763707 218.534338,71.9185256 218.435708,70.4109514 C218.340456,68.9059946 218.217507,67.4939525 218.071589,66.1735164 C217.925671,64.8570064 217.780429,63.6563125 217.635187,62.5720893 C217.489269,61.4911377 217.321058,60.7144491 217.12515,60.2426778 L153.115863,60.2426778 L153.115863,47.1083306 L226.74762,47.1083306" id="Fill-10" fill="#FFFFFF" transform="translate(191.826984, 76.766122) rotate(-270.000000) translate(-191.826984, -76.766122) "></path>
                <path d="M235.105639,105.174775 C234.322822,102.155867 233.490356,98.1468317 232.609601,93.1443895 C231.729526,88.1445701 231.288809,82.3893682 231.288809,75.8794394 C231.288809,70.029159 232.146439,65.1716295 233.85762,61.3009497 C235.570841,57.4335484 237.966902,54.3444797 241.050564,52.0317763 C244.133546,49.7210401 247.828636,48.093558 252.133792,47.1480183 C256.440309,46.2070687 261.186863,45.7329875 266.372775,45.7329875 L309.235948,45.7329875 L309.235948,58.8964464 L269.307491,58.8964464 C264.611265,58.8964464 260.59924,59.2033205 257.272095,59.8157574 C253.945631,60.4301615 251.253718,61.4419282 249.198396,62.8582705 C247.142395,64.273957 245.650893,66.1617577 244.720489,68.5190496 C243.790766,70.87962 243.325564,73.8047603 243.325564,77.2931588 C243.325564,78.7095011 243.376573,80.1737105 243.47247,81.681197 C243.571087,83.1913064 243.693509,84.6312544 243.840415,85.9977624 C243.98664,87.3668933 244.159391,88.5943899 244.353905,89.6769738 C244.55114,90.7628362 244.698045,91.5418244 244.793942,92.0126271 L309.235948,92.0126271 L309.235948,105.174775 L235.105639,105.174775" id="Fill-11" fill="#FFFFFF" transform="translate(270.262378, 75.453881) rotate(-270.000000) translate(-270.262378, -75.453881) "></path>
                <path d="M311.904692,73.5127587 L311.904692,46.3321721 L323.29386,46.3321721 L323.29386,73.5127587 L358.336778,73.5127587 C362.133393,73.5127587 365.273109,73.2378845 367.754574,72.6849398 C370.238069,72.1332736 372.185086,71.3054547 373.595625,70.2014831 C375.008193,69.0981507 376.006056,67.7180264 376.589213,66.0630279 C377.173048,64.4073901 377.46598,62.4755995 377.46598,60.2682956 C377.46598,56.3145814 377.004595,53.1854898 376.078443,50.8854957 C375.15432,48.5886978 374.497422,47.0225539 374.107748,46.1953743 L385.204661,43.4357649 C385.88659,44.7244775 386.763356,47.0014589 387.832254,50.2654306 C388.902504,53.53132 389.438306,57.2318942 389.438306,61.3722672 C389.438306,66.2477689 388.782084,70.2705213 387.467611,73.4443598 C386.153138,76.617559 384.182443,79.1700539 381.554174,81.1012052 C378.925227,83.0329957 375.690122,84.3913858 371.842768,85.1712615 C367.999474,85.9543334 363.546637,86.3449105 358.482905,86.3449105 L290.731731,86.3449105 L288.395717,73.5127587 L311.904692,73.5127587" id="Fill-12" fill="#FFFFFF" transform="translate(338.917011, 64.890338) rotate(-270.000000) translate(-338.917011, -64.890338) "></path>
                <path d="M435.283032,47.3076772 C436.067216,50.329174 436.89833,54.3145599 437.778412,59.2671132 C438.659855,64.2203223 439.099216,69.9518553 439.099216,76.4623679 C439.099216,82.1230846 438.241577,86.8887615 436.531742,90.7561201 C434.820546,94.6267572 432.397259,97.740053 429.264601,100.097319 C426.133984,102.456552 422.438182,104.154833 418.181277,105.192161 C413.924371,106.232112 409.204301,106.749464 404.015623,106.749464 L361.152076,106.749464 L361.152076,93.5868063 L401.079522,93.5868063 C410.378197,93.5868063 417.032545,92.1711353 421.043245,89.3411048 C425.058025,86.5110744 427.063035,81.7480203 427.063035,75.0473527 C427.063035,73.6323374 427.014066,72.170767 426.914768,70.6600186 C426.81887,69.1525487 426.695087,67.736222 426.54818,66.4143172 C426.401273,65.0937237 426.255046,63.8911574 426.108819,62.805307 C425.961912,61.7220794 425.792561,60.9430997 425.595324,60.4709909 L361.152076,60.4709909 L361.152076,47.3076772 L435.283032,47.3076772" id="Fill-13" fill="#FFFFFF" transform="translate(400.125646, 77.028571) rotate(-270.000000) translate(-400.125646, -77.028571) "></path>
            </g>
            <path d="M6.44167654,178.639004 L6.44167654,165.294606 L11.1992882,165.294606 C13.594965,165.294606 15.7460129,165.103734 17.6524317,164.721992 C19.5588506,164.340249 21.1700276,163.726141 22.4859628,162.879668 C23.8018979,162.033195 24.8141557,160.921162 25.5227362,159.543568 C26.2313167,158.165975 26.5856069,156.497925 26.5856069,154.539419 C26.5856069,151.120332 25.3708975,148.481328 22.9414788,146.622407 C20.51206,144.763485 16.8173191,143.834025 11.8572558,143.834025 C10.4400949,143.834025 8.91327268,143.908714 7.27678923,144.058091 C5.64030578,144.207469 4.21470937,144.448133 3,144.780083 L3,144.780083 L3,178.639004 L6.44167654,178.639004 Z M10.7943851,162.356846 L6.44167654,162.356846 L6.44167654,147.120332 C7.08277315,147.053942 7.85040199,146.979253 8.74456305,146.896266 C9.63872411,146.813278 10.7269013,146.771784 12.0090945,146.771784 C13.3925135,146.771784 14.7421906,146.887967 16.0581257,147.120332 C17.3740608,147.352697 18.5465928,147.759336 19.5757216,148.340249 C20.6048503,148.921162 21.4315276,149.709544 22.0557532,150.705394 C22.6799788,151.701245 22.9920917,152.962656 22.9920917,154.489627 C22.9920917,156.082988 22.7052853,157.394191 22.1316725,158.423237 C21.5580598,159.452282 20.7398181,160.257261 19.6769474,160.838174 C18.6140767,161.419087 17.3318834,161.817427 15.8303677,162.033195 C14.3288519,162.248963 12.6501911,162.356846 10.7943851,162.356846 L10.7943851,162.356846 Z M44.1482799,179.236515 C45.9028601,179.236515 47.5056016,178.912863 48.9565045,178.26556 C50.4074073,177.618257 51.6642941,176.713693 52.7271648,175.551867 C53.7900355,174.390041 54.6167127,172.979253 55.2071964,171.319502 C55.7976802,169.659751 56.092922,167.817427 56.092922,165.792531 C56.092922,163.767635 55.7976802,161.925311 55.2071964,160.26556 C54.6167127,158.605809 53.7900355,157.186722 52.7271648,156.008299 C51.6642941,154.829876 50.4074073,153.917012 48.9565045,153.26971 C47.5056016,152.622407 45.9028601,152.298755 44.1482799,152.298755 C42.3936997,152.298755 40.7909582,152.622407 39.3400553,153.26971 C37.8891525,153.917012 36.6322657,154.829876 35.569395,156.008299 C34.5065243,157.186722 33.6798471,158.605809 33.0893634,160.26556 C32.4988797,161.925311 32.2036378,163.767635 32.2036378,165.792531 C32.2036378,167.817427 32.4988797,169.659751 33.0893634,171.319502 C33.6798471,172.979253 34.5065243,174.390041 35.569395,175.551867 C36.6322657,176.713693 37.8891525,177.618257 39.3400553,178.26556 C40.7909582,178.912863 42.3936997,179.236515 44.1482799,179.236515 Z M44.1482799,176.298755 C41.5501515,176.298755 39.491894,175.352697 37.9735073,173.460581 C36.4551206,171.568465 35.6959272,169.012448 35.6959272,165.792531 C35.6959272,162.572614 36.4551206,160.008299 37.9735073,158.099585 C39.491894,156.190871 41.5501515,155.236515 44.1482799,155.236515 C46.7464083,155.236515 48.8046658,156.190871 50.3230525,158.099585 C51.8414392,160.008299 52.6006326,162.572614 52.6006326,165.792531 C52.6006326,169.012448 51.8414392,171.568465 50.3230525,173.460581 C48.8046658,175.352697 46.7464083,176.298755 44.1482799,176.298755 Z M73.4025306,178.639004 C73.9086595,177.477178 74.4400948,176.174274 74.9968366,174.73029 C75.5535784,173.286307 76.1271912,171.742739 76.7176749,170.099585 C77.3081586,168.456432 77.8817714,166.73029 78.4385132,164.921162 C78.995255,163.112033 79.5266903,161.261411 80.0328192,159.369295 C80.5389481,161.261411 81.0703835,163.112033 81.6271253,164.921162 C82.1838671,166.73029 82.7574798,168.456432 83.3479635,170.099585 C83.9384473,171.742739 84.51206,173.286307 85.0688018,174.73029 C85.6255436,176.174274 86.156979,177.477178 86.6631079,178.639004 L86.6631079,178.639004 L89.7504942,178.639004 C91.4713324,174.887967 93.0487675,170.921162 94.4827994,166.738589 C95.9168313,162.556017 97.2412019,157.941909 98.4559113,152.896266 L98.4559113,152.896266 L95.2166863,152.896266 C94.8455251,154.655602 94.3815736,156.556017 93.8248318,158.59751 C93.26809,160.639004 92.6691708,162.6639 92.0280742,164.672199 C91.3869776,166.680498 90.745881,168.589212 90.1047844,170.39834 C89.4636878,172.207469 88.8563331,173.742739 88.2827203,175.004149 C87.6078818,173.344398 86.9414788,171.568465 86.2835112,169.676349 C85.6255436,167.784232 85.001318,165.86722 84.4108342,163.925311 C83.8203505,161.983402 83.2804797,160.074689 82.7912217,158.19917 C82.3019638,156.323651 81.9054962,154.556017 81.6018188,152.896266 L81.6018188,152.896266 L78.767497,152.896266 C78.3963358,154.556017 77.9576907,156.323651 77.4515618,158.19917 C76.9454329,160.074689 76.4055621,161.975104 75.8319493,163.900415 C75.2583366,165.825726 74.6425464,167.73444 73.9845788,169.626556 C73.3266113,171.518672 72.6770792,173.294606 72.0359826,174.954357 C71.4623698,173.692946 70.8465796,172.165975 70.1886121,170.373444 C69.5306445,168.580913 68.8811124,166.680498 68.2400158,164.672199 C67.5989192,162.6639 67,160.639004 66.4432582,158.59751 C65.8865164,156.556017 65.4225649,154.655602 65.0514037,152.896266 L65.0514037,152.896266 L61.5591143,152.896266 C62.7738236,157.941909 64.0981943,162.556017 65.5322262,166.738589 C66.966258,170.921162 68.5436931,174.887967 70.2645314,178.639004 L70.2645314,178.639004 L73.4025306,178.639004 Z M116.777778,179.186722 C118.532358,179.186722 120.05918,179.004149 121.358244,178.639004 C122.657308,178.273859 123.543034,177.958506 124.015421,177.692946 L124.015421,177.692946 L123.408066,174.904564 C122.935679,175.136929 122.176486,175.419087 121.130486,175.751037 C120.084487,176.082988 118.667326,176.248963 116.879003,176.248963 C113.639778,176.248963 111.277844,175.40249 109.793199,173.709544 C108.308554,172.016598 107.515619,169.593361 107.414393,166.439834 L107.414393,166.439834 L125.786872,166.439834 C125.820614,166.207469 125.845921,165.958506 125.862791,165.692946 C125.879662,165.427386 125.888098,165.161826 125.888098,164.896266 C125.888098,160.614108 124.934889,157.443983 123.02847,155.385892 C121.122051,153.327801 118.5661,152.298755 115.360617,152.298755 C113.909714,152.298755 112.500988,152.572614 111.13444,153.120332 C109.767892,153.66805 108.553183,154.506224 107.490312,155.634855 C106.427442,156.763485 105.567022,158.165975 104.909055,159.842324 C104.251087,161.518672 103.922104,163.485477 103.922104,165.742739 C103.922104,167.701245 104.158297,169.502075 104.630684,171.145228 C105.103071,172.788382 105.862264,174.207469 106.908264,175.40249 C107.954264,176.59751 109.28707,177.526971 110.906682,178.190871 C112.526295,178.854772 114.483327,179.186722 116.777778,179.186722 Z M122.497034,163.701245 L107.515619,163.701245 C107.583103,162.572614 107.810861,161.493776 108.198893,160.46473 C108.586925,159.435685 109.126796,158.53112 109.818505,157.751037 C110.510215,156.970954 111.320021,156.348548 112.247924,155.883817 C113.175827,155.419087 114.230262,155.186722 115.41123,155.186722 C117.638197,155.186722 119.359035,155.93361 120.573744,157.427386 C121.788454,158.921162 122.42955,161.012448 122.497034,163.701245 L122.497034,163.701245 Z M138.035192,178.639004 L138.035192,156.082988 C138.305127,155.950207 138.870304,155.784232 139.730724,155.585062 C140.591143,155.385892 141.729933,155.286307 143.147094,155.286307 C144.496771,155.286307 145.584948,155.360996 146.411625,155.510373 C147.238302,155.659751 147.786609,155.80083 148.056544,155.93361 L148.056544,155.93361 L148.714512,153.145228 C148.34335,152.979253 147.676947,152.813278 146.715302,152.647303 C145.753657,152.481328 144.732964,152.39834 143.653223,152.39834 C141.527481,152.39834 139.722288,152.589212 138.237643,152.970954 C136.752998,153.352697 135.588902,153.726141 134.745354,154.091286 L134.745354,154.091286 L134.745354,178.639004 L138.035192,178.639004 Z M166.479636,179.186722 C168.234216,179.186722 169.761039,179.004149 171.060103,178.639004 C172.359167,178.273859 173.244892,177.958506 173.717279,177.692946 L173.717279,177.692946 L173.109925,174.904564 C172.637538,175.136929 171.878344,175.419087 170.832345,175.751037 C169.786345,176.082988 168.369184,176.248963 166.580862,176.248963 C163.341637,176.248963 160.979702,175.40249 159.495057,173.709544 C158.010412,172.016598 157.217477,169.593361 157.116251,166.439834 L157.116251,166.439834 L175.488731,166.439834 C175.522473,166.207469 175.547779,165.958506 175.56465,165.692946 C175.581521,165.427386 175.589956,165.161826 175.589956,164.896266 C175.589956,160.614108 174.636747,157.443983 172.730328,155.385892 C170.823909,153.327801 168.267958,152.298755 165.062475,152.298755 C163.611572,152.298755 162.202847,152.572614 160.836299,153.120332 C159.469751,153.66805 158.255041,154.506224 157.192171,155.634855 C156.1293,156.763485 155.268881,158.165975 154.610913,159.842324 C153.952946,161.518672 153.623962,163.485477 153.623962,165.742739 C153.623962,167.701245 153.860155,169.502075 154.332542,171.145228 C154.804929,172.788382 155.564123,174.207469 156.610123,175.40249 C157.656122,176.59751 158.988928,177.526971 160.608541,178.190871 C162.228153,178.854772 164.185185,179.186722 166.479636,179.186722 Z M172.198893,163.701245 L157.217477,163.701245 C157.284961,162.572614 157.512719,161.493776 157.900751,160.46473 C158.288783,159.435685 158.828654,158.53112 159.520364,157.751037 C160.212073,156.970954 161.021879,156.348548 161.949782,155.883817 C162.877685,155.419087 163.932121,155.186722 165.113088,155.186722 C167.340055,155.186722 169.060894,155.93361 170.275603,157.427386 C171.490312,158.921162 172.131409,161.012448 172.198893,163.701245 L172.198893,163.701245 Z M195.733887,179.236515 C198.06208,179.236515 199.98537,179.087137 201.503756,178.788382 C203.022143,178.489627 204.270594,178.174274 205.24911,177.842324 L205.24911,177.842324 L205.24911,140 L201.959272,140.59751 L201.959272,154.439834 C201.38566,154.008299 200.466192,153.551867 199.20087,153.070539 C197.935548,152.589212 196.442467,152.348548 194.721629,152.348548 C192.832081,152.348548 191.15342,152.680498 189.685646,153.344398 C188.217873,154.008299 186.977857,154.937759 185.965599,156.13278 C184.953341,157.327801 184.185712,158.746888 183.662712,160.390041 C183.139713,162.033195 182.878213,163.834025 182.878213,165.792531 C182.878213,167.883817 183.190326,169.759336 183.814551,171.419087 C184.438777,173.078838 185.316067,174.489627 186.446421,175.651452 C187.576776,176.813278 188.926453,177.701245 190.495453,178.315353 C192.064452,178.929461 193.810597,179.236515 195.733887,179.236515 Z M195.7845,176.298755 C192.950178,176.298755 190.672598,175.394191 188.95176,173.585062 C187.230921,171.775934 186.370502,169.178423 186.370502,165.792531 C186.370502,164.365145 186.522341,163.012448 186.826018,161.73444 C187.129695,160.456432 187.618953,159.344398 188.293792,158.39834 C188.96863,157.452282 189.854356,156.697095 190.950969,156.13278 C192.047581,155.568465 193.405694,155.286307 195.025306,155.286307 C195.801371,155.286307 196.543693,155.360996 197.252274,155.510373 C197.960854,155.659751 198.618822,155.850622 199.226176,156.082988 C199.833531,156.315353 200.364966,156.564315 200.820482,156.829876 C201.275998,157.095436 201.655595,157.344398 201.959272,157.576763 L201.959272,157.576763 L201.959272,175.60166 C201.453143,175.767635 200.702386,175.925311 199.706999,176.074689 C198.711612,176.224066 197.404112,176.298755 195.7845,176.298755 Z M238.046263,179.236515 C239.969553,179.236515 241.715698,178.929461 243.284697,178.315353 C244.853697,177.701245 246.203374,176.813278 247.333729,175.651452 C248.464083,174.489627 249.341373,173.078838 249.965599,171.419087 C250.589825,169.759336 250.901937,167.883817 250.901937,165.792531 C250.901937,163.834025 250.640438,162.033195 250.117438,160.390041 C249.594438,158.746888 248.826809,157.327801 247.814551,156.13278 C246.802293,154.937759 245.562278,154.008299 244.094504,153.344398 C242.62673,152.680498 240.948069,152.348548 239.058521,152.348548 C237.337683,152.348548 235.844603,152.589212 234.57928,153.070539 C233.313958,153.551867 232.394491,154.008299 231.820878,154.439834 L231.820878,154.439834 L231.820878,140 L228.53104,140.59751 L228.53104,177.842324 C229.509556,178.174274 230.758007,178.489627 232.276394,178.788382 C233.794781,179.087137 235.71807,179.236515 238.046263,179.236515 Z M237.99565,176.298755 C236.376038,176.298755 235.068538,176.224066 234.073151,176.074689 C233.077765,175.925311 232.327007,175.767635 231.820878,175.60166 L231.820878,175.60166 L231.820878,157.576763 C232.124555,157.344398 232.504152,157.095436 232.959668,156.829876 C233.415184,156.564315 233.946619,156.315353 234.553974,156.082988 C235.161329,155.850622 235.819296,155.659751 236.527877,155.510373 C237.236457,155.360996 237.978779,155.286307 238.754844,155.286307 C240.374456,155.286307 241.732569,155.568465 242.829181,156.13278 C243.925794,156.697095 244.81152,157.452282 245.486358,158.39834 C246.161197,159.344398 246.650455,160.456432 246.954132,161.73444 C247.257809,163.012448 247.409648,164.365145 247.409648,165.792531 C247.409648,169.178423 246.549229,171.775934 244.828391,173.585062 C243.107552,175.394191 240.829972,176.298755 237.99565,176.298755 Z M258.848161,188 C260.332806,188 261.623435,187.834025 262.720047,187.502075 C263.81666,187.170124 264.778305,186.655602 265.604982,185.958506 C266.431659,185.261411 267.182417,184.373444 267.857256,183.294606 C268.532094,182.215768 269.190062,180.929461 269.831158,179.435685 C271.450771,175.651452 272.952287,171.485477 274.335706,166.937759 C275.719125,162.390041 276.950705,157.709544 278.030447,152.896266 L278.030447,152.896266 L274.740609,152.896266 C274.23448,155.087137 273.753657,157.128631 273.298141,159.020747 C272.842625,160.912863 272.370238,162.763485 271.880981,164.572614 C271.391723,166.381743 270.860287,168.19917 270.286675,170.024896 C269.713062,171.850622 269.055094,173.792531 268.312772,175.850622 C267.300514,173.858921 266.35574,171.834025 265.47845,169.775934 C264.60116,167.717842 263.799789,165.709544 263.074338,163.751037 C262.348886,161.792531 261.699354,159.892116 261.125741,158.049793 C260.552129,156.207469 260.079742,154.489627 259.70858,152.896266 L259.70858,152.896266 L256.216291,152.896266 C256.756162,155.053942 257.397258,157.253112 258.139581,159.493776 C258.881903,161.73444 259.700145,163.975104 260.594306,166.215768 C261.488467,168.456432 262.450112,170.672199 263.479241,172.863071 C264.50837,175.053942 265.579676,177.161826 266.693159,179.186722 C266.220772,180.348548 265.73995,181.311203 265.250692,182.074689 C264.761434,182.838174 264.213128,183.460581 263.605773,183.941909 C262.998418,184.423237 262.315144,184.763485 261.555951,184.962656 C260.796758,185.161826 259.944774,185.261411 259,185.261411 C258.325161,185.261411 257.675629,185.170124 257.051404,184.987552 C256.427178,184.804979 256.047581,184.6639 255.912614,184.564315 L255.912614,184.564315 L255.254646,187.253112 C255.423356,187.352697 255.853565,187.502075 256.545275,187.701245 C257.236984,187.900415 258.004613,188 258.848161,188 Z M310.979438,179.385892 C313.307631,179.385892 315.28997,179.037344 316.926453,178.340249 C318.562937,177.643154 319.887307,176.680498 320.899565,175.452282 C321.911823,174.224066 322.64571,172.788382 323.101226,171.145228 C323.556742,169.502075 323.7845,167.73444 323.7845,165.842324 L323.7845,165.842324 L323.7845,144.13278 L320.342823,144.13278 L320.342823,165.394191 C320.342823,167.286307 320.115065,168.921162 319.659549,170.298755 C319.204033,171.676349 318.571372,172.813278 317.761566,173.709544 C316.95176,174.605809 315.973244,175.26971 314.826018,175.701245 C313.678793,176.13278 312.396599,176.348548 310.979438,176.348548 C309.562278,176.348548 308.280084,176.13278 307.132859,175.701245 C305.985633,175.26971 305.007117,174.605809 304.197311,173.709544 C303.387505,172.813278 302.754844,171.676349 302.299328,170.298755 C301.843812,168.921162 301.616054,167.286307 301.616054,165.394191 L301.616054,165.394191 L301.616054,144.13278 L298.174377,144.13278 L298.174377,165.842324 C298.174377,167.73444 298.402135,169.502075 298.857651,171.145228 C299.313167,172.788382 300.047054,174.224066 301.059312,175.452282 C302.07157,176.680498 303.39594,177.643154 305.032424,178.340249 C306.668907,179.037344 308.651246,179.385892 310.979438,179.385892 Z M342.663108,178.937759 C348.163042,178.937759 352.228944,178.082988 354.860814,176.373444 C357.492685,174.6639 358.80862,172.182573 358.80862,168.929461 C358.80862,167.568465 358.631475,166.39834 358.277185,165.419087 C357.922894,164.439834 357.425201,163.609959 356.784104,162.929461 C356.143008,162.248963 355.400685,161.692946 354.557137,161.261411 C353.713589,160.829876 352.785686,160.497925 351.773428,160.26556 C353.393041,159.767635 354.683669,158.863071 355.645314,157.551867 C356.606959,156.240664 357.087782,154.655602 357.087782,152.79668 C357.087782,151.103734 356.708185,149.684647 355.948992,148.539419 C355.189798,147.394191 354.169105,146.473029 352.886912,145.775934 C351.604719,145.078838 350.111638,144.580913 348.407671,144.282158 C346.703704,143.983402 344.906946,143.834025 343.017398,143.834025 C342.376302,143.834025 341.676157,143.850622 340.916963,143.883817 C340.15777,143.917012 339.381706,143.975104 338.58877,144.058091 C337.795835,144.141079 337.028206,144.240664 336.285884,144.356846 C335.543561,144.473029 334.868723,144.614108 334.261368,144.780083 L334.261368,144.780083 L334.261368,177.991701 C334.767497,178.124481 335.374852,178.248963 336.083432,178.365145 C336.792013,178.481328 337.542771,178.580913 338.335706,178.6639 C339.128641,178.746888 339.904705,178.813278 340.663899,178.863071 C341.423092,178.912863 342.089495,178.937759 342.663108,178.937759 Z M344.383946,159.219917 L337.703045,159.219917 L337.703045,147.070539 C338.276657,146.970954 338.993673,146.887967 339.854093,146.821577 C340.714512,146.755187 341.768947,146.721992 343.017398,146.721992 C344.569527,146.721992 345.986688,146.829876 347.268881,147.045643 C348.551074,147.261411 349.656122,147.618257 350.584025,148.116183 C351.511928,148.614108 352.228944,149.253112 352.735073,150.033195 C353.241202,150.813278 353.494266,151.767635 353.494266,152.896266 C353.494266,154.157676 353.258073,155.195021 352.785686,156.008299 C352.313299,156.821577 351.663767,157.46888 350.83709,157.950207 C350.010412,158.431535 349.040332,158.763485 347.926849,158.946058 C346.813365,159.128631 345.632397,159.219917 344.383946,159.219917 L344.383946,159.219917 Z M343.068011,176.049793 C342.022011,176.049793 340.992883,176.008299 339.980625,175.925311 C338.968367,175.842324 338.209174,175.767635 337.703045,175.701245 L337.703045,175.701245 L337.703045,162.107884 L344.991301,162.107884 C346.54343,162.107884 347.952155,162.207469 349.217477,162.406639 C350.482799,162.605809 351.554106,162.962656 352.431396,163.477178 C353.308686,163.991701 353.983524,164.688797 354.455911,165.568465 C354.928298,166.448133 355.164492,167.551867 355.164492,168.879668 C355.164492,170.340249 354.827073,171.53527 354.152234,172.46473 C353.477395,173.394191 352.583234,174.124481 351.469751,174.655602 C350.356267,175.186722 349.065639,175.551867 347.597865,175.751037 C346.130091,175.950207 344.62014,176.049793 343.068011,176.049793 Z M370.753262,187.850622 L370.753262,177.145228 C371.326875,177.576763 372.246342,178.033195 373.511665,178.514523 C374.776987,178.995851 376.270067,179.236515 377.990905,179.236515 C379.880453,179.236515 381.559114,178.904564 383.026888,178.240664 C384.494662,177.576763 385.734678,176.655602 386.746935,175.477178 C387.759193,174.298755 388.526822,172.887967 389.049822,171.244813 C389.572822,169.60166 389.834322,167.80083 389.834322,165.842324 C389.834322,163.751037 389.522209,161.875519 388.897983,160.215768 C388.273758,158.556017 387.396468,157.145228 386.266113,155.983402 C385.135758,154.821577 383.786081,153.93361 382.217082,153.319502 C380.648082,152.705394 378.901937,152.39834 376.978648,152.39834 C374.650455,152.39834 372.727165,152.547718 371.208778,152.846473 C369.690391,153.145228 368.44194,153.460581 367.463424,153.792531 L367.463424,153.792531 L367.463424,187.850622 L370.753262,187.850622 Z M377.687228,176.298755 C376.911164,176.298755 376.168841,176.224066 375.460261,176.074689 C374.75168,175.925311 374.093713,175.73444 373.486358,175.502075 C372.879004,175.26971 372.347568,175.020747 371.892052,174.755187 C371.436536,174.489627 371.056939,174.240664 370.753262,174.008299 L370.753262,174.008299 L370.753262,156.033195 C371.259391,155.86722 372.010149,155.709544 373.005536,155.560166 C374.000923,155.410788 375.308422,155.3361 376.928035,155.3361 C379.762357,155.3361 382.039937,156.240664 383.760775,158.049793 C385.481613,159.858921 386.342032,162.456432 386.342032,165.842324 C386.342032,167.26971 386.190194,168.622407 385.886516,169.900415 C385.582839,171.178423 385.093581,172.290456 384.418743,173.236515 C383.743904,174.182573 382.858178,174.929461 381.761566,175.477178 C380.664953,176.024896 379.306841,176.298755 377.687228,176.298755 Z M408.864769,179.236515 C410.619349,179.236515 412.22209,178.912863 413.672993,178.26556 C415.123896,177.618257 416.380783,176.713693 417.443654,175.551867 C418.506524,174.390041 419.333201,172.979253 419.923685,171.319502 C420.514169,169.659751 420.809411,167.817427 420.809411,165.792531 C420.809411,163.767635 420.514169,161.925311 419.923685,160.26556 C419.333201,158.605809 418.506524,157.186722 417.443654,156.008299 C416.380783,154.829876 415.123896,153.917012 413.672993,153.26971 C412.22209,152.622407 410.619349,152.298755 408.864769,152.298755 C407.110188,152.298755 405.507447,152.622407 404.056544,153.26971 C402.605641,153.917012 401.348754,154.829876 400.285884,156.008299 C399.223013,157.186722 398.396336,158.605809 397.805852,160.26556 C397.215368,161.925311 396.920127,163.767635 396.920127,165.792531 C396.920127,167.817427 397.215368,169.659751 397.805852,171.319502 C398.396336,172.979253 399.223013,174.390041 400.285884,175.551867 C401.348754,176.713693 402.605641,177.618257 404.056544,178.26556 C405.507447,178.912863 407.110188,179.236515 408.864769,179.236515 Z M408.864769,176.298755 C406.26664,176.298755 404.208383,175.352697 402.689996,173.460581 C401.171609,171.568465 400.412416,169.012448 400.412416,165.792531 C400.412416,162.572614 401.171609,160.008299 402.689996,158.099585 C404.208383,156.190871 406.26664,155.236515 408.864769,155.236515 C411.462897,155.236515 413.521155,156.190871 415.039541,158.099585 C416.557928,160.008299 417.317121,162.572614 417.317121,165.792531 C417.317121,169.012448 416.557928,171.568465 415.039541,173.460581 C413.521155,175.352697 411.462897,176.298755 408.864769,176.298755 Z M432.754053,178.639004 L432.754053,156.082988 C433.023988,155.950207 433.589166,155.784232 434.449585,155.585062 C435.310004,155.385892 436.448794,155.286307 437.865955,155.286307 C439.215632,155.286307 440.303809,155.360996 441.130486,155.510373 C441.957163,155.659751 442.50547,155.80083 442.775405,155.93361 L442.775405,155.93361 L443.433373,153.145228 C443.062212,152.979253 442.395809,152.813278 441.434164,152.647303 C440.472519,152.481328 439.451825,152.39834 438.372084,152.39834 C436.246342,152.39834 434.441149,152.589212 432.956504,152.970954 C431.47186,153.352697 430.307763,153.726141 429.464215,154.091286 L429.464215,154.091286 L429.464215,178.639004 L432.754053,178.639004 Z M458.212337,179.186722 C459.595756,179.186722 460.877949,178.995851 462.058917,178.614108 C463.239884,178.232365 464.066561,177.892116 464.538948,177.593361 L464.538948,177.593361 L463.729142,174.904564 C463.256755,175.170124 462.598787,175.460581 461.755239,175.775934 C460.911691,176.091286 459.798207,176.248963 458.414788,176.248963 C457.604982,176.248963 456.86266,176.165975 456.187821,176 C455.512983,175.834025 454.93937,175.502075 454.466983,175.004149 C453.994596,174.506224 453.63187,173.80083 453.378806,172.887967 C453.125741,171.975104 452.999209,170.788382 452.999209,169.327801 L452.999209,169.327801 L452.999209,155.634855 L463.425465,155.634855 L463.425465,152.896266 L452.999209,152.896266 L452.999209,144.73029 L449.709371,145.327801 L449.709371,169.029046 C449.709371,170.755187 449.844339,172.248963 450.114274,173.510373 C450.38421,174.771784 450.848161,175.825726 451.506129,176.672199 C452.164096,177.518672 453.041387,178.149378 454.137999,178.564315 C455.234612,178.979253 456.592724,179.186722 458.212337,179.186722 Z M476.382365,179.236515 C479.45288,179.236515 481.873863,178.639004 483.645314,177.443983 C485.416765,176.248963 486.302491,174.489627 486.302491,172.165975 C486.302491,170.937759 486.083169,169.917012 485.644523,169.103734 C485.205878,168.290456 484.632266,167.593361 483.923685,167.012448 C483.215105,166.431535 482.396863,165.93361 481.46896,165.518672 C480.541057,165.103734 479.570977,164.697095 478.558719,164.298755 C477.580203,163.900415 476.711348,163.53527 475.952155,163.20332 C475.192962,162.871369 474.551865,162.514523 474.028865,162.13278 C473.505865,161.751037 473.109398,161.311203 472.839462,160.813278 C472.569527,160.315353 472.434559,159.717842 472.434559,159.020747 C472.434559,158.323651 472.586398,157.73444 472.890075,157.253112 C473.193752,156.771784 473.598656,156.373444 474.104784,156.058091 C474.610913,155.742739 475.192962,155.510373 475.850929,155.360996 C476.508897,155.211618 477.209042,155.136929 477.951364,155.136929 C479.80717,155.136929 481.215896,155.302905 482.17754,155.634855 C483.139185,155.966805 483.822459,156.232365 484.227363,156.431535 L484.227363,156.431535 L484.986556,153.543568 C484.514169,153.311203 483.695927,153.045643 482.531831,152.746888 C481.367734,152.448133 479.891525,152.298755 478.103203,152.298755 C475.302623,152.298755 473.100962,152.946058 471.498221,154.240664 C469.895479,155.53527 469.094108,157.228216 469.094108,159.319502 C469.094108,160.414938 469.29656,161.344398 469.701463,162.107884 C470.106366,162.871369 470.646237,163.526971 471.321076,164.074689 C471.995914,164.622407 472.771978,165.103734 473.649268,165.518672 C474.526559,165.93361 475.454462,166.340249 476.432977,166.738589 C477.647687,167.236515 478.66838,167.66805 479.495057,168.033195 C480.321735,168.39834 480.988138,168.780083 481.494266,169.178423 C482.000395,169.576763 482.363121,170.024896 482.582444,170.522822 C482.801766,171.020747 482.911427,171.618257 482.911427,172.315353 C482.911427,173.775934 482.295637,174.813278 481.064057,175.427386 C479.832477,176.041494 478.271912,176.348548 476.382365,176.348548 C475.336365,176.348548 474.416897,176.282158 473.623962,176.149378 C472.831027,176.016598 472.147753,175.858921 471.57414,175.676349 C471.000527,175.493776 470.545011,175.327801 470.207592,175.178423 C469.870173,175.029046 469.65085,174.921162 469.549624,174.854772 L469.549624,174.854772 L468.689205,177.792531 C469.094108,177.991701 469.903915,178.282158 471.118624,178.6639 C472.333333,179.045643 474.087914,179.236515 476.382365,179.236515 Z M510.900356,178.639004 L510.900356,162.157676 L525.578094,162.157676 L525.578094,159.219917 L510.900356,159.219917 L510.900356,147.070539 L527.450771,147.070539 L527.450771,144.13278 L507.458679,144.13278 L507.458679,178.639004 L510.900356,178.639004 Z M545.46896,179.236515 C547.22354,179.236515 548.826282,178.912863 550.277185,178.26556 C551.728088,177.618257 552.984974,176.713693 554.047845,175.551867 C555.110716,174.390041 555.937393,172.979253 556.527877,171.319502 C557.11836,169.659751 557.413602,167.817427 557.413602,165.792531 C557.413602,163.767635 557.11836,161.925311 556.527877,160.26556 C555.937393,158.605809 555.110716,157.186722 554.047845,156.008299 C552.984974,154.829876 551.728088,153.917012 550.277185,153.26971 C548.826282,152.622407 547.22354,152.298755 545.46896,152.298755 C543.71438,152.298755 542.111638,152.622407 540.660736,153.26971 C539.209833,153.917012 537.952946,154.829876 536.890075,156.008299 C535.827204,157.186722 535.000527,158.605809 534.410044,160.26556 C533.81956,161.925311 533.524318,163.767635 533.524318,165.792531 C533.524318,167.817427 533.81956,169.659751 534.410044,171.319502 C535.000527,172.979253 535.827204,174.390041 536.890075,175.551867 C537.952946,176.713693 539.209833,177.618257 540.660736,178.26556 C542.111638,178.912863 543.71438,179.236515 545.46896,179.236515 Z M545.46896,176.298755 C542.870832,176.298755 540.812574,175.352697 539.294187,173.460581 C537.775801,171.568465 537.016607,169.012448 537.016607,165.792531 C537.016607,162.572614 537.775801,160.008299 539.294187,158.099585 C540.812574,156.190871 542.870832,155.236515 545.46896,155.236515 C548.067088,155.236515 550.125346,156.190871 551.643733,158.099585 C553.162119,160.008299 553.921313,162.572614 553.921313,165.792531 C553.921313,169.012448 553.162119,171.568465 551.643733,173.460581 C550.125346,175.352697 548.067088,176.298755 545.46896,176.298755 Z M576.140372,179.136929 C578.536049,179.136929 580.560564,178.970954 582.213919,178.639004 C583.867273,178.307054 585.183208,178.008299 586.161724,177.742739 L586.161724,177.742739 L586.161724,152.896266 L582.871886,152.896266 L582.871886,175.502075 C582.568209,175.634855 581.842757,175.784232 580.695532,175.950207 C579.548306,176.116183 578.198629,176.19917 576.646501,176.19917 C575.263082,176.19917 574.09055,176.024896 573.128905,175.676349 C572.16726,175.327801 571.38276,174.763485 570.775405,173.983402 C570.168051,173.20332 569.729406,172.182573 569.45947,170.921162 C569.189535,169.659751 569.054567,168.116183 569.054567,166.290456 L569.054567,166.290456 L569.054567,152.896266 L565.764729,152.896266 L565.764729,167.3361 C565.764729,169.095436 565.941874,170.705394 566.296165,172.165975 C566.650455,173.626556 567.232503,174.871369 568.042309,175.900415 C568.852115,176.929461 569.914986,177.726141 571.230921,178.290456 C572.546856,178.854772 574.18334,179.136929 576.140372,179.136929 Z M599.675366,178.639004 L599.675366,156.033195 C600.012785,155.900415 600.746672,155.751037 601.877027,155.585062 C603.007381,155.419087 604.348623,155.3361 605.900751,155.3361 C607.351654,155.3361 608.557928,155.510373 609.519573,155.858921 C610.481218,156.207469 611.257282,156.780083 611.847766,157.576763 C612.43825,158.373444 612.860024,159.40249 613.113088,160.6639 C613.366153,161.925311 613.492685,163.46888 613.492685,165.294606 L613.492685,165.294606 L613.492685,178.639004 L616.782523,178.639004 L616.782523,164.248963 C616.782523,162.489627 616.613813,160.879668 616.276394,159.419087 C615.938975,157.958506 615.373797,156.705394 614.580862,155.659751 C613.787927,154.614108 612.725056,153.809129 611.39225,153.244813 C610.059444,152.680498 608.397654,152.39834 606.40688,152.39834 C604.011203,152.39834 601.986688,152.564315 600.333333,152.896266 C598.679979,153.228216 597.364044,153.526971 596.385528,153.792531 L596.385528,153.792531 L596.385528,178.639004 L599.675366,178.639004 Z M637.989324,179.236515 C640.317517,179.236515 642.240807,179.087137 643.759193,178.788382 C645.27758,178.489627 646.526031,178.174274 647.504547,177.842324 L647.504547,177.842324 L647.504547,140 L644.214709,140.59751 L644.214709,154.439834 C643.641097,154.008299 642.721629,153.551867 641.456307,153.070539 C640.190985,152.589212 638.697904,152.348548 636.977066,152.348548 C635.087518,152.348548 633.408857,152.680498 631.941083,153.344398 C630.47331,154.008299 629.233294,154.937759 628.221036,156.13278 C627.208778,157.327801 626.441149,158.746888 625.918149,160.390041 C625.39515,162.033195 625.13365,163.834025 625.13365,165.792531 C625.13365,167.883817 625.445763,169.759336 626.069988,171.419087 C626.694214,173.078838 627.571504,174.489627 628.701858,175.651452 C629.832213,176.813278 631.18189,177.701245 632.75089,178.315353 C634.319889,178.929461 636.066034,179.236515 637.989324,179.236515 Z M638.039937,176.298755 C635.205615,176.298755 632.928035,175.394191 631.207197,173.585062 C629.486358,171.775934 628.625939,169.178423 628.625939,165.792531 C628.625939,164.365145 628.777778,163.012448 629.081455,161.73444 C629.385132,160.456432 629.87439,159.344398 630.549229,158.39834 C631.224067,157.452282 632.109793,156.697095 633.206406,156.13278 C634.303018,155.568465 635.661131,155.286307 637.280743,155.286307 C638.056808,155.286307 638.79913,155.360996 639.507711,155.510373 C640.216291,155.659751 640.874259,155.850622 641.481613,156.082988 C642.088968,156.315353 642.620403,156.564315 643.075919,156.829876 C643.531435,157.095436 643.911032,157.344398 644.214709,157.576763 L644.214709,157.576763 L644.214709,175.60166 C643.70858,175.767635 642.957823,175.925311 641.962436,176.074689 C640.967049,176.224066 639.659549,176.298755 638.039937,176.298755 Z M665.42151,179.186722 C666.501252,179.186722 667.555687,179.145228 668.584816,179.062241 C669.613945,178.979253 670.550283,178.871369 671.393832,178.738589 C672.23738,178.605809 672.979702,178.481328 673.620799,178.365145 C674.261895,178.248963 674.751153,178.141079 675.088573,178.041494 L675.088573,178.041494 L675.088573,161.809129 C675.088573,160.448133 674.919863,159.186722 674.582444,158.024896 C674.245024,156.863071 673.705154,155.858921 672.962831,155.012448 C672.220509,154.165975 671.250428,153.502075 670.05259,153.020747 C668.854752,152.539419 667.395413,152.298755 665.674575,152.298755 C663.987479,152.298755 662.545011,152.414938 661.347173,152.647303 C660.149334,152.879668 659.263609,153.128631 658.689996,153.394191 L658.689996,153.394191 L659.145512,156.232365 C659.584157,156.06639 660.275867,155.850622 661.220641,155.585062 C662.165415,155.319502 663.599446,155.186722 665.522736,155.186722 C666.872413,155.186722 667.96059,155.394191 668.787268,155.809129 C669.613945,156.224066 670.255041,156.771784 670.710558,157.452282 C671.166074,158.13278 671.461315,158.896266 671.596283,159.742739 C671.731251,160.589212 671.798735,161.460581 671.798735,162.356846 L671.798735,162.356846 L671.798735,163.950207 C671.663767,163.883817 671.419138,163.809129 671.064848,163.726141 C670.710558,163.643154 670.288783,163.560166 669.799525,163.477178 C669.310268,163.394191 668.804139,163.327801 668.281139,163.278008 C667.758139,163.228216 667.260445,163.20332 666.788059,163.20332 C665.202188,163.20332 663.734414,163.352697 662.384737,163.651452 C661.03506,163.950207 659.870963,164.423237 658.892448,165.070539 C657.913932,165.717842 657.154738,166.539419 656.614868,167.53527 C656.074997,168.53112 655.805061,169.726141 655.805061,171.120332 C655.805061,172.580913 656.04969,173.817427 656.538948,174.829876 C657.028206,175.842324 657.703045,176.672199 658.563464,177.319502 C659.423883,177.966805 660.436141,178.439834 661.600237,178.738589 C662.764334,179.037344 664.038091,179.186722 665.42151,179.186722 Z M665.978252,176.298755 C664.932253,176.298755 663.995914,176.207469 663.169237,176.024896 C662.34256,175.842324 661.633979,175.551867 661.043495,175.153527 C660.453012,174.755187 659.997496,174.224066 659.676947,173.560166 C659.356399,172.896266 659.196125,172.082988 659.196125,171.120332 C659.196125,170.024896 659.432318,169.145228 659.904705,168.481328 C660.377092,167.817427 660.984447,167.294606 661.726769,166.912863 C662.469092,166.53112 663.278898,166.282158 664.156188,166.165975 C665.033478,166.049793 665.877026,165.991701 666.686833,165.991701 C668.103994,165.991701 669.217477,166.082988 670.027283,166.26556 C670.83709,166.448133 671.427573,166.622407 671.798735,166.788382 L671.798735,166.788382 L671.798735,175.850622 C671.123896,175.983402 670.305654,176.091286 669.344009,176.174274 C668.382365,176.257261 667.260445,176.298755 665.978252,176.298755 Z M693.309213,179.186722 C694.692632,179.186722 695.974825,178.995851 697.155793,178.614108 C698.33676,178.232365 699.163437,177.892116 699.635824,177.593361 L699.635824,177.593361 L698.826018,174.904564 C698.353631,175.170124 697.695664,175.460581 696.852115,175.775934 C696.008567,176.091286 694.895084,176.248963 693.511665,176.248963 C692.701858,176.248963 691.959536,176.165975 691.284698,176 C690.609859,175.834025 690.036246,175.502075 689.563859,175.004149 C689.091472,174.506224 688.728747,173.80083 688.475682,172.887967 C688.222618,171.975104 688.096085,170.788382 688.096085,169.327801 L688.096085,169.327801 L688.096085,155.634855 L698.522341,155.634855 L698.522341,152.896266 L688.096085,152.896266 L688.096085,144.73029 L684.806248,145.327801 L684.806248,169.029046 C684.806248,170.755187 684.941215,172.248963 685.211151,173.510373 C685.481086,174.771784 685.945038,175.825726 686.603005,176.672199 C687.260973,177.518672 688.138263,178.149378 689.234875,178.564315 C690.331488,178.979253 691.689601,179.186722 693.309213,179.186722 Z M707.733887,147.618257 C708.408725,147.618257 708.982338,147.394191 709.454725,146.946058 C709.927112,146.497925 710.163306,145.892116 710.163306,145.128631 C710.163306,144.365145 709.927112,143.759336 709.454725,143.311203 C708.982338,142.863071 708.408725,142.639004 707.733887,142.639004 C707.059048,142.639004 706.485436,142.863071 706.013049,143.311203 C705.540662,143.759336 705.304468,144.365145 705.304468,145.128631 C705.304468,145.892116 705.540662,146.497925 706.013049,146.946058 C706.485436,147.394191 707.059048,147.618257 707.733887,147.618257 Z M709.404112,178.639004 L709.404112,152.896266 L706.114274,152.896266 L706.114274,178.639004 L709.404112,178.639004 Z M730.003559,179.236515 C731.758139,179.236515 733.36088,178.912863 734.811783,178.26556 C736.262686,177.618257 737.519573,176.713693 738.582444,175.551867 C739.645314,174.390041 740.471992,172.979253 741.062475,171.319502 C741.652959,169.659751 741.948201,167.817427 741.948201,165.792531 C741.948201,163.767635 741.652959,161.925311 741.062475,160.26556 C740.471992,158.605809 739.645314,157.186722 738.582444,156.008299 C737.519573,154.829876 736.262686,153.917012 734.811783,153.26971 C733.36088,152.622407 731.758139,152.298755 730.003559,152.298755 C728.248979,152.298755 726.646237,152.622407 725.195334,153.26971 C723.744431,153.917012 722.487545,154.829876 721.424674,156.008299 C720.361803,157.186722 719.535126,158.605809 718.944642,160.26556 C718.354159,161.925311 718.058917,163.767635 718.058917,165.792531 C718.058917,167.817427 718.354159,169.659751 718.944642,171.319502 C719.535126,172.979253 720.361803,174.390041 721.424674,175.551867 C722.487545,176.713693 723.744431,177.618257 725.195334,178.26556 C726.646237,178.912863 728.248979,179.236515 730.003559,179.236515 Z M730.003559,176.298755 C727.40543,176.298755 725.347173,175.352697 723.828786,173.460581 C722.310399,171.568465 721.551206,169.012448 721.551206,165.792531 C721.551206,162.572614 722.310399,160.008299 723.828786,158.099585 C725.347173,156.190871 727.40543,155.236515 730.003559,155.236515 C732.601687,155.236515 734.659945,156.190871 736.178331,158.099585 C737.696718,160.008299 738.455911,162.572614 738.455911,165.792531 C738.455911,169.012448 737.696718,171.568465 736.178331,173.460581 C734.659945,175.352697 732.601687,176.298755 730.003559,176.298755 Z M753.892843,178.639004 L753.892843,156.033195 C754.230262,155.900415 754.964149,155.751037 756.094504,155.585062 C757.224858,155.419087 758.5661,155.3361 760.118229,155.3361 C761.569131,155.3361 762.775405,155.510373 763.73705,155.858921 C764.698695,156.207469 765.474759,156.780083 766.065243,157.576763 C766.655727,158.373444 767.077501,159.40249 767.330565,160.6639 C767.58363,161.925311 767.710162,163.46888 767.710162,165.294606 L767.710162,165.294606 L767.710162,178.639004 L771,178.639004 L771,164.248963 C771,162.489627 770.83129,160.879668 770.493871,159.419087 C770.156452,157.958506 769.591275,156.705394 768.798339,155.659751 C768.005404,154.614108 766.942533,153.809129 765.609727,153.244813 C764.276921,152.680498 762.615131,152.39834 760.624357,152.39834 C758.228681,152.39834 756.204165,152.564315 754.550811,152.896266 C752.897456,153.228216 751.581521,153.526971 750.603005,153.792531 L750.603005,153.792531 L750.603005,178.639004 L753.892843,178.639004 Z" id="PoweredbyUBportsFoundation" fill="#FFFFFF" fill-rule="nonzero"></path>
        </g>
        <circle id="Oval" stroke="#E95420" opacity="0.851818266" cx="723" cy="989" r="179"></circle>
        <circle id="Oval" stroke="#E95420" fill="#B4441C" opacity="0.851818266" cx="723" cy="989" r="32"></circle>
        <circle id="Oval" stroke="#E95420" opacity="0.851818266" cx="723" cy="989" r="224"></circle>
        <path d="M872.158163,979.064516 L906.888776,1063.08729 L939.67551,979.064516 L970,979.064516 L899.761224,1151 L870.214286,1151 L892.633673,1097.31879 L841.444898,979.064516 L872.158163,979.064516 Z M633.968367,976.471221 C650.296939,976.471221 665.070408,983.084124 674.012245,993.975965 L674.012245,993.975965 L674.012245,979.064516 L702.781633,979.064516 L702.781633,1103.93169 L674.012245,1103.93169 L674.012245,1087.46426 C664.811224,1099.13409 649.908163,1106.39532 633.45,1106.39532 L633.45,1106.39532 L632.547685,1106.38809 C602.760618,1105.91131 572.024761,1081.87052 572.152661,1041.56293 C572.152661,1000.19987 602.347959,976.471221 633.968367,976.471221 Z M439.45102,976.471221 C455.779592,976.471221 470.553061,983.084124 479.494898,993.975965 L479.494898,993.975965 L479.494898,979.064516 L508.264286,979.064516 L508.264286,1103.93169 L479.494898,1103.93169 L479.494898,1087.46426 C470.293878,1099.13409 455.390816,1106.39532 438.932653,1106.39532 L438.932653,1106.39532 L438.030338,1106.38809 C408.243271,1105.91131 377.507414,1081.87052 377.635314,1041.56293 C377.635314,1000.19987 407.830612,976.471221 439.45102,976.471221 Z M287.569388,946.129665 C319.708163,946.129665 345.108163,962.59709 358.326531,986.066414 L358.326531,986.066414 L332.667347,1001.36686 C323.077551,983.602783 308.17449,974.26692 287.69898,974.26692 C258.670408,974.26692 236.769388,997.736243 236.769388,1026.13283 C236.769388,1054.91841 258.540816,1077.99873 288.865306,1077.99873 C312.062245,1077.99873 328.261224,1064.77293 333.833673,1044.2859 L333.833673,1044.2859 L284.070408,1044.2859 L284.070408,1016.53763 L365.065306,1016.53763 L365.065306,1028.0778 C365.065306,1070.08918 335.388776,1106.13599 288.865306,1106.13599 L288.865306,1106.13599 L287.408502,1106.12497 C239.499214,1105.39886 208,1068.87941 208,1026.13283 C208,981.787476 241.434694,946.129665 287.569388,946.129665 Z M1066.00113,946 C1090.78935,946 1105.50736,955.610327 1118.03058,968.597255 L1094.2752,986.778954 C1087.69083,976.779019 1078.39524,971.843986 1066.25934,971.843986 C1052.05776,971.843986 1044.56965,979.506274 1044.56965,989.506208 C1044.56965,1002.10353 1059.15855,1005.73987 1076.20045,1011.45412 C1097.24462,1018.33719 1121,1027.68778 1121,1057.55771 C1121,1082.103 1101.5051,1106 1067.5504,1106 C1039.66365,1106.12882 1021.20159,1094.18085 1007,1078.20693 L1033.33749,1057.29797 C1041.21291,1070.93425 1053.0906,1078.46666 1067.29219,1078.46666 C1082.52661,1078.46666 1090.78935,1068.46673 1090.78935,1057.55771 C1090.78935,1045.35 1076.75783,1040.8307 1061.45548,1036.01764 L1060.47713,1035.70995 C1059.82391,1035.50445 1059.16888,1035.29812 1058.51302,1035.09033 C1058.09214,1034.95266 1057.67053,1034.81464 1057.2484,1034.67608 L1055.98063,1034.25865 C1035.67729,1027.54876 1014.61721,1019.22549 1014.61721,990.675032 C1014.61721,965.74013 1036.30691,946 1066.00113,946 Z M1232,948 L1232,973.22 L1178.07407,1104 L1147.35185,1104 L1201.7963,975.82 L1134,975.82 L1134,948 L1232,948 Z M747.620408,978.934851 L776.00102,1018.35294 L804.122449,978.934851 L838.205102,978.934851 L793.366327,1040.39595 L841.185714,1103.80202 L805.936735,1103.80202 L775.482653,1062.17963 L745.806122,1103.80202 L710.686735,1103.80202 L757.59898,1040.13662 L712.371429,978.934851 L747.620408,978.934851 Z M557.120408,946 L557.120408,1103.80202 L528.091837,1103.80202 L528.091837,946 L557.120408,946 Z M443.597959,1002.6635 C422.344898,1002.6635 405.886735,1019.51992 405.886735,1041.04428 C405.886735,1062.82796 422.215306,1079.94371 443.597959,1079.94371 L443.597959,1079.94371 L444.237795,1079.93855 C465.297814,1079.59836 480.920408,1062.48175 480.920408,1041.04428 C480.920408,1019.90892 464.980612,1002.6635 443.597959,1002.6635 Z M638.115306,1002.6635 C616.862245,1002.6635 600.404082,1019.51992 600.404082,1041.04428 C600.404082,1062.82796 616.732653,1079.94371 638.115306,1079.94371 L638.115306,1079.94371 L638.755142,1079.93855 C659.815161,1079.59836 675.437755,1062.48175 675.437755,1041.04428 C675.437755,1019.90892 659.497959,1002.6635 638.115306,1002.6635 Z M478.05345,827 C487.4433,827 500.434736,829.34358 500.434736,843.925859 L500.434736,843.925859 L500.434736,848.61302 L483.841714,848.61302 L483.841714,844.446655 C483.841714,840.801085 481.526408,838.327306 477.667566,838.327306 C473.551468,838.327306 472.136559,840.670886 471.622046,842.884268 C471.493418,843.665461 471.36479,845.097649 471.750675,846.399638 C473.551468,854.341772 498.762571,858.508137 501.592388,872.56962 C501.849644,874.001808 502.364157,877.777577 501.592388,883.636528 C500.048851,894.833635 490.144489,899 478.182078,899 C465.705155,899 454,894.443038 454,879.470163 L454,879.470163 L454,874.262206 L471.750675,874.262206 L471.750675,880.772152 C471.750675,884.54792 474.323236,886.891501 478.439334,886.891501 C482.812689,886.891501 484.356226,884.678119 484.870738,882.464738 C485.127994,881.292948 485.385251,879.209765 484.74211,877.517179 C481.269152,868.793852 457.730214,864.757685 455.029025,850.9566 C454.385884,847.44123 454.385884,844.837251 454.900397,841.842676 C456.572562,830.905967 466.219667,827 478.05345,827 Z M257.49273,827 C267.133485,827 280.422094,829.322581 280.291813,843.903226 L280.291813,848.548387 L263.355351,848.548387 L263.355351,844.419355 C263.355351,840.806452 261.140583,838.354839 257.101888,838.354839 C252.802633,838.354839 251.369547,840.677419 250.848425,842.870968 C250.718145,843.645161 250.718145,844.935484 250.978706,846.354839 C252.802633,854.354839 278.598167,858.483871 281.464338,872.548387 C281.855179,873.967742 282.376301,877.83871 281.594618,883.645161 C280.031252,894.870968 269.869375,899 257.62301,899 C244.855523,899 233,894.483871 233,879.516129 L233,879.516129 L233,874.354839 L251.239267,874.354839 L251.239267,880.935484 C251.239267,884.548387 253.714596,887 258.013852,887 C262.573668,887 264.137034,884.677419 264.658156,882.483871 C264.918717,881.193548 265.179278,879.129032 264.527876,877.451613 C261.010303,868.677419 236.908414,864.677419 233.911963,851 C233.260561,847.645161 233.260561,844.935484 233.781683,841.967742 C235.60561,831 245.376645,827 257.49273,827 Z M534.95082,829 L534.95082,878.561567 C534.95082,879.462687 534.95082,880.363806 535.079235,881.136194 C535.464481,882.809701 536.877049,885.899254 541.5,885.899254 C546.122951,885.899254 547.535519,882.68097 547.920765,881.007463 C548.04918,880.235075 548.04918,879.333955 548.04918,878.432836 L548.04918,829 L565,829 L565,877.016791 C565,878.304104 564.871585,880.75 564.871585,881.393657 C563.715847,893.880597 553.827869,898 541.5,898 C529.172131,898 519.284153,894.009328 518.128415,881.393657 C518.128415,881.05489 518.092843,880.181229 518.059143,879.260646 L518.039448,878.706571 C518.01743,878.062689 518,877.443637 518,877.016791 L518,829 L534.95082,829 Z M682,827 C693.935135,827 704.443243,831.038532 705.740541,843.805505 C705.991053,845.818032 705.878754,848.073451 705.870712,848.226604 L705.87027,850.449541 L688.875676,850.449541 L688.875452,846.630821 C688.873322,846.378514 688.850965,845.009 688.616216,844.066055 C688.356757,842.633028 687.059459,839.115596 681.87027,839.115596 C676.940541,839.115596 675.513514,842.372477 675.124324,844.066055 C674.864865,844.977982 674.864865,846.150459 674.864865,847.192661 L674.864865,878.198165 C674.864865,879.110092 674.864865,880.022018 674.994595,880.80367 C675.383784,882.757798 677.07027,885.884404 682,885.884404 C686.92973,885.884404 688.616216,882.757798 688.875676,880.933945 C688.986873,880.263958 689.002758,879.498259 689.005027,878.718886 L689.005405,868.427523 L682.12973,868.427523 L682.12973,858.526606 L706,858.526606 L706,876.765138 C706,878.06789 706,878.979817 705.740541,881.194495 C704.572973,893.570642 693.935135,898 682,898 C670.064865,898 659.297297,893.570642 658.259459,881.194495 C658.12973,878.979817 658,877.937615 658,876.765138 L658,848.234862 C658,847.062385 658.12973,844.847706 658.259459,843.805505 C659.686486,831.038532 669.935135,827 682,827 Z M335.54717,829 L348,897 L329.839623,897 L320.889151,835.264875 L320.5,835.264875 L311.290094,897 L293,897 L305.582547,829 L335.54717,829 Z M391.094828,829 L399.37069,880.946257 L399.62931,880.946257 L408.034483,829 L435.448276,829 L437,897 L420.060345,897 L419.672414,835.786948 L419.284483,835.786948 L408.034483,897 L390.965517,897 L379.715517,835.786948 L379.327586,835.786948 L378.939655,897 L362,897 L363.551724,829 L391.094828,829 Z M608.246575,829 L623.732877,882.209709 L624.123288,882.209709 L623.212329,829 L640,829 L640,896 L615.924658,896 L599.136986,840.968932 L598.746575,840.968932 L599.657534,896 L583,896 L583,829 L608.246575,829 Z" id="Combined-Shape" fill="#FFFFFF" fill-rule="nonzero"></path>
    </g>
</svg>