<?xml version="1.0" encoding="UTF-8"?>
<svg width="174px" height="44px" viewBox="0 0 174 44" version="1.1" xmlns="http://www.w3.org/2000/svg" xmlns:xlink="http://www.w3.org/1999/xlink">
    <title>ubports</title>
    <defs>
        <linearGradient x1="42.8009588%" y1="13.8812896%" x2="64.6461565%" y2="149.145372%" id="linearGradient-1">
            <stop stop-color="#4D4D4D" offset="0%"></stop>
            <stop stop-color="#363636" stop-opacity="0.00419360454" offset="99.5806395%"></stop>
            <stop stop-color="#FFFFFF" stop-opacity="0" offset="100%"></stop>
        </linearGradient>
        <linearGradient x1="27.5186278%" y1="13.8812896%" x2="95.7374376%" y2="149.145372%" id="linearGradient-2">
            <stop stop-color="#4D4D4D" offset="0%"></stop>
            <stop stop-color="#363636" stop-opacity="0.00419360454" offset="99.5806395%"></stop>
            <stop stop-color="#FFFFFF" stop-opacity="0" offset="100%"></stop>
        </linearGradient>
    </defs>
    <g id="Devices" stroke="none" stroke-width="1" fill="none" fill-rule="evenodd">
        <g id="Ports" transform="translate(-482.000000, -4801.000000)">
            <g id="ubports" transform="translate(482.000000, 4801.000000)">
                <path d="M112.272404,13.6644409 C113.525462,13.6644409 114.653214,13.8628466 115.655661,14.258818 C116.658107,14.6552094 117.514223,15.2183034 118.22443,15.9481002 C118.934216,16.6783169 119.482324,17.5697776 119.868964,18.6226921 C120.255183,19.6760265 120.448608,20.8595318 120.448608,22.173418 C120.448608,23.4041628 120.28672,24.5406386 119.963153,25.5832654 C119.639166,26.6263122 119.164223,27.5228117 118.537694,28.2736038 C117.911165,29.0243959 117.143562,29.6084852 116.235305,30.025242 C115.326628,30.4424187 114.287599,30.6511121 113.118218,30.6511121 C112.178425,30.6511121 111.348168,30.52598 110.62787,30.275716 C109.907152,30.025242 109.369346,29.7858956 109.014453,29.5562069 L109.014453,36.0630717 L106.101093,36.0630717 L106.101093,14.509082 C106.790275,14.3423793 107.651647,14.1601401 108.68542,13.9617344 C109.719193,13.7635388 110.914644,13.6644409 112.272404,13.6644409 Z M129.710452,13.6017909 C130.81697,13.6017909 131.840651,13.8052354 132.780445,14.2119145 C133.720028,14.6185935 134.52947,15.1972241 135.20814,15.9480162 C135.886599,16.6988083 136.414103,17.6011865 136.790231,18.6541011 C137.166148,19.7074355 137.354107,20.8701555 137.354107,22.142051 C137.354107,23.4353618 137.166148,24.6033306 136.790231,25.6457475 C136.414103,26.6887942 135.886599,27.5852937 135.20814,28.3360858 C134.52947,29.0868779 133.720028,29.6657184 132.780445,30.0721875 C131.840651,30.4790765 130.81697,30.6823111 129.710452,30.6823111 C128.603304,30.6823111 127.580254,30.4790765 126.64046,30.0721875 C125.700456,29.6657184 124.891014,29.0868779 124.212555,28.3360858 C123.533675,27.5852937 123.006381,26.6887942 122.630464,25.6457475 C122.254757,24.6033306 122.066798,23.4353618 122.066798,22.142051 C122.066798,20.8701555 122.254757,19.7074355 122.630464,18.6541011 C123.006381,17.6011865 123.533675,16.6988083 124.212555,15.9480162 C124.891014,15.1972241 125.700456,14.6185935 126.64046,14.2119145 C127.580254,13.8052354 128.603304,13.6017909 129.710452,13.6017909 Z M92.1403436,6 L92.1403436,14.728168 C92.4952365,14.4988993 93.0332526,14.258713 93.753761,14.008449 C94.4742694,13.758185 95.3043153,13.6332629 96.2441089,13.6332629 C97.4134896,13.6332629 98.4525186,13.8419562 99.361196,14.258713 C100.269663,14.6763096 101.037056,15.2599791 101.663585,16.0105613 C102.290114,16.7613533 102.765057,17.6584827 103.089044,18.7008996 C103.41261,19.7439463 103.574499,20.8907099 103.574499,22.14203 C103.574499,23.4559162 103.381074,24.6398414 102.994854,25.6927559 C102.608425,26.7460904 102.060107,27.637761 101.350321,28.3673478 C100.640114,29.0977744 99.783998,29.6608685 98.7815515,30.05663 C97.779105,30.4526015 96.6513527,30.6510071 95.3982946,30.6510071 C94.0405347,30.6510071 92.8398275,30.5571581 91.7957526,30.36967 C90.7512572,30.181762 89.895141,29.994274 89.2269835,29.806366 L89.2269835,6.50052806 L92.1403436,6 Z M167.938227,13.601749 C168.397191,13.601749 168.856997,13.628203 169.316381,13.6798515 C169.775766,13.7323398 170.204034,13.7949058 170.600976,13.8677595 C170.997287,13.9410331 171.347555,14.0193456 171.650307,14.102277 C171.952849,14.1860483 172.187902,14.258692 172.355047,14.321258 L171.822708,16.8238984 C171.509443,16.6571956 171.018522,16.4852441 170.350154,16.3078338 C169.681786,16.1308434 168.877811,16.0418233 167.938227,16.0418233 C167.12374,16.0418233 166.413533,16.2036971 165.808029,16.5268148 C165.202104,16.8503524 164.899562,17.3557094 164.899562,18.0441455 C164.899562,18.3989661 164.96705,18.7115862 165.103078,18.9824256 C165.238686,19.253685 165.447669,19.4987002 165.729607,19.7176812 C166.011756,19.9366622 166.361182,20.1398968 166.779149,20.3278047 C167.196484,20.5152928 167.697918,20.7136984 168.282608,20.9221818 C169.055047,21.2142265 169.744439,21.5006025 170.350154,21.7823595 C170.955659,22.0639065 171.47265,22.392483 171.900919,22.7678791 C172.328766,23.1432751 172.657799,23.5967737 172.887807,24.1285847 C173.117184,24.6603958 173.232188,25.31251 173.232188,26.0838775 C173.232188,27.5852517 172.673357,28.7223574 171.556538,29.4937249 C170.438877,30.2655123 168.846695,30.6509861 166.779149,30.6509861 C165.338132,30.6509861 164.21038,30.530683 163.395892,30.2913365 C162.581404,30.0517801 162.02762,29.8691209 161.73559,29.743779 L162.26814,27.2411387 C162.602008,27.3662707 163.134558,27.5541787 163.865789,27.8042327 C164.596599,28.0544968 165.567509,28.1796288 166.779149,28.1796288 C167.969554,28.1796288 168.85153,28.0234237 169.426129,27.7105937 C170.000307,27.3975537 170.287501,26.8972356 170.287501,26.2087995 C170.287501,25.499998 170.005773,24.9371139 169.441897,24.5195173 C168.877811,24.1025506 167.948529,23.6335155 166.653633,23.1117821 C166.027314,22.8615181 165.426645,22.6064252 164.852467,22.3454535 C164.278078,22.0849018 163.782111,21.7775305 163.364565,21.4224999 C162.946599,21.0683091 162.61273,20.6406348 162.362119,20.1398968 C162.111507,19.6393687 161.986201,19.0246262 161.986201,18.2941995 C161.986201,16.8551814 162.518541,15.7134567 163.583851,14.8688156 C164.64895,14.0241745 166.100269,13.601749 167.938227,13.601749 Z M75.5481934,14.008428 L75.5481934,22.5174051 C75.5481934,24.4991519 75.8614579,25.9171748 76.487987,26.7718936 C77.114516,27.6272423 78.168893,28.0544968 79.6519587,28.0544968 C79.9652232,28.0544968 80.2887897,28.0442091 80.6230787,28.0234237 C80.9569472,28.0026384 81.2702118,27.9763942 81.5628723,27.9451112 C81.8551124,27.9138282 82.1214923,27.8825452 82.361802,27.8510523 C82.6014809,27.8199792 82.7738815,27.7836573 82.8785833,27.7416667 L82.8785833,14.008428 L85.7919434,14.008428 L85.7919434,29.806345 C85.1233654,29.9736776 84.2413891,30.150668 83.1449633,30.338156 C82.0483272,30.526064 80.779711,30.6197031 79.3386942,30.6197031 C78.0856361,30.6197031 77.0308387,30.4370439 76.1747225,30.0723555 C75.3181858,29.7076671 74.6290038,29.1913925 74.1071766,28.5239518 C73.5849289,27.856721 73.2090115,27.0691871 72.9794243,26.16198 C72.7494167,25.2547729 72.6348333,24.2486779 72.6348333,23.1432751 L72.6348333,14.008428 L75.5481934,14.008428 Z M153.121047,8.97205333 L153.121047,14.008407 L159.292568,14.008407 L159.292568,16.4484813 L153.121047,16.4484813 L153.121047,23.9566122 C153.121047,24.7699703 153.1837,25.4424499 153.309216,25.974261 C153.434311,26.5060721 153.62227,26.9236687 153.872882,27.2255811 C154.123703,27.5283334 154.436758,27.7416457 154.812675,27.8669877 C155.188593,27.9921197 155.627163,28.0544758 156.128386,28.0544758 C157.005737,28.0544758 157.710477,27.9560078 158.242817,27.7573922 C158.775576,27.5594065 159.146028,27.4187379 159.355011,27.3351766 L159.918887,29.743758 C159.626226,29.8900953 159.114701,30.0723345 158.383891,30.2913155 C157.65266,30.5102966 156.817568,30.6196821 155.877774,30.6196821 C154.770626,30.6196821 153.857323,30.4790135 153.136605,30.1974665 C152.416096,29.9159195 151.836872,29.4937039 151.398302,28.9303999 C150.959521,28.3675158 150.651303,27.6742508 150.474067,26.8501851 C150.2962,26.0265393 150.207897,25.0723027 150.207897,23.9876853 L150.207897,9.4725814 L153.121047,8.97205333 Z M145.895527,13.6643779 C146.145928,13.6643779 146.433122,13.6799145 146.757109,13.7114074 C147.080676,13.7426904 147.399197,13.784681 147.712671,13.8363295 C148.025936,13.8886078 148.312499,13.9408861 148.574044,13.9927445 C148.834747,14.0450228 149.028172,14.0920523 149.153478,14.133623 L148.652044,16.6675463 C148.422247,16.5844049 148.041494,16.4853071 147.508944,16.3704628 C146.976395,16.2560384 146.292258,16.1983013 145.456956,16.1983013 C144.913684,16.1983013 144.376089,16.2560384 143.843539,16.3704628 C143.310989,16.4853071 142.961142,16.5636196 142.794208,16.6049803 L142.794208,30.275653 L139.881058,30.275653 L139.881058,14.6967171 C140.57003,14.446663 141.426146,14.2117255 142.449617,13.9927445 C143.472878,13.7737635 144.621234,13.6643779 145.895527,13.6643779 Z M129.710452,16.1669973 C128.289829,16.1669973 127.167543,16.7042671 126.342754,17.7781769 C125.517543,18.8525067 125.105254,20.3072713 125.105254,22.142051 C125.105254,23.9774605 125.517543,25.4322252 126.342754,26.506135 C127.167543,27.5804648 128.289829,28.1171048 129.710452,28.1171048 C131.130445,28.1171048 132.252731,27.5804648 133.077941,26.506135 C133.902731,25.4322252 134.315441,23.9774605 134.315441,22.142051 C134.315441,20.3072713 133.902731,18.8525067 133.077941,17.7781769 C132.252731,16.7042671 131.130445,16.1669973 129.710452,16.1669973 Z M95.8681914,16.1984692 C95.0743076,16.1984692 94.3434972,16.3343088 93.6753397,16.6049383 C93.0067618,16.8761977 92.4952365,17.1579547 92.1403436,17.4495794 L92.1403436,27.7416877 C92.4325836,27.825249 92.8452939,27.9035615 93.3778436,27.9764152 C93.910183,28.0496888 94.5730844,28.0860107 95.3669682,28.0860107 C96.9332908,28.0860107 98.1863489,27.5697362 99.1261425,26.537397 C100.065936,25.5050579 100.535833,24.0400056 100.535833,22.14203 C100.535833,21.3080965 100.452155,20.5262314 100.285221,19.7958047 C100.117866,19.0662179 99.8466509,18.435099 99.4707335,17.903288 C99.094816,17.3712669 98.6093611,16.9545101 98.0139483,16.6519678 C97.4187457,16.3498454 96.7032832,16.1984692 95.8681914,16.1984692 Z M112.241077,16.2609303 C111.363937,16.2609303 110.67959,16.2922133 110.18909,16.3547793 C109.698168,16.4173453 109.306693,16.4906189 109.014453,16.5737603 L109.014453,26.8345856 C109.369346,27.1268402 109.880871,27.4083873 110.549449,27.6792267 C111.217606,27.950486 111.948417,28.0859057 112.742301,28.0859057 C113.577392,28.0859057 114.292855,27.9347395 114.888058,27.6321972 C115.48326,27.3302847 115.968925,26.9126881 116.344843,26.380877 C116.72076,25.849066 116.991976,25.2234059 117.15933,24.5041068 C117.326265,23.7843877 117.409942,23.0077714 117.409942,22.173418 C117.409942,20.2758624 116.940045,18.8158489 116.000252,17.7937975 C115.060458,16.7721659 113.8074,16.2609303 112.241077,16.2609303 Z" id="Combined-Shape" fill="#212121"></path>
                <path d="M57.3734695,34.1488627 C59.4192534,34.1488627 61.0777356,35.8177018 61.0777356,37.8767236 C61.0777356,39.9355384 59.4192534,41.6045845 57.3734695,41.6045845 C55.3276857,41.6045845 53.6692034,39.9355384 53.6692034,37.8767236 C53.6692034,35.8177018 55.3276857,34.1488627 57.3734695,34.1488627 Z M48.2840237,6.39711286 C49.5531464,6.39711286 50.7850207,6.55389013 51.96627,6.84176383 C52.1169101,6.90410195 52.5883809,7.14247794 52.7299662,7.7277521 C52.7425195,7.78035636 52.7604235,7.82364097 52.7805911,7.86278351 C53.4245161,9.85449675 55.2850866,11.2986286 57.47616,11.2986286 C57.9249936,11.2986286 58.3585985,11.2342195 58.7720358,11.1205197 C58.9844137,11.1008449 59.3906482,11.1165848 59.7456404,11.4309677 C62.1338631,14.0193458 63.6657829,17.4170839 63.8921547,21.1704185 L63.8921547,21.1704185 L59.202348,21.1704185 C58.8267766,21.1126367 58.5261137,20.8330471 58.4351534,20.4673025 C58.4283622,20.426089 58.4219826,20.3848754 58.4147799,20.3436618 C58.4108698,20.3086613 58.4042845,20.2744893 58.4042845,20.2384533 L58.4042845,20.2384533 L58.3974933,20.2386604 C57.5090868,15.4326193 53.3133881,11.7818008 48.2840237,11.7818008 M48.2840237,32.4921392 C53.4710252,32.4921392 57.7683855,28.6079152 58.4680802,23.5788238 C58.5781792,23.1787 58.9383162,22.8833706 59.3708921,22.8833706 C59.3797412,22.8833706 59.3881787,22.8846132 59.3970278,22.8846132 L59.3970278,22.8846132 L59.3970278,22.8790214 L63.9053254,22.8790214 C63.7254627,26.7721508 62.1383905,30.2931155 59.64686,32.9450743 C59.5548707,33.0138326 59.1644822,33.2720905 58.6534993,33.1757875 C58.2143379,33.0463479 57.7506873,32.9753114 57.2703675,32.9753114 C54.9885395,32.9753114 53.0689065,34.5432911 52.5050349,36.6634084 C52.3605685,37.1610779 51.9751191,37.3919982 51.8020475,37.4725614 C50.6710116,37.7349614 49.4942897,37.8768272 48.2840237,37.8768272 M57.3732637,2.60028653 C59.4190476,2.60028653 61.0775299,4.2693327 61.0775299,6.32814744 C61.0775299,8.38696217 59.4190476,10.0560083 57.3732637,10.0560083 C55.3274799,10.0560083 53.6689976,8.38696217 53.6689976,6.32814744 C53.6689976,4.2693327 55.3274799,2.60028653 57.3732637,2.60028653 Z" id="Combined-Shape" fill="#E95420"></path>
                <path d="M25,7 L25,10 L1,10 L1,36 L25,36 L25,39 L2.61680083,39 C1.17762083,39 3.14099938e-17,37.7615364 -1.5394476e-16,36.248 L-3.39876892e-15,9.752 C-3.58412367e-15,8.23846358 1.17762083,7 2.61680083,7 L25,7 Z M17.7880714,8 L12.1894286,8 L12.1894286,8.00661157 C12.0848571,8.01101928 12,8.2292011 12,8.49972452 C12,8.7707989 12.0848571,8.98898072 12.1894286,8.99338843 L12.1894286,9 L17.7880714,9 L17.7880714,8.98512397 C17.7947143,8.98677686 17.8007143,8.99559229 17.8073571,8.99559229 C17.9138571,8.99559229 18,8.77355372 18,8.49972452 C18,8.22644628 17.9138571,8.00440771 17.8073571,8.00440771 C17.8007143,8.00440771 17.7947143,8.01322314 17.7880714,8.01487603 L17.7880714,8 Z" id="Combined-Shape" fill="#646464" fill-rule="nonzero"></path>
                <path d="M44.3858337,0 C45.8236252,0 47,1.21039415 47,2.68976479 L47,41.3102352 C47,42.7896058 45.8236252,44 44.3858337,44 L28.6141663,44 C27.1763748,44 26,42.7896058 26,41.3102352 L26,2.68976479 C26,1.21039415 27.1763748,0 28.6141663,0 L44.3858337,0 Z M46,4 L27,4 L27,40 L46,40 L46,4 Z M40.7174996,2 L33.252504,2 L33.252504,2.00633914 C33.1127947,2.0110935 33,2.22939778 33,2.5 C33,2.77060222 33.1127947,2.9889065 33.252504,2.99366086 L33.252504,3 L40.7174996,3 L40.7174996,2.98534073 L40.7431815,2.99524564 L40.7431815,2.99524564 C40.8849453,2.99524564 41,2.77337559 41,2.5 C41,2.22662441 40.8849453,2.00475436 40.7431815,2.00475436 L40.7174996,2.01465927 L40.7174996,2.01465927 L40.7174996,2 Z" id="Combined-Shape" fill="#646464" fill-rule="nonzero"></path>
                <polygon id="path102" fill="url(#linearGradient-1)" fill-rule="nonzero" transform="translate(36.414755, 21.984241) scale(-1, 1) rotate(-180.000000) translate(-36.414755, -21.984241) " points="45.6756634 4.25501433 27.1538462 4.25501433 27.1538462 39.713467 45.6756634 39.713467"></polygon>
                <polygon id="path102" fill="url(#linearGradient-2)" fill-rule="nonzero" transform="translate(13.000000, 23.164756) scale(-1, 1) rotate(-180.000000) translate(-13.000000, -23.164756) " points="25 10.1647564 1 10.1647564 1 36.1647564 25 36.1647564"></polygon>
            </g>
        </g>
    </g>
</svg>