<?xml version="1.0" encoding="UTF-8"?>
<svg width="351px" height="144px" viewBox="0 0 351 144" version="1.1" xmlns="http://www.w3.org/2000/svg" xmlns:xlink="http://www.w3.org/1999/xlink">
    <title>back</title>
    <g id="Page-1" stroke="none" stroke-width="1" fill="none" fill-rule="evenodd">
        <g id="9" transform="translate(-264.000000, -488.000000)">
            <g id="back" transform="translate(264.000000, 488.000000)">
                <text id="People-Depend-On-My" font-family="Ubuntu-Light, Ubuntu" font-size="32" font-weight="300" letter-spacing="-2.13333333" fill="#FFFFFF">
                    <tspan x="0.38" y="137">People Depend On My Repo</tspan>
                </text>
                <path d="M201.054974,74.4293195 C205.213813,72.1247396 210.530352,73.4895345 212.931646,77.4808726 C215.332941,81.4726688 213.908007,86.5773681 209.749168,88.882406 C205.589851,91.1842379 200.273789,89.8162371 197.872018,85.8276469 C195.470723,81.8363088 196.895657,76.7343573 201.054974,74.4293195 Z M208.356014,47.1272727 L221,47.3162122 C220.399732,56.4291935 216.29758,64.6251945 209.975108,70.6712582 C206.628565,69.4272141 202.745521,69.5967515 199.395622,71.4616628 C196.042847,73.3233404 193.9491,76.4803392 193.395818,79.9029619 C190.25352,80.7266272 186.94773,81.1636364 183.539339,81.1636364 C177.559672,81.1636364 171.908426,79.8179622 166.889571,77.4199551 L166.889571,77.4199551 L173.041839,66.7751319 C176.230644,68.2053438 179.791499,69.0063733 183.539339,69.0063733 C196.557773,69.0063733 207.239861,59.3889375 208.356014,47.1272727 L208.356014,47.1272727 Z M162.655518,15.0545455 L169.09816,25.5131694 C162.739739,29.8562199 158.583902,37.0387263 158.583902,45.1606329 C158.583902,53.2880843 162.739739,60.4678183 169.09816,64.8141034 L169.09816,64.8141034 L162.655518,75.2727273 C155.192713,70.4301728 149.633674,63.0475875 147.288344,54.3924455 C150.063342,52.2216133 151.841968,48.8946675 151.841968,45.1610949 C151.841968,41.4298328 150.063818,38.1028869 147.288344,35.9325168 C149.633674,27.2769127 155.192713,19.8943275 162.655518,15.0545455 L162.655518,15.0545455 Z M139.693456,36.6545455 C144.499241,36.6545455 148.392638,40.3912683 148.392638,44.998626 C148.392638,49.6078157 144.499241,53.3454545 139.693456,53.3454545 C134.893397,53.3454545 131,49.6082737 131,44.998626 C131,40.3912683 134.893397,36.6545455 139.693456,36.6545455 Z M183.539339,8.83636364 C186.94821,8.83636364 190.25352,9.27657066 193.395818,10.0987831 C193.94958,13.5188176 196.043326,16.6755592 199.395622,18.5403187 C202.745521,20.4050781 206.628565,20.5741398 209.975108,19.330197 C216.297101,25.3729968 220.399732,33.5683305 221,42.6805697 L221,42.6805697 L208.356014,42.8727273 C207.24034,30.6088275 196.557773,20.9944844 183.539339,20.9944844 C179.79102,20.9944844 176.230164,21.7959106 173.041839,23.2232345 L173.041839,23.2232345 L166.889571,12.5792781 C171.908426,10.183314 177.560151,8.83636364 183.539339,8.83636364 Z M197.871976,4.17285961 C200.274138,0.182522418 205.592395,-1.18499128 209.748699,1.11953951 C213.910252,3.42178042 215.332272,8.52499714 212.931063,12.5171662 C210.532718,16.5084194 205.213985,17.8759331 201.054817,15.5714023 C196.89565,13.2668715 195.470767,8.16411275 197.871976,4.17285961 Z" id="Shape" fill="#E95420" fill-rule="nonzero"></path>
            </g>
        </g>
    </g>
</svg>