<?xml version="1.0" encoding="UTF-8"?>
<svg width="411px" height="184px" viewBox="0 0 411 184" version="1.1" xmlns="http://www.w3.org/2000/svg" xmlns:xlink="http://www.w3.org/1999/xlink">
    <title>back</title>
    <g id="Page-1" stroke="none" stroke-width="1" fill="none" fill-rule="evenodd">
        <g id="1" transform="translate(-175.000000, -335.000000)" fill-rule="nonzero">
            <g id="back" transform="translate(175.000000, 335.000000)">
                <path d="M2.375,177 L2.375,168.156 L5.477,168.156 C7.039,168.156 8.4415,168.0295 9.6845,167.7765 C10.9275,167.5235 11.978,167.1165 12.836,166.5555 C13.694,165.9945 14.354,165.2575 14.816,164.3445 C15.278,163.4315 15.509,162.326 15.509,161.028 C15.509,158.762 14.717,157.013 13.133,155.781 C11.549,154.549 9.14,153.933 5.906,153.933 C4.982,153.933 3.9865,153.9825 2.9195,154.0815 C1.8525,154.1805 0.923,154.34 0.131,154.56 L0.131,154.56 L0.131,177 L2.375,177 Z M5.213,166.209 L2.375,166.209 L2.375,156.111 C2.793,156.067 3.2935,156.0175 3.8765,155.9625 C4.4595,155.9075 5.169,155.88 6.005,155.88 C6.907,155.88 7.787,155.957 8.645,156.111 C9.503,156.265 10.2675,156.5345 10.9385,156.9195 C11.6095,157.3045 12.1485,157.827 12.5555,158.487 C12.9625,159.147 13.166,159.983 13.166,160.995 C13.166,162.051 12.979,162.92 12.605,163.602 C12.231,164.284 11.6975,164.8175 11.0045,165.2025 C10.3115,165.5875 9.4755,165.8515 8.4965,165.9945 C7.5175,166.1375 6.423,166.209 5.213,166.209 L5.213,166.209 Z M26.894,177.363 C28.038,177.363 29.0335,177.242 29.8805,177 C30.7275,176.758 31.305,176.549 31.613,176.373 L31.613,176.373 L31.217,174.525 C30.909,174.679 30.414,174.866 29.732,175.086 C29.05,175.306 28.126,175.416 26.96,175.416 C24.848,175.416 23.308,174.855 22.34,173.733 C21.372,172.611 20.855,171.005 20.789,168.915 L20.789,168.915 L32.768,168.915 C32.79,168.761 32.8065,168.596 32.8175,168.42 C32.8285,168.244 32.834,168.068 32.834,167.892 C32.834,165.054 32.2125,162.953 30.9695,161.589 C29.7265,160.225 28.06,159.543 25.97,159.543 C25.024,159.543 24.1055,159.7245 23.2145,160.0875 C22.3235,160.4505 21.5315,161.006 20.8385,161.754 C20.1455,162.502 19.5845,163.4315 19.1555,164.5425 C18.7265,165.6535 18.512,166.957 18.512,168.453 C18.512,169.751 18.666,170.9445 18.974,172.0335 C19.282,173.1225 19.777,174.063 20.459,174.855 C21.141,175.647 22.01,176.263 23.066,176.703 C24.122,177.143 25.398,177.363 26.894,177.363 Z M30.623,167.1 L20.855,167.1 C20.899,166.352 21.0475,165.637 21.3005,164.955 C21.5535,164.273 21.9055,163.6735 22.3565,163.1565 C22.8075,162.6395 23.3355,162.227 23.9405,161.919 C24.5455,161.611 25.233,161.457 26.003,161.457 C27.455,161.457 28.577,161.952 29.369,162.942 C30.161,163.932 30.579,165.318 30.623,167.1 L30.623,167.1 Z M44.384,177.396 C45.528,177.396 46.573,177.1815 47.519,176.7525 C48.465,176.3235 49.2845,175.724 49.9775,174.954 C50.6705,174.184 51.2095,173.249 51.5945,172.149 C51.9795,171.049 52.172,169.828 52.172,168.486 C52.172,167.144 51.9795,165.923 51.5945,164.823 C51.2095,163.723 50.6705,162.7825 49.9775,162.0015 C49.2845,161.2205 48.465,160.6155 47.519,160.1865 C46.573,159.7575 45.528,159.543 44.384,159.543 C43.24,159.543 42.195,159.7575 41.249,160.1865 C40.303,160.6155 39.4835,161.2205 38.7905,162.0015 C38.0975,162.7825 37.5585,163.723 37.1735,164.823 C36.7885,165.923 36.596,167.144 36.596,168.486 C36.596,169.828 36.7885,171.049 37.1735,172.149 C37.5585,173.249 38.0975,174.184 38.7905,174.954 C39.4835,175.724 40.303,176.3235 41.249,176.7525 C42.195,177.1815 43.24,177.396 44.384,177.396 Z M44.384,175.449 C42.69,175.449 41.348,174.822 40.358,173.568 C39.368,172.314 38.873,170.62 38.873,168.486 C38.873,166.352 39.368,164.6525 40.358,163.3875 C41.348,162.1225 42.69,161.49 44.384,161.49 C46.078,161.49 47.42,162.1225 48.41,163.3875 C49.4,164.6525 49.895,166.352 49.895,168.486 C49.895,170.62 49.4,172.314 48.41,173.568 C47.42,174.822 46.078,175.449 44.384,175.449 Z M58.97,183.105 L58.97,176.01 C59.344,176.296 59.9435,176.5985 60.7685,176.9175 C61.5935,177.2365 62.567,177.396 63.689,177.396 C64.921,177.396 66.0155,177.176 66.9725,176.736 C67.9295,176.296 68.738,175.6855 69.398,174.9045 C70.058,174.1235 70.5585,173.1885 70.8995,172.0995 C71.2405,171.0105 71.411,169.817 71.411,168.519 C71.411,167.133 71.2075,165.89 70.8005,164.79 C70.3935,163.69 69.8215,162.755 69.0845,161.985 C68.3475,161.215 67.4675,160.6265 66.4445,160.2195 C65.4215,159.8125 64.283,159.609 63.029,159.609 C61.511,159.609 60.257,159.708 59.267,159.906 C58.277,160.104 57.463,160.313 56.825,160.533 L56.825,160.533 L56.825,183.105 L58.97,183.105 Z M63.491,175.449 C62.985,175.449 62.501,175.3995 62.039,175.3005 C61.577,175.2015 61.148,175.075 60.752,174.921 C60.356,174.767 60.0095,174.602 59.7125,174.426 C59.4155,174.25 59.168,174.085 58.97,173.931 L58.97,173.931 L58.97,162.018 C59.3,161.908 59.7895,161.8035 60.4385,161.7045 C61.0875,161.6055 61.94,161.556 62.996,161.556 C64.844,161.556 66.329,162.1555 67.451,163.3545 C68.573,164.5535 69.134,166.275 69.134,168.519 C69.134,169.465 69.035,170.3615 68.837,171.2085 C68.639,172.0555 68.32,172.7925 67.88,173.4195 C67.44,174.0465 66.8625,174.5415 66.1475,174.9045 C65.4325,175.2675 64.547,175.449 63.491,175.449 Z M80.387,177.297 L80.684,175.515 C80.244,175.449 79.8645,175.372 79.5455,175.284 C79.2265,175.196 78.968,175.0585 78.77,174.8715 C78.572,174.6845 78.4235,174.4315 78.3245,174.1125 C78.2255,173.7935 78.176,173.37 78.176,172.842 L78.176,172.842 L78.176,151.392 L76.031,151.788 L76.031,172.908 C76.031,173.722 76.1245,174.3985 76.3115,174.9375 C76.4985,175.4765 76.7735,175.9165 77.1365,176.2575 C77.4995,176.5985 77.9505,176.8515 78.4895,177.0165 C79.0285,177.1815 79.661,177.275 80.387,177.297 L80.387,177.297 Z M91.838,177.363 C92.982,177.363 93.9775,177.242 94.8245,177 C95.6715,176.758 96.249,176.549 96.557,176.373 L96.557,176.373 L96.161,174.525 C95.853,174.679 95.358,174.866 94.676,175.086 C93.994,175.306 93.07,175.416 91.904,175.416 C89.792,175.416 88.252,174.855 87.284,173.733 C86.316,172.611 85.799,171.005 85.733,168.915 L85.733,168.915 L97.712,168.915 C97.734,168.761 97.7505,168.596 97.7615,168.42 C97.7725,168.244 97.778,168.068 97.778,167.892 C97.778,165.054 97.1565,162.953 95.9135,161.589 C94.6705,160.225 93.004,159.543 90.914,159.543 C89.968,159.543 89.0495,159.7245 88.1585,160.0875 C87.2675,160.4505 86.4755,161.006 85.7825,161.754 C85.0895,162.502 84.5285,163.4315 84.0995,164.5425 C83.6705,165.6535 83.456,166.957 83.456,168.453 C83.456,169.751 83.61,170.9445 83.918,172.0335 C84.226,173.1225 84.721,174.063 85.403,174.855 C86.085,175.647 86.954,176.263 88.01,176.703 C89.066,177.143 90.342,177.363 91.838,177.363 Z M95.567,167.1 L85.799,167.1 C85.843,166.352 85.9915,165.637 86.2445,164.955 C86.4975,164.273 86.8495,163.6735 87.3005,163.1565 C87.7515,162.6395 88.2795,162.227 88.8845,161.919 C89.4895,161.611 90.177,161.457 90.947,161.457 C92.399,161.457 93.521,161.952 94.313,162.942 C95.105,163.932 95.523,165.318 95.567,167.1 L95.567,167.1 Z M115.796,177.198 C117.644,177.198 119.338,176.956 120.878,176.472 C122.418,175.988 123.7435,175.262 124.8545,174.294 C125.9655,173.326 126.829,172.116 127.445,170.664 C128.061,169.212 128.369,167.507 128.369,165.549 C128.369,163.613 128.061,161.919 127.445,160.467 C126.829,159.015 125.9655,157.805 124.8545,156.837 C123.7435,155.869 122.418,155.143 120.878,154.659 C119.338,154.175 117.644,153.933 115.796,153.933 C114.872,153.933 113.904,153.9825 112.892,154.0815 C111.88,154.1805 110.989,154.34 110.219,154.56 L110.219,154.56 L110.219,176.604 C110.989,176.802 111.88,176.9505 112.892,177.0495 C113.904,177.1485 114.872,177.198 115.796,177.198 Z M116.06,175.251 C114.872,175.251 114.0085,175.218 113.4695,175.152 C112.9305,175.086 112.595,175.042 112.463,175.02 L112.463,175.02 L112.463,156.111 C112.595,156.089 112.9305,156.045 113.4695,155.979 C114.0085,155.913 114.872,155.88 116.06,155.88 C117.71,155.88 119.151,156.1055 120.383,156.5565 C121.615,157.0075 122.649,157.651 123.485,158.487 C124.321,159.323 124.948,160.335 125.366,161.523 C125.784,162.711 125.993,164.053 125.993,165.549 C125.993,167.045 125.784,168.3925 125.366,169.5915 C124.948,170.7905 124.321,171.808 123.485,172.644 C122.649,173.48 121.615,174.1235 120.383,174.5745 C119.151,175.0255 117.71,175.251 116.06,175.251 Z M140.612,177.363 C141.756,177.363 142.7515,177.242 143.5985,177 C144.4455,176.758 145.023,176.549 145.331,176.373 L145.331,176.373 L144.935,174.525 C144.627,174.679 144.132,174.866 143.45,175.086 C142.768,175.306 141.844,175.416 140.678,175.416 C138.566,175.416 137.026,174.855 136.058,173.733 C135.09,172.611 134.573,171.005 134.507,168.915 L134.507,168.915 L146.486,168.915 C146.508,168.761 146.5245,168.596 146.5355,168.42 C146.5465,168.244 146.552,168.068 146.552,167.892 C146.552,165.054 145.9305,162.953 144.6875,161.589 C143.4445,160.225 141.778,159.543 139.688,159.543 C138.742,159.543 137.8235,159.7245 136.9325,160.0875 C136.0415,160.4505 135.2495,161.006 134.5565,161.754 C133.8635,162.502 133.3025,163.4315 132.8735,164.5425 C132.4445,165.6535 132.23,166.957 132.23,168.453 C132.23,169.751 132.384,170.9445 132.692,172.0335 C133,173.1225 133.495,174.063 134.177,174.855 C134.859,175.647 135.728,176.263 136.784,176.703 C137.84,177.143 139.116,177.363 140.612,177.363 Z M144.341,167.1 L134.573,167.1 C134.617,166.352 134.7655,165.637 135.0185,164.955 C135.2715,164.273 135.6235,163.6735 136.0745,163.1565 C136.5255,162.6395 137.0535,162.227 137.6585,161.919 C138.2635,161.611 138.951,161.457 139.721,161.457 C141.173,161.457 142.295,161.952 143.087,162.942 C143.879,163.932 144.297,165.318 144.341,167.1 L144.341,167.1 Z M153.482,183.105 L153.482,176.01 C153.856,176.296 154.4555,176.5985 155.2805,176.9175 C156.1055,177.2365 157.079,177.396 158.201,177.396 C159.433,177.396 160.5275,177.176 161.4845,176.736 C162.4415,176.296 163.25,175.6855 163.91,174.9045 C164.57,174.1235 165.0705,173.1885 165.4115,172.0995 C165.7525,171.0105 165.923,169.817 165.923,168.519 C165.923,167.133 165.7195,165.89 165.3125,164.79 C164.9055,163.69 164.3335,162.755 163.5965,161.985 C162.8595,161.215 161.9795,160.6265 160.9565,160.2195 C159.9335,159.8125 158.795,159.609 157.541,159.609 C156.023,159.609 154.769,159.708 153.779,159.906 C152.789,160.104 151.975,160.313 151.337,160.533 L151.337,160.533 L151.337,183.105 L153.482,183.105 Z M158.003,175.449 C157.497,175.449 157.013,175.3995 156.551,175.3005 C156.089,175.2015 155.66,175.075 155.264,174.921 C154.868,174.767 154.5215,174.602 154.2245,174.426 C153.9275,174.25 153.68,174.085 153.482,173.931 L153.482,173.931 L153.482,162.018 C153.812,161.908 154.3015,161.8035 154.9505,161.7045 C155.5995,161.6055 156.452,161.556 157.508,161.556 C159.356,161.556 160.841,162.1555 161.963,163.3545 C163.085,164.5535 163.646,166.275 163.646,168.519 C163.646,169.465 163.547,170.3615 163.349,171.2085 C163.151,172.0555 162.832,172.7925 162.392,173.4195 C161.952,174.0465 161.3745,174.5415 160.6595,174.9045 C159.9445,175.2675 159.059,175.449 158.003,175.449 Z M177.935,177.363 C179.079,177.363 180.0745,177.242 180.9215,177 C181.7685,176.758 182.346,176.549 182.654,176.373 L182.654,176.373 L182.258,174.525 C181.95,174.679 181.455,174.866 180.773,175.086 C180.091,175.306 179.167,175.416 178.001,175.416 C175.889,175.416 174.349,174.855 173.381,173.733 C172.413,172.611 171.896,171.005 171.83,168.915 L171.83,168.915 L183.809,168.915 C183.831,168.761 183.8475,168.596 183.8585,168.42 C183.8695,168.244 183.875,168.068 183.875,167.892 C183.875,165.054 183.2535,162.953 182.0105,161.589 C180.7675,160.225 179.101,159.543 177.011,159.543 C176.065,159.543 175.1465,159.7245 174.2555,160.0875 C173.3645,160.4505 172.5725,161.006 171.8795,161.754 C171.1865,162.502 170.6255,163.4315 170.1965,164.5425 C169.7675,165.6535 169.553,166.957 169.553,168.453 C169.553,169.751 169.707,170.9445 170.015,172.0335 C170.323,173.1225 170.818,174.063 171.5,174.855 C172.182,175.647 173.051,176.263 174.107,176.703 C175.163,177.143 176.439,177.363 177.935,177.363 Z M181.664,167.1 L171.896,167.1 C171.94,166.352 172.0885,165.637 172.3415,164.955 C172.5945,164.273 172.9465,163.6735 173.3975,163.1565 C173.8485,162.6395 174.3765,162.227 174.9815,161.919 C175.5865,161.611 176.274,161.457 177.044,161.457 C178.496,161.457 179.618,161.952 180.41,162.942 C181.202,163.932 181.62,165.318 181.664,167.1 L181.664,167.1 Z M190.805,177 L190.805,162.018 C191.025,161.93 191.5035,161.831 192.2405,161.721 C192.9775,161.611 193.852,161.556 194.864,161.556 C195.81,161.556 196.5965,161.6715 197.2235,161.9025 C197.8505,162.1335 198.3565,162.513 198.7415,163.041 C199.1265,163.569 199.4015,164.251 199.5665,165.087 C199.7315,165.923 199.814,166.946 199.814,168.156 L199.814,168.156 L199.814,177 L201.959,177 L201.959,167.463 C201.959,166.297 201.849,165.23 201.629,164.262 C201.409,163.294 201.0405,162.4635 200.5235,161.7705 C200.0065,161.0775 199.3135,160.544 198.4445,160.17 C197.5755,159.796 196.492,159.609 195.194,159.609 C193.632,159.609 192.312,159.719 191.234,159.939 C190.156,160.159 189.298,160.357 188.66,160.533 L188.66,160.533 L188.66,177 L190.805,177 Z M214.796,177.396 C216.314,177.396 217.568,177.297 218.558,177.099 C219.548,176.901 220.362,176.692 221,176.472 L221,176.472 L221,151.392 L218.855,151.788 L218.855,160.962 C218.481,160.676 217.8815,160.3735 217.0565,160.0545 C216.2315,159.7355 215.258,159.576 214.136,159.576 C212.904,159.576 211.8095,159.796 210.8525,160.236 C209.8955,160.676 209.087,161.292 208.427,162.084 C207.767,162.876 207.2665,163.8165 206.9255,164.9055 C206.5845,165.9945 206.414,167.188 206.414,168.486 C206.414,169.872 206.6175,171.115 207.0245,172.215 C207.4315,173.315 208.0035,174.25 208.7405,175.02 C209.4775,175.79 210.3575,176.3785 211.3805,176.7855 C212.4035,177.1925 213.542,177.396 214.796,177.396 Z M214.829,175.449 C212.981,175.449 211.496,174.8495 210.374,173.6505 C209.252,172.4515 208.691,170.73 208.691,168.486 C208.691,167.54 208.79,166.6435 208.988,165.7965 C209.186,164.9495 209.505,164.2125 209.945,163.5855 C210.385,162.9585 210.9625,162.458 211.6775,162.084 C212.3925,161.71 213.278,161.523 214.334,161.523 C214.84,161.523 215.324,161.5725 215.786,161.6715 C216.248,161.7705 216.677,161.897 217.073,162.051 C217.469,162.205 217.8155,162.37 218.1125,162.546 C218.4095,162.722 218.657,162.887 218.855,163.041 L218.855,163.041 L218.855,174.987 C218.525,175.097 218.0355,175.2015 217.3865,175.3005 C216.7375,175.3995 215.885,175.449 214.829,175.449 Z M244.133,177.495 C245.585,177.495 246.96,177.242 248.258,176.736 C249.556,176.23 250.6945,175.4765 251.6735,174.4755 C252.6525,173.4745 253.428,172.226 254,170.73 C254.572,169.234 254.858,167.507 254.858,165.549 C254.858,163.591 254.572,161.8695 254,160.3845 C253.428,158.8995 252.6525,157.6565 251.6735,156.6555 C250.6945,155.6545 249.556,154.901 248.258,154.395 C246.96,153.889 245.585,153.636 244.133,153.636 C242.681,153.636 241.306,153.889 240.008,154.395 C238.71,154.901 237.5715,155.6545 236.5925,156.6555 C235.6135,157.6565 234.838,158.8995 234.266,160.3845 C233.694,161.8695 233.408,163.591 233.408,165.549 C233.408,167.507 233.694,169.234 234.266,170.73 C234.838,172.226 235.6135,173.4745 236.5925,174.4755 C237.5715,175.4765 238.71,176.23 240.008,176.736 C241.306,177.242 242.681,177.495 244.133,177.495 Z M244.133,175.482 C242.857,175.482 241.7075,175.251 240.6845,174.789 C239.6615,174.327 238.787,173.667 238.061,172.809 C237.335,171.951 236.774,170.9115 236.378,169.6905 C235.982,168.4695 235.784,167.089 235.784,165.549 C235.784,164.009 235.982,162.6285 236.378,161.4075 C236.774,160.1865 237.335,159.147 238.061,158.289 C238.787,157.431 239.6615,156.7765 240.6845,156.3255 C241.7075,155.8745 242.857,155.649 244.133,155.649 C245.409,155.649 246.5585,155.8745 247.5815,156.3255 C248.6045,156.7765 249.479,157.431 250.205,158.289 C250.931,159.147 251.492,160.1865 251.888,161.4075 C252.284,162.6285 252.482,164.009 252.482,165.549 C252.482,167.089 252.284,168.4695 251.888,169.6905 C251.492,170.9115 250.931,171.951 250.205,172.809 C249.479,173.667 248.6045,174.327 247.5815,174.789 C246.5585,175.251 245.409,175.482 244.133,175.482 Z M261.887,177 L261.887,162.018 C262.107,161.93 262.5855,161.831 263.3225,161.721 C264.0595,161.611 264.934,161.556 265.946,161.556 C266.892,161.556 267.6785,161.6715 268.3055,161.9025 C268.9325,162.1335 269.4385,162.513 269.8235,163.041 C270.2085,163.569 270.4835,164.251 270.6485,165.087 C270.8135,165.923 270.896,166.946 270.896,168.156 L270.896,168.156 L270.896,177 L273.041,177 L273.041,167.463 C273.041,166.297 272.931,165.23 272.711,164.262 C272.491,163.294 272.1225,162.4635 271.6055,161.7705 C271.0885,161.0775 270.3955,160.544 269.5265,160.17 C268.6575,159.796 267.574,159.609 266.276,159.609 C264.714,159.609 263.394,159.719 262.316,159.939 C261.238,160.159 260.38,160.357 259.742,160.533 L259.742,160.533 L259.742,177 L261.887,177 Z M287.825,177 C287.957,173.458 288.1055,170.0755 288.2705,166.8525 C288.4355,163.6295 288.661,160.643 288.947,157.893 C289.123,158.201 289.398,158.729 289.772,159.477 C290.146,160.225 290.575,161.094 291.059,162.084 C291.543,163.074 292.049,164.1355 292.577,165.2685 C293.105,166.4015 293.622,167.5015 294.128,168.5685 C294.634,169.6355 295.0905,170.62 295.4975,171.522 C295.9045,172.424 296.218,173.15 296.438,173.7 L296.438,173.7 L298.451,173.7 C298.671,173.15 298.9845,172.424 299.3915,171.522 C299.7985,170.62 300.255,169.6355 300.761,168.5685 C301.267,167.5015 301.784,166.4015 302.312,165.2685 C302.84,164.1355 303.346,163.074 303.83,162.084 C304.314,161.094 304.743,160.225 305.117,159.477 C305.491,158.729 305.766,158.201 305.942,157.893 C306.228,160.643 306.4535,163.6295 306.6185,166.8525 C306.7835,170.0755 306.932,173.458 307.064,177 L307.064,177 L309.341,177 C309.143,172.842 308.9175,168.86 308.6645,165.054 C308.4115,161.248 308.098,157.607 307.724,154.131 L307.724,154.131 L305.843,154.131 C305.183,155.231 304.479,156.5015 303.731,157.9425 C302.983,159.3835 302.2405,160.8795 301.5035,162.4305 C300.7665,163.9815 300.0515,165.5105 299.3585,167.0175 C298.6655,168.5245 298.055,169.883 297.527,171.093 C296.999,169.883 296.3885,168.5245 295.6955,167.0175 C295.0025,165.5105 294.2875,163.9815 293.5505,162.4305 C292.8135,160.8795 292.071,159.3835 291.323,157.9425 C290.575,156.5015 289.871,155.231 289.211,154.131 L289.211,154.131 L287.231,154.131 C286.857,157.607 286.5435,161.248 286.2905,165.054 C286.0375,168.86 285.812,172.842 285.614,177 L285.614,177 L287.825,177 Z M314.126,183.204 C315.094,183.204 315.9355,183.094 316.6505,182.874 C317.3655,182.654 317.9925,182.313 318.5315,181.851 C319.0705,181.389 319.56,180.8005 320,180.0855 C320.44,179.3705 320.869,178.518 321.287,177.528 C322.343,175.02 323.322,172.259 324.224,169.245 C325.126,166.231 325.929,163.129 326.633,159.939 L326.633,159.939 L324.488,159.939 C324.158,161.391 323.8445,162.744 323.5475,163.998 C323.2505,165.252 322.9425,166.4785 322.6235,167.6775 C322.3045,168.8765 321.958,170.081 321.584,171.291 C321.21,172.501 320.781,173.788 320.297,175.152 C319.637,173.832 319.021,172.49 318.449,171.126 C317.877,169.762 317.3545,168.431 316.8815,167.133 C316.4085,165.835 315.985,164.5755 315.611,163.3545 C315.237,162.1335 314.929,160.995 314.687,159.939 L314.687,159.939 L312.41,159.939 C312.762,161.369 313.18,162.8265 313.664,164.3115 C314.148,165.7965 314.6815,167.2815 315.2645,168.7665 C315.8475,170.2515 316.4745,171.72 317.1455,173.172 C317.8165,174.624 318.515,176.021 319.241,177.363 C318.933,178.133 318.6195,178.771 318.3005,179.277 C317.9815,179.783 317.624,180.1955 317.228,180.5145 C316.832,180.8335 316.3865,181.059 315.8915,181.191 C315.3965,181.323 314.841,181.389 314.225,181.389 C313.785,181.389 313.3615,181.3285 312.9545,181.2075 C312.5475,181.0865 312.3,180.993 312.212,180.927 L312.212,180.927 L311.783,182.709 C311.893,182.775 312.1735,182.874 312.6245,183.006 C313.0755,183.138 313.576,183.204 314.126,183.204 Z M340.13,177 L340.13,167.76 L343.826,167.76 C344.53,167.76 345.234,167.727 345.938,167.661 C346.07,167.837 346.209333,168.022778 346.356,168.218333 L346.818,168.834333 C346.979333,169.049444 347.148,169.274333 347.324,169.509 C347.852,170.213 348.3965,170.9775 348.9575,171.8025 C349.5185,172.6275 350.0685,173.48 350.6075,174.36 C351.1465,175.24 351.647,176.12 352.109,177 L352.109,177 L354.518,177 C354.122,176.12 353.638,175.196 353.066,174.228 C352.494,173.26 351.911,172.3305 351.317,171.4395 C350.723,170.5485 350.1455,169.729 349.5845,168.981 C349.0235,168.233 348.567,167.639 348.215,167.199 C349.689,166.759 350.877,166.044 351.779,165.054 C352.681,164.064 353.132,162.711 353.132,160.995 C353.132,158.663 352.3345,156.903 350.7395,155.715 C349.1445,154.527 346.774,153.933 343.628,153.933 C342.726,153.933 341.7415,153.9825 340.6745,154.0815 C339.6075,154.1805 338.678,154.34 337.886,154.56 L337.886,154.56 L337.886,177 L340.13,177 Z M343.232,165.846 L340.13,165.846 L340.13,156.111 C340.548,156.067 341.0705,156.0175 341.6975,155.9625 C342.3245,155.9075 343.056,155.88 343.892,155.88 C344.772,155.88 345.6245,155.9515 346.4495,156.0945 C347.2745,156.2375 348.006,156.5015 348.644,156.8865 C349.282,157.2715 349.799,157.794 350.195,158.454 C350.591,159.114 350.789,159.95 350.789,160.962 C350.789,162.062 350.591,162.931 350.195,163.569 C349.799,164.207 349.26,164.6965 348.578,165.0375 C347.896,165.3785 347.093,165.5985 346.169,165.6975 C345.245,165.7965 344.266,165.846 343.232,165.846 L343.232,165.846 Z M365.507,177.363 C366.651,177.363 367.6465,177.242 368.4935,177 C369.3405,176.758 369.918,176.549 370.226,176.373 L370.226,176.373 L369.83,174.525 C369.522,174.679 369.027,174.866 368.345,175.086 C367.663,175.306 366.739,175.416 365.573,175.416 C363.461,175.416 361.921,174.855 360.953,173.733 C359.985,172.611 359.468,171.005 359.402,168.915 L359.402,168.915 L371.381,168.915 C371.403,168.761 371.4195,168.596 371.4305,168.42 C371.4415,168.244 371.447,168.068 371.447,167.892 C371.447,165.054 370.8255,162.953 369.5825,161.589 C368.3395,160.225 366.673,159.543 364.583,159.543 C363.637,159.543 362.7185,159.7245 361.8275,160.0875 C360.9365,160.4505 360.1445,161.006 359.4515,161.754 C358.7585,162.502 358.1975,163.4315 357.7685,164.5425 C357.3395,165.6535 357.125,166.957 357.125,168.453 C357.125,169.751 357.279,170.9445 357.587,172.0335 C357.895,173.1225 358.39,174.063 359.072,174.855 C359.754,175.647 360.623,176.263 361.679,176.703 C362.735,177.143 364.011,177.363 365.507,177.363 Z M369.236,167.1 L359.468,167.1 C359.512,166.352 359.6605,165.637 359.9135,164.955 C360.1665,164.273 360.5185,163.6735 360.9695,163.1565 C361.4205,162.6395 361.9485,162.227 362.5535,161.919 C363.1585,161.611 363.846,161.457 364.616,161.457 C366.068,161.457 367.19,161.952 367.982,162.942 C368.774,163.932 369.192,165.318 369.236,167.1 L369.236,167.1 Z M378.377,183.105 L378.377,176.01 C378.751,176.296 379.3505,176.5985 380.1755,176.9175 C381.0005,177.2365 381.974,177.396 383.096,177.396 C384.328,177.396 385.4225,177.176 386.3795,176.736 C387.3365,176.296 388.145,175.6855 388.805,174.9045 C389.465,174.1235 389.9655,173.1885 390.3065,172.0995 C390.6475,171.0105 390.818,169.817 390.818,168.519 C390.818,167.133 390.6145,165.89 390.2075,164.79 C389.8005,163.69 389.2285,162.755 388.4915,161.985 C387.7545,161.215 386.8745,160.6265 385.8515,160.2195 C384.8285,159.8125 383.69,159.609 382.436,159.609 C380.918,159.609 379.664,159.708 378.674,159.906 C377.684,160.104 376.87,160.313 376.232,160.533 L376.232,160.533 L376.232,183.105 L378.377,183.105 Z M382.898,175.449 C382.392,175.449 381.908,175.3995 381.446,175.3005 C380.984,175.2015 380.555,175.075 380.159,174.921 C379.763,174.767 379.4165,174.602 379.1195,174.426 C378.8225,174.25 378.575,174.085 378.377,173.931 L378.377,173.931 L378.377,162.018 C378.707,161.908 379.1965,161.8035 379.8455,161.7045 C380.4945,161.6055 381.347,161.556 382.403,161.556 C384.251,161.556 385.736,162.1555 386.858,163.3545 C387.98,164.5535 388.541,166.275 388.541,168.519 C388.541,169.465 388.442,170.3615 388.244,171.2085 C388.046,172.0555 387.727,172.7925 387.287,173.4195 C386.847,174.0465 386.2695,174.5415 385.5545,174.9045 C384.8395,175.2675 383.954,175.449 382.898,175.449 Z M402.236,177.396 C403.38,177.396 404.425,177.1815 405.371,176.7525 C406.317,176.3235 407.1365,175.724 407.8295,174.954 C408.5225,174.184 409.0615,173.249 409.4465,172.149 C409.8315,171.049 410.024,169.828 410.024,168.486 C410.024,167.144 409.8315,165.923 409.4465,164.823 C409.0615,163.723 408.5225,162.7825 407.8295,162.0015 C407.1365,161.2205 406.317,160.6155 405.371,160.1865 C404.425,159.7575 403.38,159.543 402.236,159.543 C401.092,159.543 400.047,159.7575 399.101,160.1865 C398.155,160.6155 397.3355,161.2205 396.6425,162.0015 C395.9495,162.7825 395.4105,163.723 395.0255,164.823 C394.6405,165.923 394.448,167.144 394.448,168.486 C394.448,169.828 394.6405,171.049 395.0255,172.149 C395.4105,173.249 395.9495,174.184 396.6425,174.954 C397.3355,175.724 398.155,176.3235 399.101,176.7525 C400.047,177.1815 401.092,177.396 402.236,177.396 Z M402.236,175.449 C400.542,175.449 399.2,174.822 398.21,173.568 C397.22,172.314 396.725,170.62 396.725,168.486 C396.725,166.352 397.22,164.6525 398.21,163.3875 C399.2,162.1225 400.542,161.49 402.236,161.49 C403.93,161.49 405.272,162.1225 406.262,163.3875 C407.252,164.6525 407.747,166.352 407.747,168.486 C407.747,170.62 407.252,172.314 406.262,173.568 C405.272,174.822 403.93,175.449 402.236,175.449 Z" id="PeopleDependOnMyRepo" fill="#FFFFFF"></path>
                <path d="M242.08246,111.643979 C248.32072,108.187109 256.295528,110.234302 259.897469,116.221309 C263.499411,122.209003 261.362011,129.866052 255.123751,133.323609 C248.884776,136.776357 240.910684,134.724356 237.308026,128.74147 C233.706085,122.754463 235.843485,115.101536 242.08246,111.643979 Z M253.034021,70.6909091 L272,70.9743183 C271.099598,84.6437902 264.94637,96.9377918 255.462662,106.006887 C250.442848,104.140821 244.618282,104.395127 239.593434,107.192494 C234.56427,109.985011 231.42365,114.720509 230.593727,119.854443 C225.88028,121.089941 220.921596,121.745455 215.809009,121.745455 C206.839507,121.745455 198.362638,119.726943 190.834356,116.129933 L190.834356,116.129933 L200.062759,100.162698 C204.845965,102.308016 210.187249,103.50956 215.809009,103.50956 C235.33666,103.50956 251.359791,89.0834063 253.034021,70.6909091 L253.034021,70.6909091 Z M184.483277,22.5818182 L194.147239,38.2697541 C184.609608,44.7843299 178.375853,55.5580895 178.375853,67.7409493 C178.375853,79.9321265 184.609608,90.7017274 194.147239,97.221155 L194.147239,97.221155 L184.483277,112.909091 C173.289069,105.645259 164.950512,94.5713813 161.432515,81.5886683 C165.595014,78.33242 168.262952,73.3420013 168.262952,67.7416424 C168.262952,62.1447492 165.595727,57.1543304 161.432515,53.8987753 C164.950512,40.9153691 173.289069,29.8414913 184.483277,22.5818182 L184.483277,22.5818182 Z M150.040184,54.9818182 C157.248862,54.9818182 163.088957,60.5869024 163.088957,67.4979391 C163.088957,74.4117236 157.248862,80.0181818 150.040184,80.0181818 C142.840095,80.0181818 137,74.4124106 137,67.4979391 C137,60.5869024 142.840095,54.9818182 150.040184,54.9818182 Z M215.809009,13.2545455 C220.922315,13.2545455 225.88028,13.914856 230.593727,15.1481747 C231.42437,20.2782264 234.56499,25.0133388 239.593434,27.810478 C244.618282,30.6076172 250.442848,30.8612097 255.462662,28.9952955 C264.945651,38.0594953 271.099598,50.3524958 272,64.0208546 L272,64.0208546 L253.034021,64.3090909 C251.36051,45.9132413 235.33666,31.4917266 215.809009,31.4917266 C210.186529,31.4917266 204.845246,32.6938659 200.062759,34.8348518 L200.062759,34.8348518 L190.834356,18.8689172 C198.362638,15.274971 206.840227,13.2545455 215.809009,13.2545455 Z M237.307964,6.25928941 C240.911207,0.273783626 248.888592,-1.77748692 255.123049,1.67930926 C261.365379,5.13267063 263.498407,12.7874957 259.896595,18.7757493 C256.299077,24.7626291 248.320977,26.8138996 242.082226,23.3571034 C235.843475,19.9003072 233.706151,12.2461691 237.307964,6.25928941 Z" id="Shape" fill="#E95420"></path>
            </g>
        </g>
    </g>
</svg>