<?xml version="1.0" encoding="UTF-8"?>
<svg width="407px" height="127px" viewBox="0 0 407 127" version="1.1" xmlns="http://www.w3.org/2000/svg" xmlns:xlink="http://www.w3.org/1999/xlink">
    <title>commit to maintain</title>
    <g id="Page-1" stroke="none" stroke-width="1" fill="none" fill-rule="evenodd">
        <g id="1" transform="translate(-854.000000, -389.000000)" fill-rule="nonzero">
            <g id="commit-to-maintain" transform="translate(854.000000, 389.000000)">
                <path d="M6.2425,121 L7.4635,114.763 L13.5685,114.763 L12.3475,121 L14.3605,121 L15.5815,114.763 L20.7295,114.763 L20.7295,112.981 L15.9115,112.981 L17.1985,106.15 L20.7295,106.15 L20.7295,104.401 L17.5615,104.401 L18.7495,98.131 L16.7365,98.131 L15.5485,104.401 L9.4435,104.401 L10.6315,98.131 L8.6185,98.131 L7.4305,104.401 L2.2825,104.401 L2.2825,106.15 L7.0675,106.15 L5.7805,112.981 L2.2825,112.981 L2.2825,114.763 L5.4505,114.763 L4.2295,121 L6.2425,121 Z M13.8985,112.981 L7.7935,112.981 L9.1135,106.15 L15.2185,106.15 L13.8985,112.981 Z M42.2785,121.495 C43.2025,121.495 44.0385,121.4455 44.7865,121.3465 C45.5345,121.2475 46.1945,121.121 46.7665,120.967 C47.3385,120.813 47.8115,120.6645 48.1855,120.5215 C48.5595,120.3785 48.8235,120.252 48.9775,120.142 L48.9775,120.142 L48.3505,118.228 C47.8445,118.514 47.102,118.7945 46.123,119.0695 C45.144,119.3445 43.9285,119.482 42.4765,119.482 C41.1565,119.482 39.985,119.251 38.962,118.789 C37.939,118.327 37.0755,117.667 36.3715,116.809 C35.6675,115.951 35.134,114.9115 34.771,113.6905 C34.408,112.4695 34.2265,111.1 34.2265,109.582 C34.2265,108.108 34.408,106.766 34.771,105.556 C35.134,104.346 35.6785,103.301 36.4045,102.421 C37.1305,101.541 38.027,100.859 39.094,100.375 C40.161,99.891 41.4095,99.649 42.8395,99.649 C44.0935,99.649 45.144,99.8085 45.991,100.1275 C46.838,100.4465 47.5365,100.771 48.0865,101.101 L48.0865,101.101 L48.8125,99.154 C48.6145,99.022 48.3285,98.8735 47.9545,98.7085 C47.5805,98.5435 47.1295,98.3785 46.6015,98.2135 C46.0735,98.0485 45.4575,97.911 44.7535,97.801 C44.0495,97.691 43.2685,97.636 42.4105,97.636 C41.0245,97.636 39.6935,97.8945 38.4175,98.4115 C37.1415,98.9285 36.0195,99.693 35.0515,100.705 C34.0835,101.717 33.308,102.9655 32.725,104.4505 C32.142,105.9355 31.8505,107.635 31.8505,109.549 C31.8505,111.463 32.12,113.1625 32.659,114.6475 C33.198,116.1325 33.935,117.381 34.87,118.393 C35.805,119.405 36.905,120.175 38.17,120.703 C39.435,121.231 40.8045,121.495 42.2785,121.495 Z M59.5045,121.396 C60.6485,121.396 61.6935,121.1815 62.6395,120.7525 C63.5855,120.3235 64.405,119.724 65.098,118.954 C65.791,118.184 66.33,117.249 66.715,116.149 C67.1,115.049 67.2925,113.828 67.2925,112.486 C67.2925,111.144 67.1,109.923 66.715,108.823 C66.33,107.723 65.791,106.7825 65.098,106.0015 C64.405,105.2205 63.5855,104.6155 62.6395,104.1865 C61.6935,103.7575 60.6485,103.543 59.5045,103.543 C58.3605,103.543 57.3155,103.7575 56.3695,104.1865 C55.4235,104.6155 54.604,105.2205 53.911,106.0015 C53.218,106.7825 52.679,107.723 52.294,108.823 C51.909,109.923 51.7165,111.144 51.7165,112.486 C51.7165,113.828 51.909,115.049 52.294,116.149 C52.679,117.249 53.218,118.184 53.911,118.954 C54.604,119.724 55.4235,120.3235 56.3695,120.7525 C57.3155,121.1815 58.3605,121.396 59.5045,121.396 Z M59.5045,119.449 C57.8105,119.449 56.4685,118.822 55.4785,117.568 C54.4885,116.314 53.9935,114.62 53.9935,112.486 C53.9935,110.352 54.4885,108.6525 55.4785,107.3875 C56.4685,106.1225 57.8105,105.49 59.5045,105.49 C61.1985,105.49 62.5405,106.1225 63.5305,107.3875 C64.5205,108.6525 65.0155,110.352 65.0155,112.486 C65.0155,114.62 64.5205,116.314 63.5305,117.568 C62.5405,118.822 61.1985,119.449 59.5045,119.449 Z M74.0905,121 L74.0905,106.018 C74.2885,105.93 74.745,105.831 75.46,105.721 C76.175,105.611 77.0495,105.556 78.0835,105.556 C79.0075,105.556 79.75,105.6935 80.311,105.9685 C80.872,106.2435 81.3065,106.6505 81.6145,107.1895 C81.9225,107.7285 82.126,108.4105 82.225,109.2355 C82.324,110.0605 82.3735,111.034 82.3735,112.156 L82.3735,112.156 L82.3735,121 L84.5185,121 L84.5185,111.298 C84.5185,110.506 84.469,109.7525 84.37,109.0375 C84.271,108.3225 84.1225,107.679 83.9245,107.107 C84.0345,107.019 84.216,106.887 84.469,106.711 C84.722,106.535 85.0465,106.359 85.4425,106.183 C85.8385,106.007 86.306,105.8585 86.845,105.7375 C87.384,105.6165 87.9835,105.556 88.6435,105.556 C89.5235,105.556 90.2385,105.6935 90.7885,105.9685 C91.3385,106.2435 91.762,106.6505 92.059,107.1895 C92.356,107.7285 92.554,108.4105 92.653,109.2355 C92.752,110.0605 92.8015,111.034 92.8015,112.156 L92.8015,112.156 L92.8015,121 L94.9465,121 L94.9465,111.463 C94.9465,110.319 94.8695,109.263 94.7155,108.295 C94.5615,107.327 94.2645,106.4965 93.8245,105.8035 C93.3845,105.1105 92.763,104.5715 91.96,104.1865 C91.157,103.8015 90.1065,103.609 88.8085,103.609 C88.0165,103.609 87.296,103.686 86.647,103.84 C85.998,103.994 85.4315,104.181 84.9475,104.401 C84.4635,104.621 84.062,104.8355 83.743,105.0445 C83.424,105.2535 83.2095,105.402 83.0995,105.49 C82.1315,104.236 80.5695,103.609 78.4135,103.609 C76.7855,103.609 75.46,103.719 74.437,103.939 C73.414,104.159 72.5835,104.357 71.9455,104.533 L71.9455,104.533 L71.9455,121 L74.0905,121 Z M102.5695,121 L102.5695,106.018 C102.7675,105.93 103.224,105.831 103.939,105.721 C104.654,105.611 105.5285,105.556 106.5625,105.556 C107.4865,105.556 108.229,105.6935 108.79,105.9685 C109.351,106.2435 109.7855,106.6505 110.0935,107.1895 C110.4015,107.7285 110.605,108.4105 110.704,109.2355 C110.803,110.0605 110.8525,111.034 110.8525,112.156 L110.8525,112.156 L110.8525,121 L112.9975,121 L112.9975,111.298 C112.9975,110.506 112.948,109.7525 112.849,109.0375 C112.75,108.3225 112.6015,107.679 112.4035,107.107 C112.5135,107.019 112.695,106.887 112.948,106.711 C113.201,106.535 113.5255,106.359 113.9215,106.183 C114.3175,106.007 114.785,105.8585 115.324,105.7375 C115.863,105.6165 116.4625,105.556 117.1225,105.556 C118.0025,105.556 118.7175,105.6935 119.2675,105.9685 C119.8175,106.2435 120.241,106.6505 120.538,107.1895 C120.835,107.7285 121.033,108.4105 121.132,109.2355 C121.231,110.0605 121.2805,111.034 121.2805,112.156 L121.2805,112.156 L121.2805,121 L123.4255,121 L123.4255,111.463 C123.4255,110.319 123.3485,109.263 123.1945,108.295 C123.0405,107.327 122.7435,106.4965 122.3035,105.8035 C121.8635,105.1105 121.242,104.5715 120.439,104.1865 C119.636,103.8015 118.5855,103.609 117.2875,103.609 C116.4955,103.609 115.775,103.686 115.126,103.84 C114.477,103.994 113.9105,104.181 113.4265,104.401 C112.9425,104.621 112.541,104.8355 112.222,105.0445 C111.903,105.2535 111.6885,105.402 111.5785,105.49 C110.6105,104.236 109.0485,103.609 106.8925,103.609 C105.2645,103.609 103.939,103.719 102.916,103.939 C101.893,104.159 101.0625,104.357 100.4245,104.533 L100.4245,104.533 L100.4245,121 L102.5695,121 Z M129.9595,100.441 C130.3995,100.441 130.7735,100.2925 131.0815,99.9955 C131.3895,99.6985 131.5435,99.297 131.5435,98.791 C131.5435,98.285 131.3895,97.8835 131.0815,97.5865 C130.7735,97.2895 130.3995,97.141 129.9595,97.141 C129.5195,97.141 129.1455,97.2895 128.8375,97.5865 C128.5295,97.8835 128.3755,98.285 128.3755,98.791 C128.3755,99.297 128.5295,99.6985 128.8375,99.9955 C129.1455,100.2925 129.5195,100.441 129.9595,100.441 Z M131.0485,121 L131.0485,103.939 L128.9035,103.939 L128.9035,121 L131.0485,121 Z M142.1365,121.363 C143.0385,121.363 143.8745,121.2365 144.6445,120.9835 C145.4145,120.7305 145.9535,120.505 146.2615,120.307 L146.2615,120.307 L145.7335,118.525 C145.4255,118.701 144.9965,118.8935 144.4465,119.1025 C143.8965,119.3115 143.1705,119.416 142.2685,119.416 C141.7405,119.416 141.2565,119.361 140.8165,119.251 C140.3765,119.141 140.0025,118.921 139.6945,118.591 C139.3865,118.261 139.15,117.7935 138.985,117.1885 C138.82,116.5835 138.7375,115.797 138.7375,114.829 L138.7375,114.829 L138.7375,105.754 L145.5355,105.754 L145.5355,103.939 L138.7375,103.939 L138.7375,98.527 L136.5925,98.923 L136.5925,114.631 C136.5925,115.775 136.6805,116.765 136.8565,117.601 C137.0325,118.437 137.335,119.1355 137.764,119.6965 C138.193,120.2575 138.765,120.6755 139.48,120.9505 C140.195,121.2255 141.0805,121.363 142.1365,121.363 Z M154.9075,121.363 C155.8095,121.363 156.6455,121.2365 157.4155,120.9835 C158.1855,120.7305 158.7245,120.505 159.0325,120.307 L159.0325,120.307 L158.5045,118.525 C158.1965,118.701 157.7675,118.8935 157.2175,119.1025 C156.6675,119.3115 155.9415,119.416 155.0395,119.416 C154.5115,119.416 154.0275,119.361 153.5875,119.251 C153.1475,119.141 152.7735,118.921 152.4655,118.591 C152.1575,118.261 151.921,117.7935 151.756,117.1885 C151.591,116.5835 151.5085,115.797 151.5085,114.829 L151.5085,114.829 L151.5085,105.754 L158.3065,105.754 L158.3065,103.939 L151.5085,103.939 L151.5085,98.527 L149.3635,98.923 L149.3635,114.631 C149.3635,115.775 149.4515,116.765 149.6275,117.601 C149.8035,118.437 150.106,119.1355 150.535,119.6965 C150.964,120.2575 151.536,120.6755 152.251,120.9505 C152.966,121.2255 153.8515,121.363 154.9075,121.363 Z M169.6255,121.363 C170.7695,121.363 171.765,121.242 172.612,121 C173.459,120.758 174.0365,120.549 174.3445,120.373 L174.3445,120.373 L173.9485,118.525 C173.6405,118.679 173.1455,118.866 172.4635,119.086 C171.7815,119.306 170.8575,119.416 169.6915,119.416 C167.5795,119.416 166.0395,118.855 165.0715,117.733 C164.1035,116.611 163.5865,115.005 163.5205,112.915 L163.5205,112.915 L175.4995,112.915 C175.5215,112.761 175.538,112.596 175.549,112.42 C175.56,112.244 175.5655,112.068 175.5655,111.892 C175.5655,109.054 174.944,106.953 173.701,105.589 C172.458,104.225 170.7915,103.543 168.7015,103.543 C167.7555,103.543 166.837,103.7245 165.946,104.0875 C165.055,104.4505 164.263,105.006 163.57,105.754 C162.877,106.502 162.316,107.4315 161.887,108.5425 C161.458,109.6535 161.2435,110.957 161.2435,112.453 C161.2435,113.751 161.3975,114.9445 161.7055,116.0335 C162.0135,117.1225 162.5085,118.063 163.1905,118.855 C163.8725,119.647 164.7415,120.263 165.7975,120.703 C166.8535,121.143 168.1295,121.363 169.6255,121.363 Z M173.3545,111.1 L163.5865,111.1 C163.6305,110.352 163.779,109.637 164.032,108.955 C164.285,108.273 164.637,107.6735 165.088,107.1565 C165.539,106.6395 166.067,106.227 166.672,105.919 C167.277,105.611 167.9645,105.457 168.7345,105.457 C170.1865,105.457 171.3085,105.952 172.1005,106.942 C172.8925,107.932 173.3105,109.318 173.3545,111.1 L173.3545,111.1 Z M187.7095,121.396 C189.2275,121.396 190.4815,121.297 191.4715,121.099 C192.4615,120.901 193.2755,120.692 193.9135,120.472 L193.9135,120.472 L193.9135,95.392 L191.7685,95.788 L191.7685,104.962 C191.3945,104.676 190.795,104.3735 189.97,104.0545 C189.145,103.7355 188.1715,103.576 187.0495,103.576 C185.8175,103.576 184.723,103.796 183.766,104.236 C182.809,104.676 182.0005,105.292 181.3405,106.084 C180.6805,106.876 180.18,107.8165 179.839,108.9055 C179.498,109.9945 179.3275,111.188 179.3275,112.486 C179.3275,113.872 179.531,115.115 179.938,116.215 C180.345,117.315 180.917,118.25 181.654,119.02 C182.391,119.79 183.271,120.3785 184.294,120.7855 C185.317,121.1925 186.4555,121.396 187.7095,121.396 Z M187.7425,119.449 C185.8945,119.449 184.4095,118.8495 183.2875,117.6505 C182.1655,116.4515 181.6045,114.73 181.6045,112.486 C181.6045,111.54 181.7035,110.6435 181.9015,109.7965 C182.0995,108.9495 182.4185,108.2125 182.8585,107.5855 C183.2985,106.9585 183.876,106.458 184.591,106.084 C185.306,105.71 186.1915,105.523 187.2475,105.523 C187.7535,105.523 188.2375,105.5725 188.6995,105.6715 C189.1615,105.7705 189.5905,105.897 189.9865,106.051 C190.3825,106.205 190.729,106.37 191.026,106.546 C191.323,106.722 191.5705,106.887 191.7685,107.041 L191.7685,107.041 L191.7685,118.987 C191.4385,119.097 190.949,119.2015 190.3,119.3005 C189.651,119.3995 188.7985,119.449 187.7425,119.449 Z M214.4395,121 L214.4395,100.078 L221.7655,100.078 L221.7655,98.131 L204.8695,98.131 L204.8695,100.078 L212.1955,100.078 L212.1955,121 L214.4395,121 Z M231.9625,121.396 C233.1065,121.396 234.1515,121.1815 235.0975,120.7525 C236.0435,120.3235 236.863,119.724 237.556,118.954 C238.249,118.184 238.788,117.249 239.173,116.149 C239.558,115.049 239.7505,113.828 239.7505,112.486 C239.7505,111.144 239.558,109.923 239.173,108.823 C238.788,107.723 238.249,106.7825 237.556,106.0015 C236.863,105.2205 236.0435,104.6155 235.0975,104.1865 C234.1515,103.7575 233.1065,103.543 231.9625,103.543 C230.8185,103.543 229.7735,103.7575 228.8275,104.1865 C227.8815,104.6155 227.062,105.2205 226.369,106.0015 C225.676,106.7825 225.137,107.723 224.752,108.823 C224.367,109.923 224.1745,111.144 224.1745,112.486 C224.1745,113.828 224.367,115.049 224.752,116.149 C225.137,117.249 225.676,118.184 226.369,118.954 C227.062,119.724 227.8815,120.3235 228.8275,120.7525 C229.7735,121.1815 230.8185,121.396 231.9625,121.396 Z M231.9625,119.449 C230.2685,119.449 228.9265,118.822 227.9365,117.568 C226.9465,116.314 226.4515,114.62 226.4515,112.486 C226.4515,110.352 226.9465,108.6525 227.9365,107.3875 C228.9265,106.1225 230.2685,105.49 231.9625,105.49 C233.6565,105.49 234.9985,106.1225 235.9885,107.3875 C236.9785,108.6525 237.4735,110.352 237.4735,112.486 C237.4735,114.62 236.9785,116.314 235.9885,117.568 C234.9985,118.822 233.6565,119.449 231.9625,119.449 Z M253.7095,121 C253.8415,117.458 253.99,114.0755 254.155,110.8525 C254.32,107.6295 254.5455,104.643 254.8315,101.893 C255.0075,102.201 255.2825,102.729 255.6565,103.477 C256.0305,104.225 256.4595,105.094 256.9435,106.084 C257.4275,107.074 257.9335,108.1355 258.4615,109.2685 C258.9895,110.4015 259.5065,111.5015 260.0125,112.5685 C260.5185,113.6355 260.975,114.62 261.382,115.522 C261.789,116.424 262.1025,117.15 262.3225,117.7 L262.3225,117.7 L264.3355,117.7 C264.5555,117.15 264.869,116.424 265.276,115.522 C265.683,114.62 266.1395,113.6355 266.6455,112.5685 C267.1515,111.5015 267.6685,110.4015 268.1965,109.2685 C268.7245,108.1355 269.2305,107.074 269.7145,106.084 C270.1985,105.094 270.6275,104.225 271.0015,103.477 C271.3755,102.729 271.6505,102.201 271.8265,101.893 C272.1125,104.643 272.338,107.6295 272.503,110.8525 C272.668,114.0755 272.8165,117.458 272.9485,121 L272.9485,121 L275.2255,121 C275.0275,116.842 274.802,112.86 274.549,109.054 C274.296,105.248 273.9825,101.607 273.6085,98.131 L273.6085,98.131 L271.7275,98.131 C271.0675,99.231 270.3635,100.5015 269.6155,101.9425 C268.8675,103.3835 268.125,104.8795 267.388,106.4305 C266.651,107.9815 265.936,109.5105 265.243,111.0175 C264.55,112.5245 263.9395,113.883 263.4115,115.093 C262.8835,113.883 262.273,112.5245 261.58,111.0175 C260.887,109.5105 260.172,107.9815 259.435,106.4305 C258.698,104.8795 257.9555,103.3835 257.2075,101.9425 C256.4595,100.5015 255.7555,99.231 255.0955,98.131 L255.0955,98.131 L253.1155,98.131 C252.7415,101.607 252.428,105.248 252.175,109.054 C251.922,112.86 251.6965,116.842 251.4985,121 L251.4985,121 L253.7095,121 Z M285.4885,121.363 C286.1925,121.363 286.88,121.3355 287.551,121.2805 C288.222,121.2255 288.8325,121.154 289.3825,121.066 C289.9325,120.978 290.4165,120.8955 290.8345,120.8185 C291.2525,120.7415 291.5715,120.67 291.7915,120.604 L291.7915,120.604 L291.7915,109.846 C291.7915,108.944 291.6815,108.108 291.4615,107.338 C291.2415,106.568 290.8895,105.9025 290.4055,105.3415 C289.9215,104.7805 289.289,104.3405 288.508,104.0215 C287.727,103.7025 286.7755,103.543 285.6535,103.543 C284.5535,103.543 283.613,103.62 282.832,103.774 C282.051,103.928 281.4735,104.093 281.0995,104.269 L281.0995,104.269 L281.3965,106.15 C281.6825,106.04 282.1335,105.897 282.7495,105.721 C283.3655,105.545 284.3005,105.457 285.5545,105.457 C286.4345,105.457 287.144,105.5945 287.683,105.8695 C288.222,106.1445 288.64,106.5075 288.937,106.9585 C289.234,107.4095 289.4265,107.9155 289.5145,108.4765 C289.6025,109.0375 289.6465,109.615 289.6465,110.209 L289.6465,110.209 L289.6465,111.265 C289.5585,111.221 289.399,111.1715 289.168,111.1165 C288.937,111.0615 288.662,111.0065 288.343,110.9515 C288.024,110.8965 287.694,110.8525 287.353,110.8195 C287.012,110.7865 286.6875,110.77 286.3795,110.77 C285.3455,110.77 284.3885,110.869 283.5085,111.067 C282.6285,111.265 281.8695,111.5785 281.2315,112.0075 C280.5935,112.4365 280.0985,112.981 279.7465,113.641 C279.3945,114.301 279.2185,115.093 279.2185,116.017 C279.2185,116.985 279.378,117.8045 279.697,118.4755 C280.016,119.1465 280.456,119.6965 281.017,120.1255 C281.578,120.5545 282.238,120.868 282.997,121.066 C283.756,121.264 284.5865,121.363 285.4885,121.363 Z M285.8515,119.449 C285.1695,119.449 284.559,119.3885 284.02,119.2675 C283.481,119.1465 283.019,118.954 282.634,118.69 C282.249,118.426 281.952,118.074 281.743,117.634 C281.534,117.194 281.4295,116.655 281.4295,116.017 C281.4295,115.291 281.5835,114.708 281.8915,114.268 C282.1995,113.828 282.5955,113.4815 283.0795,113.2285 C283.5635,112.9755 284.0915,112.8105 284.6635,112.7335 C285.2355,112.6565 285.7855,112.618 286.3135,112.618 C287.2375,112.618 287.9635,112.6785 288.4915,112.7995 C289.0195,112.9205 289.4045,113.036 289.6465,113.146 L289.6465,113.146 L289.6465,119.152 C289.2065,119.24 288.673,119.3115 288.046,119.3665 C287.419,119.4215 286.6875,119.449 285.8515,119.449 Z M298.3255,100.441 C298.7655,100.441 299.1395,100.2925 299.4475,99.9955 C299.7555,99.6985 299.9095,99.297 299.9095,98.791 C299.9095,98.285 299.7555,97.8835 299.4475,97.5865 C299.1395,97.2895 298.7655,97.141 298.3255,97.141 C297.8855,97.141 297.5115,97.2895 297.2035,97.5865 C296.8955,97.8835 296.7415,98.285 296.7415,98.791 C296.7415,99.297 296.8955,99.6985 297.2035,99.9955 C297.5115,100.2925 297.8855,100.441 298.3255,100.441 Z M299.4145,121 L299.4145,103.939 L297.2695,103.939 L297.2695,121 L299.4145,121 Z M307.2355,121 L307.2355,106.018 C307.4555,105.93 307.934,105.831 308.671,105.721 C309.408,105.611 310.2825,105.556 311.2945,105.556 C312.2405,105.556 313.027,105.6715 313.654,105.9025 C314.281,106.1335 314.787,106.513 315.172,107.041 C315.557,107.569 315.832,108.251 315.997,109.087 C316.162,109.923 316.2445,110.946 316.2445,112.156 L316.2445,112.156 L316.2445,121 L318.3895,121 L318.3895,111.463 C318.3895,110.297 318.2795,109.23 318.0595,108.262 C317.8395,107.294 317.471,106.4635 316.954,105.7705 C316.437,105.0775 315.744,104.544 314.875,104.17 C314.006,103.796 312.9225,103.609 311.6245,103.609 C310.0625,103.609 308.7425,103.719 307.6645,103.939 C306.5865,104.159 305.7285,104.357 305.0905,104.533 L305.0905,104.533 L305.0905,121 L307.2355,121 Z M329.2795,121.363 C330.1815,121.363 331.0175,121.2365 331.7875,120.9835 C332.5575,120.7305 333.0965,120.505 333.4045,120.307 L333.4045,120.307 L332.8765,118.525 C332.5685,118.701 332.1395,118.8935 331.5895,119.1025 C331.0395,119.3115 330.3135,119.416 329.4115,119.416 C328.8835,119.416 328.3995,119.361 327.9595,119.251 C327.5195,119.141 327.1455,118.921 326.8375,118.591 C326.5295,118.261 326.293,117.7935 326.128,117.1885 C325.963,116.5835 325.8805,115.797 325.8805,114.829 L325.8805,114.829 L325.8805,105.754 L332.6785,105.754 L332.6785,103.939 L325.8805,103.939 L325.8805,98.527 L323.7355,98.923 L323.7355,114.631 C323.7355,115.775 323.8235,116.765 323.9995,117.601 C324.1755,118.437 324.478,119.1355 324.907,119.6965 C325.336,120.2575 325.908,120.6755 326.623,120.9505 C327.338,121.2255 328.2235,121.363 329.2795,121.363 Z M341.6545,121.363 C342.3585,121.363 343.046,121.3355 343.717,121.2805 C344.388,121.2255 344.9985,121.154 345.5485,121.066 C346.0985,120.978 346.5825,120.8955 347.0005,120.8185 C347.4185,120.7415 347.7375,120.67 347.9575,120.604 L347.9575,120.604 L347.9575,109.846 C347.9575,108.944 347.8475,108.108 347.6275,107.338 C347.4075,106.568 347.0555,105.9025 346.5715,105.3415 C346.0875,104.7805 345.455,104.3405 344.674,104.0215 C343.893,103.7025 342.9415,103.543 341.8195,103.543 C340.7195,103.543 339.779,103.62 338.998,103.774 C338.217,103.928 337.6395,104.093 337.2655,104.269 L337.2655,104.269 L337.5625,106.15 C337.8485,106.04 338.2995,105.897 338.9155,105.721 C339.5315,105.545 340.4665,105.457 341.7205,105.457 C342.6005,105.457 343.31,105.5945 343.849,105.8695 C344.388,106.1445 344.806,106.5075 345.103,106.9585 C345.4,107.4095 345.5925,107.9155 345.6805,108.4765 C345.7685,109.0375 345.8125,109.615 345.8125,110.209 L345.8125,110.209 L345.8125,111.265 C345.7245,111.221 345.565,111.1715 345.334,111.1165 C345.103,111.0615 344.828,111.0065 344.509,110.9515 C344.19,110.8965 343.86,110.8525 343.519,110.8195 C343.178,110.7865 342.8535,110.77 342.5455,110.77 C341.5115,110.77 340.5545,110.869 339.6745,111.067 C338.7945,111.265 338.0355,111.5785 337.3975,112.0075 C336.7595,112.4365 336.2645,112.981 335.9125,113.641 C335.5605,114.301 335.3845,115.093 335.3845,116.017 C335.3845,116.985 335.544,117.8045 335.863,118.4755 C336.182,119.1465 336.622,119.6965 337.183,120.1255 C337.744,120.5545 338.404,120.868 339.163,121.066 C339.922,121.264 340.7525,121.363 341.6545,121.363 Z M342.0175,119.449 C341.3355,119.449 340.725,119.3885 340.186,119.2675 C339.647,119.1465 339.185,118.954 338.8,118.69 C338.415,118.426 338.118,118.074 337.909,117.634 C337.7,117.194 337.5955,116.655 337.5955,116.017 C337.5955,115.291 337.7495,114.708 338.0575,114.268 C338.3655,113.828 338.7615,113.4815 339.2455,113.2285 C339.7295,112.9755 340.2575,112.8105 340.8295,112.7335 C341.4015,112.6565 341.9515,112.618 342.4795,112.618 C343.4035,112.618 344.1295,112.6785 344.6575,112.7995 C345.1855,112.9205 345.5705,113.036 345.8125,113.146 L345.8125,113.146 L345.8125,119.152 C345.3725,119.24 344.839,119.3115 344.212,119.3665 C343.585,119.4215 342.8535,119.449 342.0175,119.449 Z M354.4915,100.441 C354.9315,100.441 355.3055,100.2925 355.6135,99.9955 C355.9215,99.6985 356.0755,99.297 356.0755,98.791 C356.0755,98.285 355.9215,97.8835 355.6135,97.5865 C355.3055,97.2895 354.9315,97.141 354.4915,97.141 C354.0515,97.141 353.6775,97.2895 353.3695,97.5865 C353.0615,97.8835 352.9075,98.285 352.9075,98.791 C352.9075,99.297 353.0615,99.6985 353.3695,99.9955 C353.6775,100.2925 354.0515,100.441 354.4915,100.441 Z M355.5805,121 L355.5805,103.939 L353.4355,103.939 L353.4355,121 L355.5805,121 Z M363.4015,121 L363.4015,106.018 C363.6215,105.93 364.1,105.831 364.837,105.721 C365.574,105.611 366.4485,105.556 367.4605,105.556 C368.4065,105.556 369.193,105.6715 369.82,105.9025 C370.447,106.1335 370.953,106.513 371.338,107.041 C371.723,107.569 371.998,108.251 372.163,109.087 C372.328,109.923 372.4105,110.946 372.4105,112.156 L372.4105,112.156 L372.4105,121 L374.5555,121 L374.5555,111.463 C374.5555,110.297 374.4455,109.23 374.2255,108.262 C374.0055,107.294 373.637,106.4635 373.12,105.7705 C372.603,105.0775 371.91,104.544 371.041,104.17 C370.172,103.796 369.0885,103.609 367.7905,103.609 C366.2285,103.609 364.9085,103.719 363.8305,103.939 C362.7525,104.159 361.8945,104.357 361.2565,104.533 L361.2565,104.533 L361.2565,121 L363.4015,121 Z M390.2305,121 L391.4515,114.763 L397.5565,114.763 L396.3355,121 L398.3485,121 L399.5695,114.763 L404.7175,114.763 L404.7175,112.981 L399.8995,112.981 L401.1865,106.15 L404.7175,106.15 L404.7175,104.401 L401.5495,104.401 L402.7375,98.131 L400.7245,98.131 L399.5365,104.401 L393.4315,104.401 L394.6195,98.131 L392.6065,98.131 L391.4185,104.401 L386.2705,104.401 L386.2705,106.15 L391.0555,106.15 L389.7685,112.981 L386.2705,112.981 L386.2705,114.763 L389.4385,114.763 L388.2175,121 L390.2305,121 Z M397.8865,112.981 L391.7815,112.981 L393.1015,106.15 L399.2065,106.15 L397.8865,112.981 Z" id="#CommittedToMaintain#" fill="#FFFFFF"></path>
                <g id="UBport-•-er" transform="translate(7.422667, 0.312000)">
                    <path d="M24.728,62.92 C29.0693333,62.92 32.824,62.3333333 35.992,61.16 C39.16,59.9866667 41.7706667,58.3293333 43.824,56.188 C45.8773333,54.0466667 47.4026667,51.48 48.4,48.488 C49.3973333,45.496 49.896,42.2106667 49.896,38.632 L49.896,38.632 L49.896,0.704 L36.168,0.704 L36.168,37.488 C36.168,42.416 35.1266667,45.9066667 33.044,47.96 C30.9613333,50.0133333 28.248,51.04 24.904,51.04 C23.2613333,51.04 21.7506667,50.8053333 20.372,50.336 C18.9933333,49.8666667 17.82,49.0893333 16.852,48.004 C15.884,46.9186667 15.1213333,45.5106667 14.564,43.78 C14.0066667,42.0493333 13.728,39.952 13.728,37.488 L13.728,37.488 L13.728,0.704 L5.68434189e-14,0.704 L5.68434189e-14,38.632 C5.68434189e-14,42.2106667 0.484,45.4813333 1.452,48.444 C2.42,51.4066667 3.916,53.9586667 5.94,56.1 C7.964,58.2413333 10.5306667,59.9133333 13.64,61.116 C16.7493333,62.3186667 20.4453333,62.92 24.728,62.92 Z M77.5573333,62.48 C86.768,62.48 93.7053333,60.8666667 98.3693333,57.64 C103.033333,54.4133333 105.365333,49.6026667 105.365333,43.208 C105.365333,40.04 104.661333,37.1946667 103.253333,34.672 C101.845333,32.1493333 99.2053333,30.1546667 95.3333333,28.688 C100.026667,25.872 102.373333,22.0293333 102.373333,17.16 C102.373333,13.9333333 101.713333,11.22 100.393333,9.02 C99.0733333,6.82 97.24,5.04533333 94.8933333,3.696 C92.5466667,2.34666667 89.7453333,1.39333333 86.4893333,0.836 C83.2333333,0.278666667 79.6693333,1.56319402e-13 75.7973333,1.56319402e-13 C72.9226667,1.56319402e-13 69.8133333,0.132 66.4693333,0.396 C63.1253333,0.66 60.0453333,1.056 57.2293333,1.584 L57.2293333,1.584 L57.2293333,60.72 C60.808,61.4826667 64.2546667,61.9666667 67.5693333,62.172 C70.884,62.3773333 74.2133333,62.48 77.5573333,62.48 Z M77.2933333,24.64 L70.6053333,24.64 L70.6053333,11.352 C71.6613333,11.2346667 72.864,11.1613333 74.2133333,11.132 C75.5626667,11.1026667 76.824,11.088 77.9973333,11.088 C81.6346667,11.088 84.392,11.5866667 86.2693333,12.584 C88.1466667,13.5813333 89.0853333,15.312 89.0853333,17.776 C89.0853333,20.1813333 88.176,21.9266667 86.3573333,23.012 C84.5386667,24.0973333 81.5173333,24.64 77.2933333,24.64 L77.2933333,24.64 Z M77.7333333,51.216 C76.3253333,51.216 75.0346667,51.1866667 73.8613333,51.128 C72.688,51.0693333 71.6026667,50.9813333 70.6053333,50.864 L70.6053333,50.864 L70.6053333,35.112 L79.2293333,35.112 C83.16,35.112 86.1813333,35.7133333 88.2933333,36.916 C90.4053333,38.1186667 91.4613333,40.128 91.4613333,42.944 C91.4613333,46.112 90.2,48.2826667 87.6773333,49.456 C85.1546667,50.6293333 81.84,51.216 77.7333333,51.216 Z M122.730667,77.968 L122.730667,60.544 C124.197333,61.1893333 125.722667,61.688 127.306667,62.04 C128.890667,62.392 130.592,62.568 132.410667,62.568 C135.696,62.568 138.6,61.9813333 141.122667,60.808 C143.645333,59.6346667 145.757333,57.992 147.458667,55.88 C149.16,53.768 150.450667,51.2453333 151.330667,48.312 C152.210667,45.3786667 152.650667,42.1226667 152.650667,38.544 C152.650667,34.848 152.108,31.504 151.022667,28.512 C149.937333,25.52 148.368,22.9826667 146.314667,20.9 C144.261333,18.8173333 141.738667,17.204 138.746667,16.06 C135.754667,14.916 132.352,14.344 128.538667,14.344 C126.954667,14.344 125.297333,14.4173333 123.566667,14.564 C121.836,14.7106667 120.134667,14.9013333 118.462667,15.136 C116.790667,15.3706667 115.192,15.6493333 113.666667,15.972 C112.141333,16.2946667 110.792,16.632 109.618667,16.984 L109.618667,16.984 L109.618667,77.968 L122.730667,77.968 Z M129.946667,51.48 C128.597333,51.48 127.262667,51.304 125.942667,50.952 C124.622667,50.6 123.552,50.16 122.730667,49.632 L122.730667,49.632 L122.730667,25.96 C123.376,25.8426667 124.197333,25.74 125.194667,25.652 C126.192,25.564 127.277333,25.52 128.450667,25.52 C132.029333,25.52 134.728,26.7373333 136.546667,29.172 C138.365333,31.6066667 139.274667,34.848 139.274667,38.896 C139.274667,47.2853333 136.165333,51.48 129.946667,51.48 Z M177.496,62.92 C180.957333,62.92 184.081333,62.3333333 186.868,61.16 C189.654667,59.9866667 192.045333,58.3293333 194.04,56.188 C196.034667,54.0466667 197.56,51.4653333 198.616,48.444 C199.672,45.4226667 200.2,42.0933333 200.2,38.456 C200.2,34.8186667 199.642667,31.504 198.528,28.512 C197.413333,25.52 195.858667,22.968 193.864,20.856 C191.869333,18.744 189.478667,17.1013333 186.692,15.928 C183.905333,14.7546667 180.84,14.168 177.496,14.168 C174.210667,14.168 171.174667,14.7546667 168.388,15.928 C165.601333,17.1013333 163.196,18.744 161.172,20.856 C159.148,22.968 157.564,25.52 156.42,28.512 C155.276,31.504 154.704,34.8186667 154.704,38.456 C154.704,42.0933333 155.261333,45.4226667 156.376,48.444 C157.490667,51.4653333 159.045333,54.0466667 161.04,56.188 C163.034667,58.3293333 165.425333,59.9866667 168.212,61.16 C170.998667,62.3333333 174.093333,62.92 177.496,62.92 Z M177.496,51.656 C174.504,51.656 172.186667,50.468 170.544,48.092 C168.901333,45.716 168.08,42.504 168.08,38.456 C168.08,34.408 168.901333,31.2253333 170.544,28.908 C172.186667,26.5906667 174.504,25.432 177.496,25.432 C180.488,25.432 182.790667,26.5906667 184.404,28.908 C186.017333,31.2253333 186.824,34.408 186.824,38.456 C186.824,42.504 186.017333,45.716 184.404,48.092 C182.790667,50.468 180.488,51.656 177.496,51.656 Z M217.565333,61.688 L217.565333,26.312 C218.152,26.136 219.017333,25.9746667 220.161333,25.828 C221.305333,25.6813333 222.288,25.608 223.109333,25.608 C224.928,25.608 226.629333,25.7693333 228.213333,26.092 C229.797333,26.4146667 231.176,26.7226667 232.349333,27.016 L232.349333,27.016 L234.549333,16.192 C233.845333,15.8986667 232.994667,15.6493333 231.997333,15.444 C231,15.2386667 230.002667,15.0626667 229.005333,14.916 C228.008,14.7693333 227.010667,14.652 226.013333,14.564 C225.016,14.476 224.165333,14.432 223.461333,14.432 C219.530667,14.432 215.966667,14.7986667 212.769333,15.532 C209.572,16.2653333 206.8,17.0426667 204.453333,17.864 L204.453333,17.864 L204.453333,61.688 L217.565333,61.688 Z M253.586667,62.744 C256.402667,62.744 258.778667,62.5093333 260.714667,62.04 C262.650667,61.5706667 264.410667,61.0133333 265.994667,60.368 L265.994667,60.368 L264.146667,50.16 C262.914667,50.6293333 261.550667,50.996 260.054667,51.26 C258.558667,51.524 257.106667,51.656 255.698667,51.656 C252.765333,51.656 250.814667,50.8346667 249.846667,49.192 C248.878667,47.5493333 248.394667,45.3493333 248.394667,42.592 L248.394667,42.592 L248.394667,26.312 L264.146667,26.312 L264.146667,15.4 L248.394667,15.4 L248.394667,1.76 L235.282667,3.872 L235.282667,42.768 C235.282667,45.76 235.561333,48.488 236.118667,50.952 C236.676,53.416 237.658667,55.5133333 239.066667,57.244 C240.474667,58.9746667 242.352,60.324 244.698667,61.292 C247.045333,62.26 250.008,62.744 253.586667,62.744 Z" id="UBport" fill="#FFFFFF"></path>
                    <path d="M288.577333,49.45 C289.853333,49.45 291.003667,49.2276667 292.028333,48.783 C293.053,48.3383333 293.932667,47.739 294.667333,46.985 C295.402,46.231 295.962667,45.361 296.349333,44.375 C296.736,43.389 296.929333,42.3353333 296.929333,41.214 C296.929333,40.1313333 296.736,39.0873333 296.349333,38.082 C295.962667,37.0766667 295.402,36.197 294.667333,35.443 C293.932667,34.689 293.053,34.0896667 292.028333,33.645 C291.003667,33.2003333 289.853333,32.978 288.577333,32.978 C287.301333,32.978 286.151,33.2003333 285.126333,33.645 C284.101667,34.0896667 283.222,34.689 282.487333,35.443 C281.752667,36.197 281.192,37.0766667 280.805333,38.082 C280.418667,39.0873333 280.225333,40.1313333 280.225333,41.214 C280.225333,42.3353333 280.418667,43.389 280.805333,44.375 C281.192,45.361 281.752667,46.231 282.487333,46.985 C283.222,47.739 284.101667,48.3383333 285.126333,48.783 C286.151,49.2276667 287.301333,49.45 288.577333,49.45 Z M338.944,62.92 C340.586667,62.92 342.229333,62.832 343.872,62.656 C345.514667,62.48 347.054667,62.26 348.492,61.996 C349.929333,61.732 351.234667,61.424 352.408,61.072 C353.581333,60.72 354.52,60.368 355.224,60.016 L355.224,60.016 L353.464,49.368 C351.997333,50.0133333 350.105333,50.556 347.788,50.996 C345.470667,51.436 343.109333,51.656 340.704,51.656 C336.949333,51.656 333.957333,50.864 331.728,49.28 C329.498667,47.696 328.237333,45.5546667 327.944,42.856 L327.944,42.856 L357.688,42.856 C357.746667,42.152 357.805333,41.3453333 357.864,40.436 C357.922667,39.5266667 357.952,38.6906667 357.952,37.928 C357.952,30.1253333 356.045333,24.2146667 352.232,20.196 C348.418667,16.1773333 343.226667,14.168 336.656,14.168 C333.84,14.168 331.097333,14.696 328.428,15.752 C325.758667,16.808 323.397333,18.3626667 321.344,20.416 C319.290667,22.4693333 317.633333,25.036 316.372,28.116 C315.110667,31.196 314.48,34.7893333 314.48,38.896 C314.48,42.2986667 314.964,45.4666667 315.932,48.4 C316.9,51.3333333 318.396,53.8706667 320.42,56.012 C322.444,58.1533333 324.996,59.84 328.076,61.072 C331.156,62.304 334.778667,62.92 338.944,62.92 Z M345.28,33.88 L327.944,33.88 C328.12,32.7653333 328.398667,31.6653333 328.78,30.58 C329.161333,29.4946667 329.704,28.5413333 330.408,27.72 C331.112,26.8986667 331.992,26.2386667 333.048,25.74 C334.104,25.2413333 335.365333,24.992 336.832,24.992 C338.357333,24.992 339.633333,25.256 340.66,25.784 C341.686667,26.312 342.537333,26.9866667 343.212,27.808 C343.886667,28.6293333 344.385333,29.568 344.708,30.624 C345.030667,31.68 345.221333,32.7653333 345.28,33.88 L345.28,33.88 Z M375.317333,61.688 L375.317333,26.312 C375.904,26.136 376.769333,25.9746667 377.913333,25.828 C379.057333,25.6813333 380.04,25.608 380.861333,25.608 C382.68,25.608 384.381333,25.7693333 385.965333,26.092 C387.549333,26.4146667 388.928,26.7226667 390.101333,27.016 L390.101333,27.016 L392.301333,16.192 C391.597333,15.8986667 390.746667,15.6493333 389.749333,15.444 C388.752,15.2386667 387.754667,15.0626667 386.757333,14.916 C385.76,14.7693333 384.762667,14.652 383.765333,14.564 C382.768,14.476 381.917333,14.432 381.213333,14.432 C377.282667,14.432 373.718667,14.7986667 370.521333,15.532 C367.324,16.2653333 364.552,17.0426667 362.205333,17.864 L362.205333,17.864 L362.205333,61.688 L375.317333,61.688 Z" id="•er" fill="#E95420"></path>
                </g>
            </g>
        </g>
    </g>
</svg>