<?xml version="1.0" encoding="UTF-8"?>
<svg width="153px" height="104px" viewBox="0 0 153 104" version="1.1" xmlns="http://www.w3.org/2000/svg" xmlns:xlink="http://www.w3.org/1999/xlink">
    <title>log</title>
    <defs>
        <linearGradient x1="-66.6470722%" y1="36.9966819%" x2="100%" y2="36.9966819%" id="linearGradient-1">
            <stop stop-color="#DFDFDF" stop-opacity="0" offset="0%"></stop>
            <stop stop-color="#000000" offset="100%"></stop>
        </linearGradient>
    </defs>
    <g id="Page-1" stroke="none" stroke-width="1" fill="none" fill-rule="evenodd">
        <g id="1" transform="translate(-1528.000000, -374.000000)">
            <g id="log" transform="translate(1528.233236, 374.000000)">
                <path d="M136.295667,81.2229302 C141.14123,81.2229302 145.069446,85.202031 145.069446,90.1114651 C145.069446,95.0204054 141.14123,99 136.295667,99 C131.450104,99 127.521888,95.0204054 127.521888,90.1114651 C127.521888,85.202031 131.450104,81.2229302 136.295667,81.2229302 Z M114.766764,15.0529728 C117.772758,15.0529728 120.690527,15.4267851 123.488387,16.1131775 C123.845188,16.2618135 124.961895,16.830186 125.297248,18.225686 C125.326981,18.3511131 125.369388,18.4543188 125.417156,18.5476484 C126.942332,23.2965951 131.349206,26.7399148 136.538896,26.7399148 C137.601985,26.7399148 138.629005,26.5863406 139.608256,26.3152403 C140.111286,26.2683286 141.073477,26.305858 141.914298,27.0554578 C147.570948,33.2270638 151.199393,41.3284696 151.735568,50.2777428 L151.735568,50.2777428 L140.627477,50.2777428 C139.737913,50.1399705 139.025775,49.4733304 138.81033,48.6012664 C138.794244,48.5029987 138.779134,48.404731 138.762074,48.3064633 C138.752813,48.2230098 138.737215,48.1415316 138.737215,48.0556091 L138.737215,48.0556091 L138.72113,48.0561029 C136.616885,36.5968062 126.679118,27.8919677 114.766764,27.8919677 M114.766764,77.2727171 C127.052491,77.2727171 137.23105,68.0113576 138.888319,56.0202302 C139.149095,55.0661941 140.002101,54.3620246 141.026684,54.3620246 C141.047643,54.3620246 141.067628,54.3649875 141.088588,54.3649875 L141.088588,54.3649875 L141.088588,54.3516547 L151.766764,54.3516547 C151.340748,63.6342479 147.581671,72.0294692 141.68033,78.3526741 C141.462448,78.5166182 140.537789,79.1323962 139.327495,78.9027757 C138.287315,78.594146 137.18913,78.42477 136.051464,78.42477 C130.646816,78.42477 126.100049,82.1633866 124.764485,87.2184939 C124.422307,88.4051133 123.509347,88.9557087 123.099417,89.1477998 C120.420489,89.7734539 117.633352,90.111712 114.766764,90.111712 M136.29518,6 C141.140743,6 145.068959,9.9795946 145.068959,14.8885349 C145.068959,19.7974752 141.140743,23.7770698 136.29518,23.7770698 C131.449617,23.7770698 127.521401,19.7974752 127.521401,14.8885349 C127.521401,9.9795946 131.449617,6 136.29518,6 Z" id="Combined-Shape" fill="#E95420"></path>
                <path d="M60.7667638,16 L60.7667638,23.124 L3.11970502,23.125 L3.11970502,84.875 L60.7667638,84.874 L60.7667638,92 L7.04708584,92 C3.59305383,92 0.766763848,89.058649 0.766763848,85.464 L0.766763848,22.536 C0.766763848,18.941351 3.59305383,16 7.04708584,16 L60.7667638,16 Z M47.1625398,87.25 L36.732288,87.25 L36.732288,87.2574622 C35.7041417,87.2903635 34.8844109,87.8032169 34.8844109,88.4375 C34.8844109,89.0717831 35.7041417,89.5853149 36.732288,89.6182162 L36.732288,89.625 L47.1625398,89.625 L47.1625398,89.6175378 C48.1867853,89.5822622 49.002058,89.0700871 49.002058,88.4375 C49.002058,87.8055913 48.1867853,87.293077 47.1625398,87.2574622 L47.1625398,87.25 Z M48.5034025,19.5625 L35.3301252,19.5625 L35.3301252,19.5703512 C35.0840748,19.5755854 34.8844109,19.8346763 34.8844109,20.1559229 C34.8844109,20.4778237 35.0840748,20.7369146 35.3301252,20.7421488 L35.3301252,20.75 L48.5034025,20.75 L48.5034025,20.7323347 C48.5190328,20.7342975 48.5331504,20.7447658 48.5487807,20.7447658 C48.7993689,20.7447658 49.002058,20.481095 49.002058,20.1559229 C49.002058,19.831405 48.7993689,19.5677342 48.5487807,19.5677342 C48.5331504,19.5677342 48.5190328,19.5782025 48.5034025,19.5801653 L48.5034025,19.5625 Z" id="Combined-Shape" fill="#FFFFFF" fill-rule="nonzero"></path>
                <path d="M106.542558,-4.40536496e-13 C109.965871,-4.40536496e-13 112.766764,2.86093164 112.766764,6.35762586 L112.766764,97.6423741 C112.766764,101.139068 109.965871,104 106.542558,104 L68.9909693,104 C65.5676563,104 62.7667638,101.139068 62.7667638,97.6423741 L62.7667638,6.35762586 C62.7667638,2.86093164 65.5676563,-4.40536496e-13 68.9909693,-4.40536496e-13 L106.542558,-4.40536496e-13 Z M93.6375302,96.9623038 L81.9072968,96.9623038 L81.9072968,96.9755081 C80.7500734,97.0376172 79.8284122,98.0064216 79.8284122,99.2031224 C79.8284122,100.399823 80.7500734,101.369606 81.9072968,101.431715 L81.9072968,101.444919 L93.6375302,101.444919 L93.6375302,101.430737 C94.7890082,101.363737 95.7054028,100.396889 95.7054028,99.2031224 C95.7054028,98.010334 94.7890082,97.0434858 93.6375302,96.9764862 L93.6375302,96.9623038 Z M110.385811,9.45454545 L65.1477162,9.45454545 L65.1477162,94.5454545 L110.385811,94.5454545 L110.385811,9.45454545 Z M96.4301397,5.05431256 L79.0339642,5.05431256 L79.0339642,5.06213733 C78.7083904,5.06800591 78.4455374,5.33747143 78.4455374,5.67149131 C78.4455374,6.0055112 78.7083904,6.27497672 79.0339642,6.2808453 L79.0339642,6.28867007 L96.4301397,6.28867007 L96.4301397,6.27057529 C96.4507274,6.27253148 96.4684425,6.28280149 96.4899878,6.28280149 C96.8203495,6.28280149 97.0884691,6.00893453 97.0884691,5.67149131 C97.0884691,5.3340481 96.8203495,5.06018114 96.4899878,5.06018114 C96.4684425,5.06018114 96.4507274,5.07045115 96.4301397,5.07240734 L96.4301397,5.05431256 Z" id="Combined-Shape" fill="#FFFFFF" fill-rule="nonzero"></path>
                <polygon id="path102" fill="#333333" fill-rule="nonzero" transform="translate(88.766764, 52.500000) scale(-1, 1) rotate(-180.000000) translate(-88.766764, -52.500000) " points="111.766764 10 65.7667638 10 65.7667638 95 111.766764 95"></polygon>
                <polygon id="path102" fill="url(#linearGradient-1)" fill-rule="nonzero" transform="translate(31.766764, 54.500000) scale(-1, 1) rotate(-180.000000) translate(-31.766764, -54.500000) " points="60.7667638 24 2.76676385 24 2.76676385 85 60.7667638 85"></polygon>
            </g>
        </g>
    </g>
</svg>