<?xml version="1.0" encoding="UTF-8"?>
<svg width="233px" height="56px" viewBox="0 0 233 56" version="1.1" xmlns="http://www.w3.org/2000/svg" xmlns:xlink="http://www.w3.org/1999/xlink">
    <title>Group 2</title>
    <g id="Devices" stroke="none" stroke-width="1" fill="none" fill-rule="evenodd">
        <g id="Ports" transform="translate(-67.000000, -62.000000)">
            <g id="Nevigation" transform="translate(-1.000000, 45.000000)">
                <g id="Group-2" transform="translate(68.000000, 17.000000)">
                    <path d="M163.718478,34.9155034 C164.62017,34.9155034 165.455884,34.7832664 166.225621,34.5187923 C166.995357,34.2543182 167.534173,34.0185914 167.842068,33.8116117 L167.842068,33.8116117 L167.314248,31.9487944 C167.006354,32.1327764 166.5775,32.3340066 166.027688,32.5524852 C165.477876,32.7709638 164.752124,32.880203 163.850433,32.880203 C163.322613,32.880203 162.838779,32.8227087 162.398929,32.70772 C161.959079,32.5927312 161.585207,32.3627538 161.277312,32.0177876 C160.969418,31.6728215 160.732999,31.1841194 160.568055,30.5516815 C160.403111,29.9192435 160.32064,29.0970742 160.32064,28.0851734 L160.32064,28.0851734 L160.32064,18.5986041 L167.116316,18.5986041 L167.116316,16.7012902 L160.32064,16.7012902 L160.32064,11.0438452 L158.176373,11.4578046 L158.176373,27.8781937 C158.176373,29.0740764 158.264343,30.1089749 158.440282,30.9828892 C158.616222,31.8568034 158.918619,32.5869818 159.347472,33.1734243 C159.776326,33.7598668 160.34813,34.1968239 161.062886,34.4842957 C161.777641,34.7717675 162.662839,34.9155034 163.718478,34.9155034 Z M176.709089,34.95 C177.852698,34.95 178.897341,34.725772 179.843017,34.277316 C180.788694,33.82886 181.607914,33.2021715 182.300677,32.3972504 C182.99344,31.5923294 183.532256,30.6149253 183.917124,29.4650381 C184.301993,28.3151509 184.494427,27.0387761 184.494427,25.6359137 C184.494427,24.2330513 184.301993,22.9566765 183.917124,21.8067893 C183.532256,20.6569021 182.99344,19.6737486 182.300677,18.8573287 C181.607914,18.0409088 180.788694,17.4084708 179.843017,16.9600148 C178.897341,16.5115588 177.852698,16.2873308 176.709089,16.2873308 C175.56548,16.2873308 174.520837,16.5115588 173.57516,16.9600148 C172.629484,17.4084708 171.810264,18.0409088 171.117501,18.8573287 C170.424737,19.6737486 169.885922,20.6569021 169.501053,21.8067893 C169.116185,22.9566765 168.923751,24.2330513 168.923751,25.6359137 C168.923751,27.0387761 169.116185,28.3151509 169.501053,29.4650381 C169.885922,30.6149253 170.424737,31.5923294 171.117501,32.3972504 C171.810264,33.2021715 172.629484,33.82886 173.57516,34.277316 C174.520837,34.725772 175.56548,34.95 176.709089,34.95 Z M176.709089,32.9146997 C175.015668,32.9146997 173.674126,32.259264 172.684465,30.9483926 C171.694803,29.6375212 171.199972,27.8666949 171.199972,25.6359137 C171.199972,23.4051325 171.694803,21.6285568 172.684465,20.3061865 C173.674126,18.9838163 175.015668,18.3226311 176.709089,18.3226311 C178.40251,18.3226311 179.744051,18.9838163 180.733713,20.3061865 C181.723374,21.6285568 182.218205,23.4051325 182.218205,25.6359137 C182.218205,27.8666949 181.723374,29.6375212 180.733713,30.9483926 C179.744051,32.259264 178.40251,32.9146997 176.709089,32.9146997 Z M194.58203,34.8810068 C196.143496,34.8810068 197.463045,34.766018 198.540677,34.5360406 C199.618308,34.3060632 200.476015,34.0990835 201.113797,33.9151015 L201.113797,33.9151015 L201.113797,16.7012902 L198.96953,16.7012902 L198.96953,32.3627538 C198.771598,32.4547448 198.29876,32.5582346 197.551015,32.6732234 C196.803271,32.7882121 195.923572,32.8457064 194.911918,32.8457064 C194.010226,32.8457064 193.245987,32.7249683 192.619201,32.483492 C191.992416,32.2420157 191.481091,31.851054 191.085226,31.310607 C190.689361,30.77016 190.403459,30.0629794 190.227519,29.1890651 C190.051579,28.3151509 189.963609,27.2457558 189.963609,25.9808799 L189.963609,25.9808799 L189.963609,16.7012902 L187.819343,16.7012902 L187.819343,26.7053088 C187.819343,27.9241892 187.934803,29.0395798 188.165724,30.0514805 C188.396645,31.0633813 188.776016,31.9257967 189.303835,32.6387267 C189.831655,33.3516568 190.524418,33.9036027 191.382124,34.2945643 C192.239831,34.6855259 193.306467,34.8810068 194.58203,34.8810068 Z M212.718882,34.9155034 C213.642566,34.9155034 214.527763,34.8062641 215.374474,34.5877855 C216.221184,34.369307 216.842472,34.145079 217.238337,33.9151015 L217.238337,33.9151015 L216.776494,31.983291 C216.490592,32.1442752 216.034248,32.3340066 215.407463,32.5524852 C214.780677,32.7709638 214.005442,32.880203 213.081758,32.880203 C211.960141,32.880203 211.008966,32.7019705 210.228233,32.3455055 C209.4475,31.9890405 208.809718,31.494589 208.314888,30.862151 C207.820057,30.2297131 207.462679,29.4707875 207.242754,28.5853744 C207.022829,27.6999612 206.912867,26.7283065 206.912867,25.6704103 C206.912867,23.3246404 207.4022,21.5135681 208.380865,20.2371933 C209.35953,18.9608185 210.79454,18.3226311 212.685893,18.3226311 C213.609577,18.3226311 214.346325,18.3916244 214.896137,18.5296108 C215.445949,18.6675973 215.94078,18.8515792 216.38063,19.0815567 L216.38063,19.0815567 L216.941438,17.1497462 C216.501588,16.896771 215.880301,16.6897913 215.077575,16.5288071 C214.27485,16.3678229 213.411645,16.2873308 212.487961,16.2873308 C211.278374,16.2873308 210.189747,16.5115588 209.222077,16.9600148 C208.254408,17.4084708 207.42969,18.0466582 206.747923,18.874577 C206.066156,19.7024958 205.543835,20.6913988 205.180959,21.841286 C204.818083,22.9911732 204.636645,24.2675479 204.636645,25.6704103 C204.636645,27.050275 204.812585,28.3094014 205.164465,29.4477898 C205.516344,30.5861781 206.02767,31.5635822 206.69844,32.3800021 C207.369211,33.196422 208.210423,33.8231105 209.222077,34.2600677 C210.233731,34.6970248 211.399333,34.9155034 212.718882,34.9155034 Z M221.849812,34.5360406 L221.849812,19.1850465 C221.937782,19.139051 222.130217,19.0700578 222.427115,18.9780668 C222.724013,18.8860759 223.059399,18.7998343 223.433271,18.7193422 C223.807143,18.6388501 224.208506,18.5641074 224.637359,18.4951142 C225.066213,18.426121 225.467575,18.3916244 225.841448,18.3916244 C226.809117,18.3916244 227.611842,18.5123625 228.249624,18.7538388 C228.887406,18.9953151 229.398731,19.3920262 229.7836,19.9439721 C230.168468,20.4959179 230.443374,21.208848 230.608318,22.0827623 C230.773261,22.9566765 230.855733,24.0260716 230.855733,25.2909475 L230.855733,25.2909475 L230.855733,34.5360406 L233,34.5360406 L233,24.5665186 C233,23.3476382 232.895536,22.2322476 232.686607,21.2203469 C232.477679,20.2084461 232.109305,19.3402813 231.581485,18.6158524 C231.053665,17.8914234 230.349906,17.3337281 229.470207,16.9427665 C228.590508,16.5518049 227.490884,16.356324 226.171335,16.356324 C225.445583,16.356324 224.719831,16.4310667 223.994079,16.580552 C223.268327,16.7300374 222.553572,16.9427665 221.849812,17.2187394 L221.849812,17.2187394 L221.849812,7.76666667 L219.705546,8.18062606 L219.705546,34.5360406 L221.849812,34.5360406 Z" id="touch" fill="#E95420" fill-rule="nonzero"></path>
                    <path d="M131.528921,31.3853603 L131.528921,31.0911816 C131.528921,30.8434292 131.518061,30.6162868 131.267904,30.6162868 C131.057376,30.6162868 131.024987,30.8230363 131.024987,31.013298 L131.024987,31.3853603 L131.528921,31.3853603 Z M130.825129,31.6658715 L130.825129,30.9679562 C130.825129,30.5377523 130.973737,30.3353417 131.279145,30.3353417 C131.565311,30.3353417 131.68515,30.5420912 131.71068,30.8106704 L132.411043,30.294122 L132.411043,30.5958939 L131.728589,31.0874935 L131.728589,31.3853603 L132.411043,31.3853603 L132.411043,31.6658715 L130.825129,31.6658715 Z M132.777037,31.0623277 C132.777037,30.3479246 132.276533,29.7942784 131.61256,29.7942784 C130.963067,29.7942784 130.462182,30.3479246 130.462182,31.0623277 C130.462182,31.7856257 130.963067,32.3394888 131.61256,32.3394888 C132.276533,32.3394888 132.777037,31.7856257 132.777037,31.0623277 Z M130.262895,31.0623277 C130.262895,30.2197095 130.846658,29.5133333 131.61256,29.5133333 C132.392752,29.5133333 132.976705,30.2197095 132.976705,31.0623277 C132.976705,31.9099358 132.392752,32.62 131.61256,32.62 C130.846658,32.62 130.262895,31.9099358 130.262895,31.0623277 L130.262895,31.0623277 Z" id="Fill-1" fill="#FFFFFF" transform="translate(131.619800, 31.066667) rotate(-270.000000) translate(-131.619800, -31.066667) "></path>
                    <path d="M140.730449,18.2364823 C135.797598,18.2364823 131.798783,14.1572882 131.798783,9.12593384 C131.798783,4.09417744 135.797598,0.0151844149 140.730449,0.0151844149 C145.6633,0.0151844149 149.662116,4.09417744 149.662116,9.12593384 C149.662116,14.1572882 145.6633,18.2364823 140.730449,18.2364823 Z" id="Fill-3" fill="#E95420" transform="translate(140.730449, 9.125833) rotate(-270.000000) translate(-140.730449, -9.125833) "></path>
                    <path d="M143.023379,4.98800742 C143.601339,5.33000275 144.340266,5.12750552 144.673781,4.53535452 C145.007496,3.94340807 144.809784,3.18660023 144.231823,2.84480945 C143.653663,2.50322321 142.914937,2.70612953 142.581022,3.29807598 C142.247506,3.88981789 142.445618,4.64642118 143.023379,4.98800742 Z M140.549972,12.9919662 C140.018744,12.9919662 139.514876,12.8708769 139.063133,12.6554935 L138.223353,14.196927 C138.924534,14.5528312 139.714586,14.7536921 140.549972,14.7536921 C141.036066,14.7536921 141.505984,14.6845567 141.952734,14.5579448 C142.03142,14.0607016 142.319601,13.6027306 142.779134,13.3306888 C143.238267,13.0594653 143.768696,13.0326702 144.228229,13.2104177 C145.12193,12.3104301 145.703485,11.0864468 145.788162,9.72296542 L144.065665,9.6969885 C143.907295,11.5442133 142.394293,12.9919662 140.549972,12.9919662 Z M140.549972,5.76056504 C142.394293,5.76056504 143.907295,7.20872707 144.066064,9.05574727 L145.788162,9.02977035 C145.703485,7.66628899 145.12193,6.44230572 144.228229,5.54211349 C143.768696,5.71986106 143.237867,5.69265688 142.779134,5.4218424 C142.319601,5.15020975 142.03142,4.6920342 141.952734,4.19458645 C141.505984,4.06838363 141.036066,3.99924821 140.549972,3.99924821 C139.714586,3.99924821 138.924534,4.20031365 138.223353,4.55580879 L139.063133,6.09703772 C139.514876,5.8816543 140.018744,5.76056504 140.549972,5.76056504 Z M137.019901,9.37647016 C137.019901,8.15330506 137.613239,7.07250166 138.52092,6.41816969 L137.637404,4.90250859 C136.57994,5.62638506 135.793283,6.73255176 135.466358,8.02812496 C135.847804,8.34700696 136.092049,8.83238669 136.092049,9.37647016 C136.092049,9.92014454 135.847804,10.4055243 135.466358,10.7244063 C135.792884,12.0203886 136.579541,13.1265553 137.637404,13.8504317 L138.52092,12.3343615 C137.613239,11.6804387 137.019901,10.5998398 137.019901,9.37647016 Z M143.023778,13.7641147 C142.445618,14.10611 142.247506,14.8627133 142.581421,15.4544553 C142.914937,16.0464017 143.653663,16.2495126 144.231823,15.9075172 C144.809784,15.565931 145.007896,14.8093277 144.674181,14.2171767 C144.340665,13.6256393 143.601339,13.4225285 143.023778,13.7641147 Z M134.394915,8.13837345 C133.727085,8.13837345 133.186071,8.69247951 133.186071,9.37647016 C133.186071,10.0600517 133.727085,10.6141578 134.394915,10.6141578 C135.062345,10.6141578 135.603359,10.0600517 135.603359,9.37647016 C135.603359,8.69247951 135.062345,8.13837345 134.394915,8.13837345 L134.394915,8.13837345 Z" id="Fill-5" fill="#FFFFFE" transform="translate(139.487117, 9.376280) scale(-1, 1) rotate(-179.000000) translate(-139.487117, -9.376280) "></path>
                    <path d="M114.072524,10.9414283 L114.072524,23.0405995 C114.072524,25.8583672 114.496629,27.874827 115.344447,29.0901851 C116.192264,30.3067798 117.619174,30.9143558 119.626552,30.9143558 C120.050461,30.9143558 120.488317,30.8995168 120.940905,30.8694265 C121.392511,30.8403667 121.816812,30.8028569 122.212827,30.7583398 C122.608449,30.7138227 122.968712,30.6695117 123.29401,30.6252007 C123.618522,30.5806836 123.851888,30.5293653 123.993322,30.469597 L123.993322,10.9414283 L127.936772,10.9414283 L127.936772,33.4052525 C127.031596,33.6428831 125.837658,33.8947345 124.353978,34.1614249 C122.870101,34.4285276 121.153056,34.5616667 119.202644,34.5616667 C117.506813,34.5616667 116.079117,34.3017775 114.920538,33.7836479 C113.760977,33.2651061 112.8283,32.53078 112.122113,31.581494 C111.415336,30.6328263 110.906567,29.5128915 110.595806,28.222926 C110.284258,26.9329605 110.129271,25.5026425 110.129271,23.9303232 L110.129271,10.9414283 L114.072524,10.9414283 Z M51.6808801,10.9414283 L51.6808801,22.9591236 C51.6808801,25.7579164 52.1040941,27.7607974 52.950326,28.9679712 C53.7963619,30.1763734 55.22047,30.779858 57.2236304,30.779858 C57.6466484,30.779858 58.0833879,30.7651188 58.5350252,30.7352312 C58.9858785,30.7063671 59.4088964,30.6691099 59.8044711,30.6248926 C60.1988696,30.5806753 60.5585721,30.5366627 60.8833824,30.4926501 C61.2072127,30.4484327 61.4398921,30.39746 61.5812248,30.3380941 L61.5812248,10.9414283 L65.5159973,10.9414283 L65.5159973,33.253981 C64.6131147,33.4900114 63.4216861,33.7401668 61.9409273,34.0050613 C60.4599725,34.2703653 58.7465342,34.4026078 56.8004165,34.4026078 C55.1079527,34.4026078 53.6834525,34.1444687 52.527112,33.6298282 C51.3701835,33.1147783 50.4392696,32.3853972 49.7349584,31.4425037 C49.0292751,30.5002243 48.5217712,29.3878311 48.2116626,28.1065523 C47.9009659,26.8252735 47.7463037,25.4045872 47.7463037,23.8428559 L47.7463037,10.9414283 L51.6808801,10.9414283 Z M98.113115,3.76389796 L98.113115,10.8877974 L106.255843,10.8877974 L106.255843,14.3390449 L98.113115,14.3390449 L98.113115,24.9580627 C98.113115,26.1085468 98.1954615,27.0599718 98.361112,27.8119276 C98.5263795,28.5644984 98.7743765,29.1545008 99.1051031,29.5819347 C99.4356381,30.0099837 99.8490941,30.3123651 100.344897,30.4890788 C100.840891,30.6659975 101.419614,30.7547643 102.080876,30.7547643 C103.265325,30.7547643 104.202735,30.6149514 104.891764,30.3343005 C105.579836,30.0542646 106.04902,29.8552055 106.296825,29.737123 L107.123546,33.0998085 C106.737475,33.3064529 106.055339,33.5721385 105.077522,33.8960453 C104.099131,34.2203621 102.990517,34.3827255 101.750149,34.3827255 C100.289552,34.3827255 99.0844207,34.1838713 98.1336058,33.7855479 C97.1829825,33.3872246 96.4183091,32.790047 95.839777,31.9936053 C95.2610534,31.1969586 94.8541085,30.216628 94.6204743,29.0507686 C94.3858825,27.8861391 94.2688739,26.5368008 94.2688739,25.0023436 L94.2688739,4.47177782 L98.113115,3.76389796 Z M4.20641796,10.9531732 L4.20641796,22.8883063 C4.20641796,25.6678712 4.65863985,27.6569923 5.56350274,28.8558728 C6.46794652,30.0559732 7.990371,30.6553118 10.1316144,30.6553118 C10.5838363,30.6553118 11.0509366,30.6406739 11.5337537,30.6109916 C12.0157326,30.5823258 12.4679544,30.5453246 12.8906289,30.5014111 C13.3124652,30.4574975 13.6970005,30.4137873 14.0440253,30.370077 C14.3902118,30.3261635 14.6389548,30.2755409 14.7902542,30.2165829 L14.7902542,10.9531732 L18.9966722,10.9531732 L18.9966722,33.1124374 C18.0312476,33.3468463 16.7577757,33.5952832 15.1747895,33.8583578 C13.5915938,34.1218391 11.7598647,34.2531732 9.67918295,34.2531732 C7.8702954,34.2531732 6.34724225,33.9968075 5.11128085,33.4857026 C3.87427167,32.9741911 2.8792997,32.2498208 2.12594581,31.3134051 C1.37196325,30.3775992 0.829213166,29.2728482 0.497695545,28.0003719 C0.165339699,26.7278955 -1.0658141e-13,25.3169694 -1.0658141e-13,23.7659673 L-1.03028697e-13,10.9531732 L4.20641796,10.9531732 Z M28.4468352,0.868274749 L28.4468352,12.6512664 C28.9500669,12.3419085 29.7131506,12.0178753 30.7354687,11.680145 C31.7575808,11.342219 32.9351512,11.1733539 34.2683857,11.1733539 C35.9273618,11.1733539 37.4016412,11.4549262 38.6906061,12.0178753 C39.9791592,12.5814114 41.0679846,13.3693835 41.9568762,14.3831615 C42.8457678,15.3965481 43.5192829,16.6075636 43.9788627,18.0152298 C44.4382367,19.4230917 44.6678207,20.9712505 44.6678207,22.6602934 C44.6678207,24.434258 44.3935553,26.0327046 43.8458481,27.4542635 C43.2973174,28.8760181 42.5194085,30.0795981 41.5125333,31.0648079 C40.5048345,32.0508004 39.2906131,32.8107914 37.8682218,33.3455637 C36.4460363,33.8801403 34.8463608,34.1478199 33.0685776,34.1478199 C31.1423368,34.1478199 29.4388852,34.02122 27.957811,33.7678244 C26.4759131,33.5144288 25.2612799,33.2612289 24.3134994,33.0076377 L24.3134994,1.54373536 L28.4468352,0.868274749 Z M80.0012464,10.4642518 C81.7538666,10.4642518 83.2090796,10.7241387 84.3686534,11.242676 C85.527245,11.7618315 86.4526646,12.4879074 87.1455016,13.4223462 C87.8377492,14.3565788 88.3253085,15.4762978 88.6085721,16.7808849 C88.8904607,18.0858841 89.0324854,19.5242273 89.0324854,21.0957085 L89.0324854,34.0844901 L85.0889917,34.0844901 L85.0889917,21.9850123 C85.0889917,20.5619202 84.9970587,19.3461605 84.8135856,18.3379394 C84.6295231,17.3299243 84.3264192,16.5141968 83.9021131,15.891375 C83.4780033,15.2683471 82.9124582,14.8163788 82.2062634,14.5344396 C81.4990865,14.2527065 80.6227764,14.1117369 79.577726,14.1117369 C79.1534198,14.1117369 78.7147737,14.1271941 78.2631626,14.1562536 C77.8107658,14.1861375 77.3793878,14.2232348 76.970011,14.2677515 C76.5598483,14.3120621 76.1921163,14.3644105 75.8677971,14.4233539 C75.5424957,14.4831217 75.3091273,14.5276384 75.1680848,14.556698 L75.1680848,34.0844901 L71.224984,34.0844901 L71.224984,11.6208619 C72.1293847,11.3836456 73.3304069,11.1313842 74.8290327,10.86449 C76.3268728,10.5978019 78.0510095,10.4642518 80.0012464,10.4642518 Z M33.7350919,14.6363614 C32.6087918,14.6363614 31.5720604,14.8197063 30.6244859,15.185222 C29.6756759,15.5515205 28.9500669,15.9319073 28.4468352,16.3254042 L28.4468352,30.2204821 C28.861116,30.3331894 29.4465037,30.4386567 30.2021749,30.5368842 C30.9576401,30.6358943 31.8978021,30.6850081 33.0241021,30.6850081 C35.2462282,30.6850081 37.0240115,29.9878278 38.3570401,28.5944457 C39.6902746,27.2004766 40.3569948,25.2228172 40.3569948,22.6602934 C40.3569948,21.5349823 40.2381876,20.4789391 40.0016029,19.4929466 C39.7637827,18.5077369 39.3793581,17.6559755 38.8460643,16.9380541 C38.3127705,16.2199369 37.6238126,15.6569878 36.7793964,15.2484242 C35.9349803,14.8408389 34.9198689,14.6363614 33.7350919,14.6363614 Z" id="Combined-Shape" fill="#FFFFFF"></path>
                    <path d="M1.0476292,52.2654772 L1.0476292,48.1630014 L2.49582249,48.1630014 C3.22505458,48.1630014 3.87982283,48.1043217 4.46012724,47.9869623 C5.04043164,47.8696029 5.5308659,47.6808074 5.93143,47.4205757 C6.33199411,47.1603441 6.64012034,46.8184711 6.8558087,46.3949568 C7.07149707,45.9714425 7.17934125,45.458633 7.17934125,44.8565284 C7.17934125,43.8053965 6.80958977,42.994086 6.07008681,42.4225968 C5.33058385,41.8511077 4.20592309,41.5653631 2.69610455,41.5653631 C2.26472782,41.5653631 1.79997075,41.5883247 1.30183334,41.6342479 C0.803695927,41.6801712 0.369751481,41.7541586 0,41.8562102 L0,41.8562102 L0,52.2654772 L1.0476292,52.2654772 Z M2.372572,47.2598444 L1.0476292,47.2598444 L1.0476292,42.5756743 C1.24277581,42.5552639 1.4764382,42.5323023 1.74861638,42.5067894 C2.02079455,42.4812765 2.35203025,42.4685201 2.74232348,42.4685201 C3.16342933,42.4685201 3.57426431,42.5042381 3.97482842,42.5756743 C4.37539252,42.6471104 4.73230541,42.7721237 5.04556708,42.950714 C5.35882875,43.1293044 5.61046518,43.371677 5.80047635,43.677832 C5.99048753,43.9839869 6.08549312,44.3717831 6.08549312,44.8412206 C6.08549312,45.3310685 5.99819069,45.7341724 5.82358582,46.0505325 C5.64898095,46.3668926 5.39991225,46.6143678 5.0763797,46.7929582 C4.75284716,46.9715485 4.36255393,47.0940105 3.90550001,47.1603441 C3.4484461,47.2266776 2.9374701,47.2598444 2.372572,47.2598444 L2.372572,47.2598444 Z M12.5253314,52.4491701 C13.0594169,52.4491701 13.5472834,52.3496698 13.988931,52.1506691 C14.4305786,51.9516684 14.8131687,51.6735777 15.1367013,51.316397 C15.4602338,50.9592162 15.7118702,50.5254968 15.8916105,50.0152386 C16.0713508,49.5049804 16.161221,48.9385938 16.161221,48.3160788 C16.161221,47.6935639 16.0713508,47.1271773 15.8916105,46.6169191 C15.7118702,46.1066609 15.4602338,45.6703902 15.1367013,45.3081068 C14.8131687,44.9458235 14.4305786,44.6651815 13.988931,44.4661808 C13.5472834,44.2671802 13.0594169,44.1676798 12.5253314,44.1676798 C11.991246,44.1676798 11.5033794,44.2671802 11.0617318,44.4661808 C10.6200842,44.6651815 10.2374941,44.9458235 9.9139616,45.3081068 C9.59042906,45.6703902 9.33879263,46.1066609 9.15905233,46.6169191 C8.97931203,47.1271773 8.88944187,47.6935639 8.88944187,48.3160788 C8.88944187,48.9385938 8.97931203,49.5049804 9.15905233,50.0152386 C9.33879263,50.5254968 9.59042906,50.9592162 9.9139616,51.316397 C10.2374941,51.6735777 10.6200842,51.9516684 11.0617318,52.1506691 C11.5033794,52.3496698 11.991246,52.4491701 12.5253314,52.4491701 Z M12.5253314,51.5460131 C11.7344741,51.5460131 11.1079508,51.255166 10.6457614,50.6734716 C10.1835721,50.0917773 9.95247738,49.3059797 9.95247738,48.3160788 C9.95247738,47.326178 10.1835721,46.5378291 10.6457614,45.9510322 C11.1079508,45.3642352 11.7344741,45.0708368 12.5253314,45.0708368 C13.3161888,45.0708368 13.9427121,45.3642352 14.4049015,45.9510322 C14.8670908,46.5378291 15.0981855,47.326178 15.0981855,48.3160788 C15.0981855,49.3059797 14.8670908,50.0917773 14.4049015,50.6734716 C13.9427121,51.255166 13.3161888,51.5460131 12.5253314,51.5460131 Z M21.4301796,52.2654772 C21.5842427,51.9082964 21.746009,51.5077438 21.9154784,51.0638192 C22.0849479,50.6198945 22.2595527,50.1453544 22.439293,49.6401988 C22.6190333,49.1350432 22.7936382,48.6043747 22.9631076,48.0481933 C23.1325771,47.4920119 23.2943433,46.923074 23.4484065,46.3413797 C23.6024696,46.923074 23.7642358,47.4920119 23.9337053,48.0481933 C24.1031747,48.6043747 24.2777796,49.1350432 24.4575199,49.6401988 C24.6372602,50.1453544 24.811865,50.6198945 24.9813345,51.0638192 C25.1508039,51.5077438 25.3125702,51.9082964 25.4666333,52.2654772 L25.4666333,52.2654772 L26.4064183,52.2654772 C26.9302329,51.1122937 27.4103963,49.8927766 27.8469084,48.606926 C28.2834206,47.3210754 28.6865524,45.9025576 29.0563039,44.3513728 L29.0563039,44.3513728 L28.0703,44.3513728 C27.9573203,44.8922464 27.8160958,45.476492 27.6466264,46.1041096 C27.477157,46.7317272 27.2948489,47.3542422 27.0997023,47.9716546 C26.9045557,48.589067 26.7094091,49.1758639 26.5142625,49.7320453 C26.3191159,50.2882267 26.1342401,50.7602155 25.9596353,51.1480118 C25.7542178,50.6377536 25.551368,50.0917773 25.3510859,49.510083 C25.1508039,48.9283887 24.9607927,48.3390405 24.7810524,47.7420384 C24.6013121,47.1450363 24.4369781,46.5582394 24.2880504,45.9816476 C24.1391228,45.4050559 24.01844,44.8616309 23.9260021,44.3513728 L23.9260021,44.3513728 L23.0632487,44.3513728 C22.950269,44.8616309 22.8167477,45.4050559 22.6626846,45.9816476 C22.5086214,46.5582394 22.3442874,47.142485 22.1696826,47.7343845 C21.9950777,48.326284 21.8076343,48.9130809 21.6073522,49.4947752 C21.4070702,50.0764696 21.2093558,50.6224458 21.0142092,51.132704 C20.8396043,50.7449078 20.6521609,50.2754703 20.4518788,49.7243914 C20.2515968,49.1733126 20.0538824,48.589067 19.8587358,47.9716546 C19.6635892,47.3542422 19.4812812,46.7317272 19.3118118,46.1041096 C19.1423423,45.476492 19.0011178,44.8922464 18.8881382,44.3513728 L18.8881382,44.3513728 L17.8251027,44.3513728 C18.1948542,45.9025576 18.597986,47.3210754 19.0344982,48.606926 C19.4710103,49.8927766 19.9511737,51.1122937 20.4749883,52.2654772 L20.4749883,52.2654772 L21.4301796,52.2654772 Z M34.6333888,52.4338624 C35.1674742,52.4338624 35.6322313,52.377734 36.02766,52.2654772 C36.4230886,52.1532204 36.6926991,52.0562713 36.8364913,51.97463 L36.8364913,51.97463 L36.6516156,51.1173963 C36.5078234,51.1888324 36.2767287,51.2755763 35.9583316,51.3776279 C35.6399345,51.4796796 35.2085577,51.5307054 34.6642014,51.5307054 C33.6781974,51.5307054 32.9592362,51.2704737 32.5073178,50.7500104 C32.0553993,50.229547 31.8140337,49.4845701 31.7832211,48.5150795 L31.7832211,48.5150795 L37.3757122,48.5150795 C37.3859831,48.4436434 37.3936863,48.3671047 37.3988217,48.2854633 C37.4039572,48.203822 37.4065249,48.1221807 37.4065249,48.0405394 C37.4065249,46.7240733 37.1163727,45.7494802 36.5360683,45.11676 C35.9557639,44.4840399 35.1777451,44.1676798 34.202012,44.1676798 C33.7603644,44.1676798 33.3315554,44.2518724 32.915585,44.4202576 C32.4996146,44.5886428 32.1298631,44.8463232 31.8063306,45.1932988 C31.482798,45.5402743 31.2208907,45.9714425 31.0206087,46.4868033 C30.8203266,47.002164 30.7201856,47.60682 30.7201856,48.3007711 C30.7201856,48.9028757 30.7920817,49.4565059 30.935874,49.9616615 C31.0796662,50.4668171 31.3107609,50.9030878 31.629158,51.2704737 C31.9475551,51.6378596 32.3532546,51.9236042 32.8462566,52.1277075 C33.3392586,52.3318107 33.9349693,52.4338624 34.6333888,52.4338624 Z M36.374302,47.6731535 L31.8140337,47.6731535 C31.8345755,47.326178 31.9039039,46.9945101 32.0220189,46.6781501 C32.140134,46.36179 32.304468,46.0836993 32.5150209,45.8438779 C32.7255738,45.6040566 32.9720748,45.4127098 33.2545239,45.2698375 C33.5369729,45.1269652 33.8579377,45.055529 34.2174184,45.055529 C34.8952961,45.055529 35.4191107,45.2851452 35.7888621,45.7443776 C36.1586136,46.20361 36.3537602,46.8465353 36.374302,47.6731535 L36.374302,47.6731535 Z M41.1040397,52.2654772 L41.1040397,45.3310685 C41.1862067,45.2902478 41.3582438,45.239222 41.6201511,45.177991 C41.8820584,45.11676 42.2287005,45.0861445 42.6600772,45.0861445 C43.0709122,45.0861445 43.4021479,45.1091062 43.6537843,45.1550294 C43.9054207,45.2009526 44.0723224,45.2443246 44.1544894,45.2851452 L44.1544894,45.2851452 L44.3547715,44.4279115 C44.2417919,44.3768857 44.0389421,44.3258598 43.7462222,44.274834 C43.4535022,44.2238082 43.1428083,44.1982953 42.8141403,44.1982953 C42.1670752,44.1982953 41.6175834,44.256975 41.165665,44.3743344 C40.7137465,44.4916938 40.3594013,44.6065018 40.1026294,44.7187586 L40.1026294,44.7187586 L40.1026294,52.2654772 L41.1040397,52.2654772 Z M49.7623869,52.4338624 C50.2964724,52.4338624 50.7612294,52.377734 51.1566581,52.2654772 C51.5520868,52.1532204 51.8216972,52.0562713 51.9654895,51.97463 L51.9654895,51.97463 L51.7806137,51.1173963 C51.6368215,51.1888324 51.4057268,51.2755763 51.0873297,51.3776279 C50.7689326,51.4796796 50.3375559,51.5307054 49.7931995,51.5307054 C48.8071956,51.5307054 48.0882344,51.2704737 47.6363159,50.7500104 C47.1843974,50.229547 46.9430319,49.4845701 46.9122192,48.5150795 L46.9122192,48.5150795 L52.5047104,48.5150795 C52.5149813,48.4436434 52.5226844,48.3671047 52.5278199,48.2854633 C52.5329553,48.203822 52.535523,48.1221807 52.535523,48.0405394 C52.535523,46.7240733 52.2453708,45.7494802 51.6650664,45.11676 C51.084762,44.4840399 50.3067432,44.1676798 49.3310102,44.1676798 C48.8893626,44.1676798 48.4605536,44.2518724 48.0445831,44.4202576 C47.6286127,44.5886428 47.2588613,44.8463232 46.9353287,45.1932988 C46.6117962,45.5402743 46.3498889,45.9714425 46.1496068,46.4868033 C45.9493248,47.002164 45.8491837,47.60682 45.8491837,48.3007711 C45.8491837,48.9028757 45.9210799,49.4565059 46.0648721,49.9616615 C46.2086643,50.4668171 46.439759,50.9030878 46.7581561,51.2704737 C47.0765532,51.6378596 47.4822528,51.9236042 47.9752547,52.1277075 C48.4682567,52.3318107 49.0639674,52.4338624 49.7623869,52.4338624 Z M51.5033001,47.6731535 L46.9430319,47.6731535 C46.9635736,47.326178 47.032902,46.9945101 47.1510171,46.6781501 C47.2691321,46.36179 47.4334661,46.0836993 47.644019,45.8438779 C47.854572,45.6040566 48.101073,45.4127098 48.383522,45.2698375 C48.6659711,45.1269652 48.9869359,45.055529 49.3464165,45.055529 C50.0242942,45.055529 50.5481088,45.2851452 50.9178603,45.7443776 C51.2876118,46.20361 51.4827584,46.8465353 51.5033001,47.6731535 L51.5033001,47.6731535 Z M58.6672351,52.4491701 C59.3759254,52.4491701 59.9613653,52.4032469 60.4235546,52.3114004 C60.885744,52.2195539 61.2657663,52.1226049 61.5636217,52.0205533 L61.5636217,52.0205533 L61.5636217,40.3866667 L60.5622114,40.5703596 L60.5622114,44.8259129 C60.3876066,44.6932457 60.1077252,44.5529247 59.7225674,44.4049499 C59.3374096,44.256975 58.8829235,44.1829876 58.3591089,44.1829876 C57.7839399,44.1829876 57.2729639,44.2850392 56.8261808,44.4891425 C56.3793978,44.6932457 56.0019432,44.9789903 55.6938169,45.3463762 C55.3856907,45.7137621 55.1520283,46.1500328 54.9928297,46.6551885 C54.8336312,47.1603441 54.7540319,47.7139742 54.7540319,48.3160788 C54.7540319,48.9590041 54.8490375,49.5355959 55.0390487,50.0458541 C55.2290599,50.5561123 55.4961026,50.9898317 55.8401769,51.3470124 C56.1842512,51.7041932 56.5950862,51.9771813 57.0726818,52.1659768 C57.5502775,52.3547724 58.0817952,52.4491701 58.6672351,52.4491701 Z M58.6826414,51.5460131 C57.8198879,51.5460131 57.1266039,51.2679224 56.6027893,50.711741 C56.0789747,50.1555596 55.8170674,49.3570055 55.8170674,48.3160788 C55.8170674,47.8772568 55.8632864,47.4613964 55.9557242,47.0684976 C56.0481621,46.6755988 56.1970898,46.3337258 56.4025073,46.0428786 C56.6079248,45.7520315 56.8775352,45.519864 57.2113386,45.3463762 C57.5451421,45.1728884 57.9585447,45.0861445 58.4515467,45.0861445 C58.6877768,45.0861445 58.9137361,45.1091062 59.1294244,45.1550294 C59.3451128,45.2009526 59.5453949,45.2596323 59.7302706,45.3310685 C59.9151463,45.4025046 60.0769126,45.4790433 60.2155694,45.5606846 C60.3542262,45.642326 60.4697736,45.7188647 60.5622114,45.7903008 L60.5622114,45.7903008 L60.5622114,51.3317047 C60.4081483,51.3827305 60.1796214,51.431205 59.8766306,51.4771283 C59.5736398,51.5230515 59.1756434,51.5460131 58.6826414,51.5460131 Z M71.5469117,52.4491701 C72.1323516,52.4491701 72.6638693,52.3547724 73.141465,52.1659768 C73.6190606,51.9771813 74.0298956,51.7041932 74.3739699,51.3470124 C74.7180442,50.9898317 74.9850869,50.5561123 75.1750981,50.0458541 C75.3651093,49.5355959 75.4601149,48.9590041 75.4601149,48.3160788 C75.4601149,47.7139742 75.3805156,47.1603441 75.2213171,46.6551885 C75.0621185,46.1500328 74.8284561,45.7137621 74.5203299,45.3463762 C74.2122036,44.9789903 73.834749,44.6932457 73.387966,44.4891425 C72.9411829,44.2850392 72.4302069,44.1829876 71.8550379,44.1829876 C71.3312234,44.1829876 70.8767372,44.256975 70.4915794,44.4049499 C70.1064216,44.5529247 69.8265402,44.6932457 69.6519354,44.8259129 L69.6519354,44.8259129 L69.6519354,40.3866667 L68.6505251,40.5703596 L68.6505251,52.0205533 C68.9483805,52.1226049 69.3284028,52.2195539 69.7905922,52.3114004 C70.2527815,52.4032469 70.8382214,52.4491701 71.5469117,52.4491701 Z M71.5315054,51.5460131 C71.0385034,51.5460131 70.640507,51.5230515 70.3375162,51.4771283 C70.0345255,51.431205 69.8059985,51.3827305 69.6519354,51.3317047 L69.6519354,51.3317047 L69.6519354,45.7903008 C69.7443732,45.7188647 69.8599206,45.642326 69.9985774,45.5606846 C70.1372342,45.4790433 70.2990005,45.4025046 70.4838762,45.3310685 C70.6687519,45.2596323 70.869034,45.2009526 71.0847224,45.1550294 C71.3004107,45.1091062 71.52637,45.0861445 71.7626001,45.0861445 C72.2556021,45.0861445 72.6690048,45.1728884 73.0028082,45.3463762 C73.3366116,45.519864 73.606222,45.7520315 73.8116395,46.0428786 C74.017057,46.3337258 74.1659847,46.6755988 74.2584226,47.0684976 C74.3508604,47.4613964 74.3970794,47.8772568 74.3970794,48.3160788 C74.3970794,49.3570055 74.1351721,50.1555596 73.6113575,50.711741 C73.0875429,51.2679224 72.3942589,51.5460131 71.5315054,51.5460131 Z M77.8789058,55.1433333 C78.3308243,55.1433333 78.7236853,55.0923075 79.0574887,54.9902559 C79.3912921,54.8882042 79.684012,54.7300242 79.9356485,54.5157158 C80.1872849,54.3014073 80.4158118,54.0284192 80.6212293,53.6967514 C80.8266468,53.3650836 81.0269289,52.9696335 81.2220755,52.5104011 C81.7150775,51.3470124 82.1721314,50.0662644 82.5932372,48.668157 C83.0143431,47.2700496 83.38923,45.8311215 83.717898,44.3513728 L83.717898,44.3513728 L82.7164877,44.3513728 C82.5624246,45.0249136 82.4160646,45.6525311 82.2774078,46.2342254 C82.138751,46.8159198 81.9949588,47.3848577 81.8460311,47.9410391 C81.6971034,48.4972205 81.5353372,49.0559532 81.3607323,49.6172372 C81.1861274,50.1785212 80.9858454,50.7755233 80.7598861,51.4082434 C80.4517599,50.7959336 80.1641754,50.1734186 79.8971327,49.5406985 C79.6300899,48.9079783 79.3861567,48.2905659 79.1653329,47.6884613 C78.9445091,47.0863566 78.7467947,46.502111 78.5721899,45.9357244 C78.397585,45.3693378 78.2537928,44.8412206 78.1408131,44.3513728 L78.1408131,44.3513728 L77.0777776,44.3513728 C77.2421116,45.0147084 77.4372582,45.6908005 77.6632175,46.379649 C77.8891767,47.0684976 78.1382454,47.7573461 78.4104236,48.4461947 C78.6826018,49.1350432 78.9753217,49.8162379 79.2885834,50.4897787 C79.601845,51.1633195 79.9279453,51.8113474 80.2668842,52.4338624 C80.1230919,52.7910431 79.976732,53.0869929 79.8278043,53.3217116 C79.6788766,53.5564304 79.5119749,53.7477772 79.3270991,53.8957521 C79.1422234,54.0437269 78.9342382,54.1483299 78.7031435,54.2095609 C78.4720488,54.2707918 78.2127093,54.3014073 77.9251248,54.3014073 C77.7197073,54.3014073 77.521993,54.2733431 77.3319818,54.2172147 C77.1419706,54.1610863 77.0264233,54.1177144 76.9853398,54.0870989 L76.9853398,54.0870989 L76.7850577,54.9137172 C76.8364121,54.9443326 76.9673657,54.9902559 77.1779187,55.0514869 C77.3884716,55.1127178 77.622134,55.1433333 77.8789058,55.1433333 Z M93.7474069,52.4950934 C94.4560973,52.4950934 95.0595112,52.3879391 95.5576486,52.1736307 C96.055786,51.9593223 96.4589178,51.6633725 96.767044,51.2857815 C97.0751703,50.9081904 97.2985618,50.4668171 97.4372186,49.9616615 C97.5758754,49.4565059 97.6452038,48.9130809 97.6452038,48.3313866 L97.6452038,48.3313866 L97.6452038,41.6572095 L96.5975746,41.6572095 L96.5975746,48.1936169 C96.5975746,48.7753112 96.5282462,49.2779155 96.3895894,49.7014298 C96.2509326,50.1249441 96.0583537,50.474471 95.8118527,50.7500104 C95.5653517,51.0255498 95.2674964,51.2296531 94.9182866,51.3623202 C94.5690769,51.4949873 94.1787837,51.5613209 93.7474069,51.5613209 C93.3160302,51.5613209 92.925737,51.4949873 92.5765273,51.3623202 C92.2273175,51.2296531 91.9294622,51.0255498 91.6829612,50.7500104 C91.4364602,50.474471 91.2438813,50.1249441 91.1052245,49.7014298 C90.9665677,49.2779155 90.8972393,48.7753112 90.8972393,48.1936169 L90.8972393,48.1936169 L90.8972393,41.6572095 L89.8496101,41.6572095 L89.8496101,48.3313866 C89.8496101,48.9130809 89.9189385,49.4565059 90.0575953,49.9616615 C90.1962521,50.4668171 90.4196436,50.9081904 90.7277699,51.2857815 C91.0358961,51.6633725 91.4390279,51.9593223 91.9371653,52.1736307 C92.4353027,52.3879391 93.0387166,52.4950934 93.7474069,52.4950934 Z M103.391758,52.3573237 C105.065911,52.3573237 106.303551,52.0945407 107.104679,51.5689748 C107.905807,51.0434088 108.306372,50.2805728 108.306372,49.2804668 C108.306372,48.8620551 108.252449,48.5023231 108.144605,48.2012707 C108.036761,47.9002184 107.885266,47.6450893 107.690119,47.4358835 C107.494972,47.2266776 107.269013,47.0557411 107.012241,46.923074 C106.755469,46.7904069 106.47302,46.6883552 106.164894,46.6169191 C106.657896,46.4638416 107.050757,46.1857509 107.343477,45.782647 C107.636197,45.379543 107.782557,44.8922464 107.782557,44.3207573 C107.782557,43.8002939 107.66701,43.3640232 107.435915,43.011945 C107.20482,42.6598669 106.894126,42.3766736 106.503833,42.1623651 C106.11354,41.9480567 105.659054,41.7949793 105.140374,41.7031328 C104.621695,41.6112863 104.074771,41.5653631 103.499602,41.5653631 C103.304456,41.5653631 103.091335,41.5704657 102.86024,41.5806708 C102.629146,41.590876 102.392916,41.608735 102.15155,41.6342479 C101.910184,41.6597608 101.676522,41.6903763 101.450563,41.7260944 C101.224604,41.7618125 101.019186,41.8051844 100.83431,41.8562102 L100.83431,41.8562102 L100.83431,52.0664765 C100.988373,52.1072971 101.173249,52.1455665 101.388938,52.1812846 C101.604626,52.2170027 101.833153,52.2476181 102.074518,52.2731311 C102.315884,52.298644 102.552114,52.3190543 102.783209,52.334362 C103.014303,52.3496698 103.217153,52.3573237 103.391758,52.3573237 Z M103.915573,46.2954564 L101.88194,46.2954564 L101.88194,42.5603665 C102.056544,42.529751 102.2748,42.5042381 102.536708,42.4838278 C102.798615,42.4634175 103.11958,42.4532123 103.499602,42.4532123 C103.972062,42.4532123 104.403439,42.4863791 104.793732,42.5527127 C105.184026,42.6190462 105.520397,42.7287517 105.802846,42.8818292 C106.085295,43.0349066 106.303551,43.231356 106.457614,43.4711774 C106.611677,43.7109987 106.688709,44.0043972 106.688709,44.3513728 C106.688709,44.739169 106.616813,45.0580803 106.47302,45.3081068 C106.329228,45.5581334 106.131514,45.757134 105.879877,45.9051089 C105.628241,46.0530838 105.332953,46.1551354 104.994015,46.2112638 C104.655076,46.2673922 104.295595,46.2954564 103.915573,46.2954564 L103.915573,46.2954564 Z M103.515009,51.4694744 C103.196611,51.4694744 102.88335,51.456718 102.575224,51.431205 C102.267097,51.4056921 102.036003,51.3827305 101.88194,51.3623202 L101.88194,51.3623202 L101.88194,47.1833057 L104.100448,47.1833057 C104.572909,47.1833057 105.001718,47.2139212 105.386875,47.2751521 C105.772033,47.3363831 106.098134,47.4460886 106.365176,47.6042687 C106.632219,47.7624487 106.837636,47.9767571 106.981429,48.247194 C107.125221,48.5176308 107.197117,48.8569525 107.197117,49.2651591 C107.197117,49.7141863 107.094408,50.0815722 106.888991,50.3673167 C106.683573,50.6530613 106.411395,50.8775749 106.072456,51.0408575 C105.733517,51.2041402 105.340657,51.316397 104.893873,51.3776279 C104.44709,51.4388589 103.987469,51.4694744 103.515009,51.4694744 Z M111.942261,55.0974101 L111.942261,51.8062448 C112.116866,51.9389119 112.396747,52.0792329 112.781905,52.2272078 C113.167063,52.3751827 113.621549,52.4491701 114.145364,52.4491701 C114.720533,52.4491701 115.231509,52.3471185 115.678292,52.1430152 C116.125075,51.9389119 116.502529,51.6557186 116.810656,51.2934353 C117.118782,50.931152 117.352444,50.4974326 117.511643,49.992277 C117.670841,49.4871214 117.750441,48.9334912 117.750441,48.3313866 C117.750441,47.6884613 117.655435,47.1118695 117.465424,46.6016113 C117.275413,46.0913532 117.00837,45.6576337 116.664296,45.300453 C116.320221,44.9432722 115.909386,44.6702841 115.431791,44.4814886 C114.954195,44.2926931 114.422677,44.1982953 113.837237,44.1982953 C113.128547,44.1982953 112.543107,44.2442185 112.080918,44.336065 C111.618729,44.4279115 111.238706,44.5248605 110.940851,44.6269122 L110.940851,44.6269122 L110.940851,55.0974101 L111.942261,55.0974101 Z M114.052926,51.5460131 C113.816696,51.5460131 113.590736,51.5230515 113.375048,51.4771283 C113.15936,51.431205 112.959078,51.3725254 112.774202,51.3010892 C112.589326,51.2296531 112.42756,51.1531143 112.288903,51.071473 C112.150246,50.9898317 112.034699,50.913293 111.942261,50.8418568 L111.942261,50.8418568 L111.942261,45.3157607 C112.096324,45.2647349 112.324851,45.2162604 112.627842,45.1703371 C112.930833,45.1244139 113.328829,45.1014523 113.821831,45.1014523 C114.684585,45.1014523 115.377869,45.379543 115.901683,45.9357244 C116.425498,46.4919058 116.687405,47.2904599 116.687405,48.3313866 C116.687405,48.7702086 116.641186,49.186069 116.548748,49.5789678 C116.45631,49.9718666 116.307383,50.3137396 116.101965,50.6045868 C115.896548,50.895434 115.626937,51.1250501 115.293134,51.2934353 C114.95933,51.4618205 114.545928,51.5460131 114.052926,51.5460131 Z M123.543214,52.4491701 C124.077299,52.4491701 124.565166,52.3496698 125.006813,52.1506691 C125.448461,51.9516684 125.831051,51.6735777 126.154584,51.316397 C126.478116,50.9592162 126.729753,50.5254968 126.909493,50.0152386 C127.089233,49.5049804 127.179103,48.9385938 127.179103,48.3160788 C127.179103,47.6935639 127.089233,47.1271773 126.909493,46.6169191 C126.729753,46.1066609 126.478116,45.6703902 126.154584,45.3081068 C125.831051,44.9458235 125.448461,44.6651815 125.006813,44.4661808 C124.565166,44.2671802 124.077299,44.1676798 123.543214,44.1676798 C123.009128,44.1676798 122.521262,44.2671802 122.079614,44.4661808 C121.637967,44.6651815 121.255377,44.9458235 120.931844,45.3081068 C120.608311,45.6703902 120.356675,46.1066609 120.176935,46.6169191 C119.997194,47.1271773 119.907324,47.6935639 119.907324,48.3160788 C119.907324,48.9385938 119.997194,49.5049804 120.176935,50.0152386 C120.356675,50.5254968 120.608311,50.9592162 120.931844,51.316397 C121.255377,51.6735777 121.637967,51.9516684 122.079614,52.1506691 C122.521262,52.3496698 123.009128,52.4491701 123.543214,52.4491701 Z M123.543214,51.5460131 C122.752357,51.5460131 122.125833,51.255166 121.663644,50.6734716 C121.201454,50.0917773 120.97036,49.3059797 120.97036,48.3160788 C120.97036,47.326178 121.201454,46.5378291 121.663644,45.9510322 C122.125833,45.3642352 122.752357,45.0708368 123.543214,45.0708368 C124.334071,45.0708368 124.960595,45.3642352 125.422784,45.9510322 C125.884973,46.5378291 126.116068,47.326178 126.116068,48.3160788 C126.116068,49.3059797 125.884973,50.0917773 125.422784,50.6734716 C124.960595,51.255166 124.334071,51.5460131 123.543214,51.5460131 Z M130.814993,52.2654772 L130.814993,45.3310685 C130.89716,45.2902478 131.069197,45.239222 131.331104,45.177991 C131.593012,45.11676 131.939654,45.0861445 132.37103,45.0861445 C132.781865,45.0861445 133.113101,45.1091062 133.364738,45.1550294 C133.616374,45.2009526 133.783276,45.2443246 133.865443,45.2851452 L133.865443,45.2851452 L134.065725,44.4279115 C133.952745,44.3768857 133.749895,44.3258598 133.457175,44.274834 C133.164456,44.2238082 132.853762,44.1982953 132.525094,44.1982953 C131.878028,44.1982953 131.328537,44.256975 130.876618,44.3743344 C130.4247,44.4916938 130.070355,44.6065018 129.813583,44.7187586 L129.813583,44.7187586 L129.813583,52.2654772 L130.814993,52.2654772 Z M138.564368,52.4338624 C138.985474,52.4338624 139.375767,52.3751827 139.735247,52.2578233 C140.094728,52.1404639 140.346365,52.035861 140.490157,51.9440145 L140.490157,51.9440145 L140.243656,51.1173963 C140.099864,51.1990376 139.899581,51.2883328 139.64281,51.3852818 C139.386038,51.4822309 139.047099,51.5307054 138.625993,51.5307054 C138.379492,51.5307054 138.153533,51.5051925 137.948115,51.4541667 C137.742698,51.4031408 137.568093,51.3010892 137.424301,51.1480118 C137.280508,50.9949343 137.170097,50.7780746 137.093065,50.4974326 C137.016033,50.2167906 136.977518,49.851956 136.977518,49.4029288 L136.977518,49.4029288 L136.977518,45.1932988 L140.151218,45.1932988 L140.151218,44.3513728 L136.977518,44.3513728 L136.977518,41.8409025 L135.976107,42.0245954 L135.976107,49.3110823 C135.976107,49.8417508 136.017191,50.3009832 136.099358,50.6887794 C136.181525,51.0765756 136.322749,51.4005896 136.523031,51.6608212 C136.723314,51.9210529 136.990356,52.114951 137.32416,52.2425156 C137.657963,52.3700801 138.071366,52.4338624 138.564368,52.4338624 Z M144.095234,52.4491701 C145.029883,52.4491701 145.766819,52.2654772 146.306039,51.8980913 C146.84526,51.5307054 147.114871,50.9898317 147.114871,50.2754703 C147.114871,49.8978792 147.04811,49.5840704 146.914589,49.3340439 C146.781067,49.0840174 146.606463,48.869709 146.390774,48.6911186 C146.175086,48.5125282 145.926017,48.3594508 145.643568,48.2318862 C145.361119,48.1043217 145.065831,47.9793084 144.757705,47.8568465 C144.45985,47.7343845 144.195375,47.6221277 143.96428,47.5200761 C143.733185,47.4180244 143.538039,47.3083189 143.37884,47.1909595 C143.219642,47.0736002 143.098959,46.9383817 143.016792,46.7853043 C142.934625,46.6322268 142.893541,46.4485339 142.893541,46.2342254 C142.893541,46.019917 142.93976,45.8387754 143.032198,45.6908005 C143.124636,45.5428256 143.247887,45.4203636 143.40195,45.3234146 C143.556013,45.2264655 143.733185,45.1550294 143.933467,45.1091062 C144.133749,45.0631829 144.34687,45.0402213 144.572829,45.0402213 C145.137727,45.0402213 145.566536,45.0912471 145.859256,45.1932988 C146.151976,45.2953504 146.359962,45.3769917 146.483212,45.4382227 L146.483212,45.4382227 L146.714307,44.5503734 C146.570514,44.4789373 146.321446,44.397296 145.967101,44.3054495 C145.612755,44.213603 145.163405,44.1676798 144.619048,44.1676798 C143.766566,44.1676798 143.096391,44.3666805 142.608525,44.7646819 C142.120658,45.1626833 141.876725,45.6831466 141.876725,46.3260719 C141.876725,46.6628423 141.93835,46.9485869 142.061601,47.1833057 C142.184851,47.4180244 142.349185,47.6195764 142.554603,47.7879616 C142.76002,47.9563468 142.99625,48.1043217 143.263293,48.2318862 C143.530336,48.3594508 143.812785,48.484464 144.11064,48.606926 C144.480392,48.7600035 144.791085,48.8926706 145.042722,49.0049274 C145.294358,49.1171842 145.497208,49.2345436 145.651271,49.3570055 C145.805334,49.4794675 145.915746,49.6172372 145.982507,49.7703147 C146.049268,49.9233921 146.082648,50.1070851 146.082648,50.3213935 C146.082648,50.7704207 145.895204,51.0893321 145.520318,51.2781276 C145.145431,51.4669231 144.670403,51.5613209 144.095234,51.5613209 C143.776837,51.5613209 143.496955,51.5409106 143.25559,51.5000899 C143.014224,51.4592692 142.806239,51.4107947 142.631634,51.3546663 C142.457029,51.2985379 142.318372,51.2475121 142.215664,51.2015889 C142.112955,51.1556656 142.046194,51.1224988 142.015382,51.1020885 L142.015382,51.1020885 L141.753474,52.0052455 C141.876725,52.0664765 142.123226,52.1557717 142.492977,52.2731311 C142.862729,52.3904904 143.396814,52.4491701 144.095234,52.4491701 Z M154.602338,52.2654772 L154.602338,47.1986134 L159.070169,47.1986134 L159.070169,46.2954564 L154.602338,46.2954564 L154.602338,42.5603665 L159.640202,42.5603665 L159.640202,41.6572095 L153.554709,41.6572095 L153.554709,52.2654772 L154.602338,52.2654772 Z M165.124849,52.4491701 C165.658935,52.4491701 166.146801,52.3496698 166.588449,52.1506691 C167.030096,51.9516684 167.412687,51.6735777 167.736219,51.316397 C168.059752,50.9592162 168.311388,50.5254968 168.491128,50.0152386 C168.670869,49.5049804 168.760739,48.9385938 168.760739,48.3160788 C168.760739,47.6935639 168.670869,47.1271773 168.491128,46.6169191 C168.311388,46.1066609 168.059752,45.6703902 167.736219,45.3081068 C167.412687,44.9458235 167.030096,44.6651815 166.588449,44.4661808 C166.146801,44.2671802 165.658935,44.1676798 165.124849,44.1676798 C164.590764,44.1676798 164.102897,44.2671802 163.66125,44.4661808 C163.219602,44.6651815 162.837012,44.9458235 162.513479,45.3081068 C162.189947,45.6703902 161.93831,46.1066609 161.75857,46.6169191 C161.57883,47.1271773 161.48896,47.6935639 161.48896,48.3160788 C161.48896,48.9385938 161.57883,49.5049804 161.75857,50.0152386 C161.93831,50.5254968 162.189947,50.9592162 162.513479,51.316397 C162.837012,51.6735777 163.219602,51.9516684 163.66125,52.1506691 C164.102897,52.3496698 164.590764,52.4491701 165.124849,52.4491701 Z M165.124849,51.5460131 C164.333992,51.5460131 163.707469,51.255166 163.245279,50.6734716 C162.78309,50.0917773 162.551995,49.3059797 162.551995,48.3160788 C162.551995,47.326178 162.78309,46.5378291 163.245279,45.9510322 C163.707469,45.3642352 164.333992,45.0708368 165.124849,45.0708368 C165.915707,45.0708368 166.54223,45.3642352 167.004419,45.9510322 C167.466609,46.5378291 167.697703,47.326178 167.697703,48.3160788 C167.697703,49.3059797 167.466609,50.0917773 167.004419,50.6734716 C166.54223,51.255166 165.915707,51.5460131 165.124849,51.5460131 Z M174.461074,52.4185546 C175.190306,52.4185546 175.806559,52.3675288 176.309832,52.2654772 C176.813104,52.1634255 177.213669,52.0715791 177.511524,51.9899378 L177.511524,51.9899378 L177.511524,44.3513728 L176.510114,44.3513728 L176.510114,51.3010892 C176.417676,51.3419099 176.196852,51.3878331 175.847642,51.4388589 C175.498432,51.4898847 175.087598,51.5153976 174.615137,51.5153976 C174.194031,51.5153976 173.837119,51.4618205 173.544399,51.3546663 C173.251679,51.2475121 173.012881,51.0740243 172.828005,50.834203 C172.643129,50.5943816 172.509608,50.2805728 172.427441,49.8927766 C172.345274,49.5049804 172.304191,49.0304403 172.304191,48.4691563 L172.304191,48.4691563 L172.304191,44.3513728 L171.30278,44.3513728 L171.30278,48.7906189 C171.30278,49.3314926 171.356702,49.8264431 171.464547,50.2754703 C171.572391,50.7244975 171.749563,51.1071911 171.996064,51.4235512 C172.242565,51.7399112 172.566098,51.9848352 172.966662,52.158323 C173.367226,52.3318107 173.865363,52.4185546 174.461074,52.4185546 Z M181.625009,52.2654772 L181.625009,45.3157607 C181.727718,45.2749401 181.951109,45.2290168 182.295184,45.177991 C182.639258,45.1269652 183.047525,45.1014523 183.519985,45.1014523 C183.961633,45.1014523 184.328817,45.1550294 184.621537,45.2621836 C184.914257,45.3693378 185.150487,45.5453769 185.330227,45.7903008 C185.509967,46.0352248 185.638353,46.3515848 185.715385,46.7393811 C185.792416,47.1271773 185.830932,47.6017174 185.830932,48.1630014 L185.830932,48.1630014 L185.830932,52.2654772 L186.832342,52.2654772 L186.832342,47.8415387 C186.832342,47.3006651 186.780988,46.8057146 186.678279,46.3566874 C186.575571,45.9076602 186.403533,45.5224153 186.162168,45.2009526 C185.920802,44.87949 185.59727,44.6320148 185.19157,44.458527 C184.785871,44.2850392 184.28003,44.1982953 183.674049,44.1982953 C182.944817,44.1982953 182.328564,44.2493211 181.825291,44.3513728 C181.322018,44.4534244 180.921454,44.5452709 180.623599,44.6269122 L180.623599,44.6269122 L180.623599,52.2654772 L181.625009,52.2654772 Z M193.287587,52.4491701 C193.996277,52.4491701 194.581717,52.4032469 195.043907,52.3114004 C195.506096,52.2195539 195.886118,52.1226049 196.183974,52.0205533 L196.183974,52.0205533 L196.183974,40.3866667 L195.182563,40.5703596 L195.182563,44.8259129 C195.007959,44.6932457 194.728077,44.5529247 194.342919,44.4049499 C193.957762,44.256975 193.503275,44.1829876 192.979461,44.1829876 C192.404292,44.1829876 191.893316,44.2850392 191.446533,44.4891425 C190.99975,44.6932457 190.622295,44.9789903 190.314169,45.3463762 C190.006043,45.7137621 189.77238,46.1500328 189.613182,46.6551885 C189.453983,47.1603441 189.374384,47.7139742 189.374384,48.3160788 C189.374384,48.9590041 189.46939,49.5355959 189.659401,50.0458541 C189.849412,50.5561123 190.116455,50.9898317 190.460529,51.3470124 C190.804603,51.7041932 191.215438,51.9771813 191.693034,52.1659768 C192.17063,52.3547724 192.702147,52.4491701 193.287587,52.4491701 Z M193.302993,51.5460131 C192.44024,51.5460131 191.746956,51.2679224 191.223141,50.711741 C190.699327,50.1555596 190.437419,49.3570055 190.437419,48.3160788 C190.437419,47.8772568 190.483638,47.4613964 190.576076,47.0684976 C190.668514,46.6755988 190.817442,46.3337258 191.022859,46.0428786 C191.228277,45.7520315 191.497887,45.519864 191.831691,45.3463762 C192.165494,45.1728884 192.578897,45.0861445 193.071899,45.0861445 C193.308129,45.0861445 193.534088,45.1091062 193.749776,45.1550294 C193.965465,45.2009526 194.165747,45.2596323 194.350623,45.3310685 C194.535498,45.4025046 194.697265,45.4790433 194.835921,45.5606846 C194.974578,45.642326 195.090126,45.7188647 195.182563,45.7903008 L195.182563,45.7903008 L195.182563,51.3317047 C195.0285,51.3827305 194.799973,51.431205 194.496983,51.4771283 C194.193992,51.5230515 193.795995,51.5460131 193.302993,51.5460131 Z M201.637808,52.4338624 C201.966476,52.4338624 202.287441,52.4211059 202.600703,52.395593 C202.913964,52.3700801 203.198981,52.3369133 203.455753,52.2960927 C203.712525,52.255272 203.938484,52.2170027 204.133631,52.1812846 C204.328777,52.1455665 204.477705,52.1123997 204.580414,52.0817842 L204.580414,52.0817842 L204.580414,47.0914592 C204.580414,46.6730475 204.529059,46.2852513 204.42635,45.9280705 C204.323642,45.5708898 204.159308,45.2621836 203.933349,45.0019519 C203.707389,44.7417203 203.412102,44.537617 203.047486,44.3896421 C202.68287,44.2416672 202.238654,44.1676798 201.71484,44.1676798 C201.201296,44.1676798 200.762216,44.2033979 200.3976,44.274834 C200.032984,44.3462702 199.763373,44.4228089 199.588769,44.5044502 L199.588769,44.5044502 L199.727425,45.3769917 C199.860947,45.3259659 200.0715,45.2596323 200.359084,45.177991 C200.646669,45.0963497 201.083181,45.055529 201.668621,45.055529 C202.079456,45.055529 202.410691,45.1193113 202.662328,45.2468759 C202.913964,45.3744404 203.109111,45.5428256 203.247768,45.7520315 C203.386424,45.9612373 203.476295,46.1959561 203.517378,46.4561878 C203.558462,46.7164194 203.579003,46.984305 203.579003,47.2598444 L203.579003,47.2598444 L203.579003,47.7496923 C203.53792,47.7292819 203.463456,47.7063203 203.355612,47.6808074 C203.247768,47.6552945 203.119382,47.6297816 202.970454,47.6042687 C202.821526,47.5787558 202.667463,47.5583454 202.508265,47.5430377 C202.349066,47.5277299 202.197571,47.5200761 202.053778,47.5200761 C201.571047,47.5200761 201.124264,47.5659993 200.713429,47.6578458 C200.302594,47.7496923 199.948249,47.8951158 199.650394,48.0941165 C199.352539,48.2931172 199.121444,48.545695 198.95711,48.8518499 C198.792776,49.1580048 198.710609,49.5253907 198.710609,49.9540076 C198.710609,50.4030348 198.785073,50.7831772 198.934,51.0944346 C199.082928,51.4056921 199.288346,51.6608212 199.550253,51.8598219 C199.81216,52.0588226 200.120286,52.2042462 200.474632,52.2960927 C200.828977,52.3879391 201.216702,52.4338624 201.637808,52.4338624 Z M201.807278,51.5460131 C201.48888,51.5460131 201.203864,51.5179489 200.952227,51.4618205 C200.700591,51.4056921 200.484902,51.316397 200.305162,51.193935 C200.125422,51.071473 199.986765,50.9081904 199.889192,50.7040871 C199.791618,50.4999839 199.742832,50.2499574 199.742832,49.9540076 C199.742832,49.6172372 199.814728,49.3468004 199.95852,49.1426971 C200.102312,48.9385938 200.287188,48.7778625 200.513147,48.6605031 C200.739107,48.5431437 200.985608,48.466605 201.25265,48.4308869 C201.519693,48.3951689 201.776465,48.3773098 202.022966,48.3773098 C202.454343,48.3773098 202.793281,48.405374 203.039782,48.4615024 C203.286283,48.5176308 203.466024,48.5712079 203.579003,48.6222337 L203.579003,48.6222337 L203.579003,51.4082434 C203.373586,51.4490641 203.124517,51.4822309 202.831797,51.5077438 C202.539077,51.5332567 202.197571,51.5460131 201.807278,51.5460131 Z M210.126686,52.4338624 C210.547792,52.4338624 210.938085,52.3751827 211.297566,52.2578233 C211.657046,52.1404639 211.908683,52.035861 212.052475,51.9440145 L212.052475,51.9440145 L211.805974,51.1173963 C211.662182,51.1990376 211.4619,51.2883328 211.205128,51.3852818 C210.948356,51.4822309 210.609417,51.5307054 210.188311,51.5307054 C209.94181,51.5307054 209.715851,51.5051925 209.510433,51.4541667 C209.305016,51.4031408 209.130411,51.3010892 208.986619,51.1480118 C208.842827,50.9949343 208.732415,50.7780746 208.655383,50.4974326 C208.578352,50.2167906 208.539836,49.851956 208.539836,49.4029288 L208.539836,49.4029288 L208.539836,45.1932988 L211.713536,45.1932988 L211.713536,44.3513728 L208.539836,44.3513728 L208.539836,41.8409025 L207.538425,42.0245954 L207.538425,49.3110823 C207.538425,49.8417508 207.579509,50.3009832 207.661676,50.6887794 C207.743843,51.0765756 207.885067,51.4005896 208.08535,51.6608212 C208.285632,51.9210529 208.552674,52.114951 208.886478,52.2425156 C209.220281,52.3700801 209.633684,52.4338624 210.126686,52.4338624 Z M214.517485,42.7287517 C214.722902,42.7287517 214.897507,42.6598669 215.041299,42.5220972 C215.185092,42.3843275 215.256988,42.1980832 215.256988,41.9633645 C215.256988,41.7286457 215.185092,41.5424015 215.041299,41.4046317 C214.897507,41.266862 214.722902,41.1979772 214.517485,41.1979772 C214.312067,41.1979772 214.137462,41.266862 213.99367,41.4046317 C213.849878,41.5424015 213.777982,41.7286457 213.777982,41.9633645 C213.777982,42.1980832 213.849878,42.3843275 213.99367,42.5220972 C214.137462,42.6598669 214.312067,42.7287517 214.517485,42.7287517 Z M215.025893,52.2654772 L215.025893,44.3513728 L214.024483,44.3513728 L214.024483,52.2654772 L215.025893,52.2654772 Z M221.296262,52.4491701 C221.830347,52.4491701 222.318214,52.3496698 222.759861,52.1506691 C223.201509,51.9516684 223.584099,51.6735777 223.907632,51.316397 C224.231164,50.9592162 224.482801,50.5254968 224.662541,50.0152386 C224.842281,49.5049804 224.932151,48.9385938 224.932151,48.3160788 C224.932151,47.6935639 224.842281,47.1271773 224.662541,46.6169191 C224.482801,46.1066609 224.231164,45.6703902 223.907632,45.3081068 C223.584099,44.9458235 223.201509,44.6651815 222.759861,44.4661808 C222.318214,44.2671802 221.830347,44.1676798 221.296262,44.1676798 C220.762176,44.1676798 220.27431,44.2671802 219.832662,44.4661808 C219.391015,44.6651815 219.008425,44.9458235 218.684892,45.3081068 C218.36136,45.6703902 218.109723,46.1066609 217.929983,46.6169191 C217.750242,47.1271773 217.660372,47.6935639 217.660372,48.3160788 C217.660372,48.9385938 217.750242,49.5049804 217.929983,50.0152386 C218.109723,50.5254968 218.36136,50.9592162 218.684892,51.316397 C219.008425,51.6735777 219.391015,51.9516684 219.832662,52.1506691 C220.27431,52.3496698 220.762176,52.4491701 221.296262,52.4491701 Z M221.296262,51.5460131 C220.505405,51.5460131 219.878881,51.255166 219.416692,50.6734716 C218.954503,50.0917773 218.723408,49.3059797 218.723408,48.3160788 C218.723408,47.326178 218.954503,46.5378291 219.416692,45.9510322 C219.878881,45.3642352 220.505405,45.0708368 221.296262,45.0708368 C222.087119,45.0708368 222.713643,45.3642352 223.175832,45.9510322 C223.638021,46.5378291 223.869116,47.326178 223.869116,48.3160788 C223.869116,49.3059797 223.638021,50.0917773 223.175832,50.6734716 C222.713643,51.255166 222.087119,51.5460131 221.296262,51.5460131 Z M227.792667,52.2654772 L227.792667,45.3157607 C227.895375,45.2749401 228.118767,45.2290168 228.462841,45.177991 C228.806916,45.1269652 229.215183,45.1014523 229.687643,45.1014523 C230.129291,45.1014523 230.496474,45.1550294 230.789194,45.2621836 C231.081914,45.3693378 231.318144,45.5453769 231.497885,45.7903008 C231.677625,46.0352248 231.806011,46.3515848 231.883042,46.7393811 C231.960074,47.1271773 231.99859,47.6017174 231.99859,48.1630014 L231.99859,48.1630014 L231.99859,52.2654772 L233,52.2654772 L233,47.8415387 C233,47.3006651 232.948646,46.8057146 232.845937,46.3566874 C232.743228,45.9076602 232.571191,45.5224153 232.329825,45.2009526 C232.08846,44.87949 231.764927,44.6320148 231.359228,44.458527 C230.953528,44.2850392 230.447688,44.1982953 229.841706,44.1982953 C229.112474,44.1982953 228.496222,44.2493211 227.992949,44.3513728 C227.489676,44.4534244 227.089112,44.5452709 226.791256,44.6269122 L226.791256,44.6269122 L226.791256,52.2654772 L227.792667,52.2654772 Z" id="PoweredbyUBportsFoundation" fill="#FFFFFF" fill-rule="nonzero"></path>
                </g>
            </g>
        </g>
    </g>
</svg>